<svg width="277" height="24" viewBox="0 0 277 24" fill="none" xmlns="http://www.w3.org/2000/svg">
<path fill-rule="evenodd" clip-rule="evenodd" d="M181.374 0.141956C181.298 0.20968 179.09 0.270694 176.47 0.278041C173.096 0.287306 171.703 0.400072 171.699 0.66362C171.695 0.93771 171.623 0.940265 171.427 0.673842C171.258 0.445114 170.224 0.346724 168.619 0.406461C165.649 0.516672 163.539 0.562035 162.9 0.529132C162.327 0.499742 150.101 0.854013 150.101 0.900014C150.101 0.918862 149.202 0.975406 148.104 1.02588C145.378 1.1511 145.457 1.12715 145.71 1.75455C145.882 2.18166 145.784 2.15354 145.295 1.63635C144.804 1.1166 144.359 0.991378 143.384 1.09808C142.685 1.17442 141.501 1.25173 140.752 1.26994C139.878 1.29102 139.39 1.45554 139.39 1.72835C139.39 2.23373 138.78 2.30049 138.596 1.81525C138.526 1.62869 137.981 1.48557 137.386 1.49707C133.752 1.56671 133.009 1.64114 132.769 1.95932C132.583 2.20657 132.501 2.19316 132.497 1.91428C132.493 1.63412 131.75 1.51496 130.01 1.51496C128.646 1.51496 127.424 1.60696 127.297 1.71941C127.169 1.83186 125.63 1.97305 123.878 2.03343C116.841 2.27494 115.429 2.39281 114.895 2.78318C114.588 3.00712 114.337 3.05983 114.337 2.90042C114.337 2.7407 114.029 2.61036 113.652 2.61036C113.243 2.61036 113.039 2.77584 113.146 3.02086C113.389 3.57862 113.057 3.53773 112.36 2.92438C111.842 2.46852 111.623 2.46501 110.205 2.8902C109.333 3.15151 108.416 3.24895 108.156 3.10775C107.897 2.96687 107.508 2.91065 107.29 2.98284C107.072 3.05472 105.995 3.17675 104.897 3.25374C100.674 3.55019 98.5224 3.76869 97.9981 3.95493C97.6986 4.06099 96.6122 4.12073 95.5839 4.08751C94.5557 4.05428 93.62 4.16162 93.5049 4.3255C93.3894 4.4897 92.9018 4.55774 92.4204 4.4766C91.9393 4.39578 90.6049 4.50152 89.4547 4.7114C88.3048 4.9216 86.6113 5.14777 85.6916 5.21421C84.7719 5.28066 83.5291 5.40876 82.93 5.49885C82.3309 5.58893 80.8604 5.74163 79.6622 5.83842C75.9101 6.14062 70.0266 6.91817 69.5528 7.17437C69.3843 7.2651 68.404 7.38489 67.3743 7.44015C65.0451 7.56538 64.121 7.74619 62.7598 8.34357C62.1483 8.61191 61.6894 8.67484 61.6894 8.49019C61.6894 8.10749 58.6638 8.47805 58.4888 8.88216C58.426 9.02719 58.1402 9.0668 57.8534 8.97001C57.5197 8.85724 57.3324 9.00068 57.3324 9.36837C57.3324 9.91399 57.308 9.91335 56.8429 9.35367C56.5234 8.96969 56.1821 8.85788 55.8608 9.03262C55.5899 9.17989 54.8706 9.34792 54.2625 9.40638C53.6543 9.46452 53.1053 9.64629 53.0418 9.81017C52.9742 9.98555 52.5915 9.99609 52.1126 9.83573C51.3716 9.58783 48.3906 10.0558 46.8028 10.6695C46.5033 10.7851 46.0374 10.8474 45.768 10.8081C45.4627 10.7634 45.3824 10.8854 45.5553 11.1314C45.7579 11.4202 45.6457 11.4579 45.1377 11.271C44.1302 10.9005 42.1484 11.0522 40.9655 11.5905C40.4016 11.847 39.4242 12.0569 38.7935 12.0569C38.1625 12.0569 36.3162 12.3418 34.6906 12.69C33.0647 13.0379 31.2856 13.4002 30.7362 13.4947C30.1433 13.5966 29.7377 13.8742 29.7377 14.1784C29.7377 14.6039 29.6426 14.6214 29.1779 14.2819C28.7534 13.972 28.5156 13.9627 28.1975 14.2426C27.9662 14.4461 27.3918 14.6125 26.9213 14.6125C25.2877 14.6125 22.8391 15.3172 22.8391 15.7874C22.8391 16.0532 22.6626 16.1513 22.4208 16.02C22.191 15.8951 21.7825 16.0577 21.5131 16.3816C21.2441 16.7059 21.0237 16.7995 21.0237 16.5902C21.0237 16.381 20.6152 16.2098 20.1159 16.2098C19.6167 16.2098 19.2082 16.3688 19.2082 16.5634C19.2082 16.7579 18.9501 16.8298 18.6349 16.7234C17.6059 16.3759 16.3046 16.864 16.2919 17.6019C16.2807 18.2725 16.2698 18.2737 15.7473 17.6661C15.2197 17.0521 15.2143 17.0521 15.2088 17.6661C15.2045 18.1242 15.1235 18.1757 14.8984 17.8632C14.6493 17.5179 14.3341 17.5387 13.1792 17.9773C12.4014 18.2728 11.0297 18.7024 10.131 18.9324C6.39488 19.8879 5.04892 20.5252 5.30998 21.2146C5.38659 21.4165 5.25188 21.689 5.01079 21.8203C4.7323 21.9717 4.66695 21.9241 4.83179 21.6899C5.65491 20.5176 2.9303 20.7872 1.72013 21.9976C1.3654 22.3525 1.06077 22.4573 0.982705 22.2512C0.909724 22.0583 0.617439 22.2825 0.333142 22.7496C-0.109098 23.4763 -0.110187 23.6386 0.324791 23.875C1.05932 24.2743 2.13841 23.661 2.16855 22.8272C2.19106 22.2075 2.22664 22.1918 2.45502 22.7023C2.76474 23.3933 3.21533 23.4552 3.64014 22.8655C3.84928 22.5752 3.94913 22.5605 3.95312 22.8195C3.95711 23.0952 4.23342 23.0738 4.95706 22.7416C5.50641 22.4895 6.24166 22.2825 6.59095 22.2813C6.94024 22.2803 7.22635 22.0682 7.22635 21.8101C7.22635 21.5245 7.43912 21.413 7.77098 21.5248C8.07053 21.6261 8.60136 21.6024 8.95101 21.4727C9.3003 21.3427 9.99235 21.1897 10.4887 21.1328C11.8085 20.9811 13.0869 20.3016 12.892 19.855C12.7939 19.6304 12.9795 19.502 13.3331 19.5499C13.669 19.5953 14.0546 19.4014 14.1904 19.119C14.4049 18.6724 14.4405 18.6794 14.4627 19.1723C14.483 19.626 14.723 19.7093 15.6681 19.5908C18.8114 19.1966 21.7063 18.1632 21.4619 17.523C21.3435 17.2128 21.4434 17.162 21.7934 17.3543C22.4753 17.7287 23.2639 17.8118 23.7261 17.5575C23.9371 17.4416 24.4367 17.3298 24.8361 17.3093C25.4515 17.2774 28.0832 16.7975 31.9163 16.0181C32.4155 15.9168 33.2325 15.7533 33.7317 15.6545C34.2309 15.5562 34.7596 15.3175 34.9063 15.1239C35.0878 14.8847 35.1746 14.9057 35.1786 15.1904C35.1815 15.4204 35.3616 15.5121 35.5787 15.3939C35.7959 15.276 35.8942 14.9128 35.7977 14.5873C35.6031 13.9333 36.1597 13.9062 36.9261 14.5326C37.5271 15.0239 38.0466 15.031 40.1064 14.5745C40.9938 14.378 41.7196 14.0314 41.7196 13.8043C41.7196 13.3845 42.5823 13.3484 43.0373 13.7487C43.1745 13.8694 43.506 13.8078 43.774 13.6123C44.1338 13.3494 44.2612 13.3532 44.2612 13.6263C44.2612 13.8793 44.4617 13.9017 44.8966 13.6969C45.6355 13.3494 47.4197 13.0347 49.6411 12.8613C50.5031 12.7935 51.4198 12.5843 51.678 12.3955C51.9365 12.207 52.8649 11.9959 53.7414 11.9269C54.6183 11.8575 55.4581 11.7866 55.6077 11.769C55.7573 11.7518 55.8916 11.486 55.9054 11.1784C55.9265 10.7209 55.9759 10.7062 56.1777 11.0985C56.4246 11.5774 58.0741 11.7122 59.1478 11.341C59.9128 11.0765 62.9039 10.7244 65.6536 10.5753C66.9353 10.5056 68.1778 10.3072 68.4145 10.1344C68.6512 9.96159 69.2365 9.83285 69.7151 9.8485C71.1144 9.89387 77.4605 9.14922 77.6623 8.91602C77.7636 8.79847 78.2552 8.70455 78.7545 8.70678C79.2537 8.70934 79.9483 8.50745 80.2976 8.25795C80.7838 7.91135 80.933 7.90049 80.933 8.21131C80.933 8.48572 81.1977 8.54482 81.75 8.39404C82.1995 8.27105 83.0858 8.18608 83.7197 8.20524C84.3537 8.22441 84.9763 8.09216 85.1031 7.91167C85.2552 7.69508 85.558 7.68837 85.9904 7.89186C86.3517 8.06181 86.7602 8.10142 86.8982 7.97971C87.0365 7.85832 87.8342 7.71776 88.6708 7.66793C91.0748 7.52417 93.8059 7.31237 94.0042 7.25391C94.104 7.22452 94.7165 7.2258 95.3657 7.25711C96.0422 7.28969 96.5458 7.15936 96.5458 6.95139C96.5458 6.75174 96.7091 6.6773 96.9088 6.78592C97.1085 6.89453 97.2719 6.83096 97.2719 6.64504C97.2719 6.45912 97.4451 6.30674 97.6564 6.30674C97.8678 6.30674 97.94 6.45049 97.8166 6.62619C97.6931 6.80189 97.9288 6.94564 98.3398 6.94564C98.7508 6.94564 99.0874 6.83703 99.0874 6.70446C99.0874 6.57157 100.19 6.44986 101.538 6.43388C102.886 6.41759 104.643 6.29716 105.441 6.16618C106.24 6.03552 107.27 5.94065 107.731 5.95566C108.249 5.97259 108.474 5.84992 108.322 5.63397C108.146 5.38288 108.287 5.38352 108.823 5.63589C109.675 6.03712 112.885 6.11603 112.885 5.73588C112.885 5.34711 114.428 5.33656 114.956 5.72182C115.267 5.94927 115.426 5.95439 115.426 5.73684C115.426 5.55603 115.753 5.48351 116.152 5.57519C116.552 5.6672 116.879 5.61768 116.879 5.46562C116.879 5.31324 118.02 5.20751 119.415 5.23083C121.216 5.26086 121.881 5.16821 121.706 4.91137C121.57 4.71236 121.736 4.74718 122.074 4.98804C122.412 5.22923 122.688 5.30111 122.688 5.14777C122.689 4.99475 123.78 4.86442 125.113 4.85835C126.728 4.851 127.588 4.71331 127.69 4.44561C127.806 4.13766 127.961 4.13095 128.351 4.4159C128.631 4.62035 128.863 4.6622 128.866 4.50886C128.869 4.35585 129.021 4.43763 129.203 4.69127C129.469 5.06056 129.716 5.07973 130.444 4.78775C131.138 4.50982 131.396 4.51398 131.532 4.80595C131.648 5.05513 131.815 5.07717 132.01 4.86921C132.175 4.69351 133.045 4.54017 133.944 4.52867C134.842 4.51717 135.986 4.4274 136.485 4.32933C136.985 4.23126 137.594 4.29164 137.839 4.46382C138.131 4.66795 138.642 4.66731 139.312 4.4619C139.876 4.28908 141.045 4.20347 141.909 4.27183C142.774 4.34051 143.994 4.27183 144.621 4.11977C145.247 3.96739 146.106 3.95525 146.528 4.09294C147.185 4.30665 147.271 4.24212 147.124 3.64762C146.991 3.10998 147.035 3.05631 147.319 3.41155C147.773 3.97857 149.917 4.17152 149.925 3.64634C149.928 3.42975 150.079 3.47384 150.283 3.75112C150.476 4.01467 150.637 4.10476 150.64 3.95174C150.643 3.7984 150.876 3.84121 151.158 4.04694C151.745 4.47532 152.304 3.98273 151.893 3.39845C151.757 3.20454 152.078 3.29527 152.607 3.60002C153.479 4.10284 154.279 4.13095 161.275 3.90382C165.513 3.76614 169.349 3.6604 169.799 3.6687C170.248 3.67669 170.616 3.55498 170.616 3.39781C170.616 3.24064 170.87 3.11222 171.182 3.11222C171.493 3.11222 171.655 3.24383 171.542 3.40452C171.247 3.8246 175.645 3.60673 176.133 3.17707C176.395 2.94674 176.756 2.9263 177.165 3.11893C177.511 3.28185 178.344 3.41985 179.016 3.4256C179.688 3.43167 180.932 3.47129 181.78 3.51377C182.947 3.57255 183.325 3.47448 183.329 3.11222C183.333 2.75795 183.409 2.73591 183.619 3.02757C183.922 3.44733 185.55 3.48247 195.669 3.2892C202.378 3.16078 201.812 3.16429 206.531 3.22403C209.274 3.25885 210.355 3.16237 210.464 2.87263C210.547 2.65317 210.765 2.47332 210.948 2.47332C211.131 2.47332 211.24 2.65317 211.19 2.87263C211.08 3.35852 213.51 3.42976 213.908 2.95249C214.074 2.75316 214.177 2.77935 214.18 3.02277C214.184 3.26204 214.676 3.39589 215.457 3.37034C216.156 3.34702 216.728 3.21604 216.728 3.07868C216.728 2.94163 217.095 2.90873 217.545 3.0052C218.762 3.26747 225.694 3.20997 226.203 2.93365C226.482 2.78191 226.549 2.82791 226.387 3.05887C226.02 3.58022 228.819 3.37513 229.572 2.82535C230.071 2.4615 230.162 2.46788 230.162 2.86528C230.162 3.19783 230.53 3.32146 231.421 3.28728C232.113 3.26108 232.775 3.15567 232.891 3.05344C233.008 2.9509 233.706 2.98668 234.442 3.13299C235.178 3.27897 236.477 3.31475 237.328 3.21189C238.686 3.04833 238.881 2.92278 238.919 2.19028C238.96 1.38207 238.969 1.3859 239.192 2.30177C239.417 3.22275 239.488 3.25054 241.782 3.32466C243.079 3.3665 244.467 3.46138 244.867 3.53485C245.266 3.60865 245.762 3.55179 245.968 3.40867C246.367 3.13203 247.172 3.16493 247.771 3.48214C247.971 3.58788 248.625 3.61057 249.224 3.53262C249.823 3.45499 250.477 3.4125 250.676 3.43806C250.876 3.46362 252.673 3.53613 254.67 3.59875C256.667 3.66168 258.849 3.80256 259.517 3.91213C260.399 4.05652 260.924 3.96004 261.424 3.56233C261.874 3.20358 262.113 3.1496 262.113 3.40675C262.113 3.65912 262.554 3.76678 263.344 3.70672C264.02 3.65561 264.85 3.81501 265.187 4.06099C265.713 4.44561 265.846 4.44401 266.13 4.05013C266.359 3.73164 266.461 3.71343 266.465 3.99071C266.468 4.2105 266.808 4.39003 267.221 4.39003C267.818 4.39003 267.93 4.24244 267.769 3.67126C267.658 3.2761 267.66 3.13235 267.775 3.35181C267.889 3.57159 268.143 3.75112 268.337 3.75112C268.532 3.75112 268.586 3.57159 268.457 3.35181C268.328 3.13235 268.539 3.29335 268.925 3.71023C269.525 4.3584 269.659 4.3929 269.853 3.94982C270.131 3.31092 271.043 3.27067 271.311 3.88561C271.514 4.35169 272.139 4.38939 272.883 3.98081C273.405 3.69298 274.542 4.03991 274.93 4.60566C275.317 5.16949 277 5.15576 277 4.58873C277 3.91788 276.186 3.46522 274.612 3.2614C273.829 3.16014 272.697 2.95409 272.098 2.80395C271.499 2.65381 270.764 2.52954 270.464 2.52762C270.165 2.52603 269.511 2.42732 269.012 2.30816C267.586 1.96826 264.284 1.51241 262.295 1.38079C261.297 1.31466 259.744 1.17187 258.846 1.06325C257.947 0.954641 254.516 0.792679 251.221 0.702913C247.926 0.613467 244.413 0.478978 243.414 0.404546C238.867 0.0646487 230.771 -0.0500343 230.203 0.217666C229.859 0.379629 229.38 0.404225 229.138 0.272931C228.896 0.141316 227.876 0.126303 226.871 0.239709C225.866 0.353114 224.97 0.341613 224.881 0.214152C224.718 -0.0180896 181.637 -0.0896462 181.374 0.141956ZM229.98 1.19551C230.104 1.37121 230.031 1.51496 229.82 1.51496C229.609 1.51496 229.436 1.37121 229.436 1.19551C229.436 1.01981 229.507 0.876056 229.596 0.876056C229.684 0.876056 229.857 1.01981 229.98 1.19551ZM247.953 2.15386C247.739 2.50526 247.504 2.79277 247.429 2.79277C247.355 2.79277 247.38 2.50526 247.485 2.15386C247.589 1.80247 247.825 1.51496 248.008 1.51496C248.192 1.51496 248.168 1.80087 247.953 2.15386ZM217.817 2.15386C217.817 2.32956 217.745 2.47332 217.657 2.47332C217.568 2.47332 217.396 2.32956 217.272 2.15386C217.149 1.97817 217.221 1.83441 217.432 1.83441C217.644 1.83441 217.817 1.97817 217.817 2.15386ZM164.08 2.65189C164.08 2.92566 163.917 3.06111 163.717 2.95249C163.517 2.84388 163.354 2.61995 163.354 2.45447C163.354 2.28899 163.517 2.15386 163.717 2.15386C163.917 2.15386 164.08 2.37812 164.08 2.65189ZM272.821 4.39514C272.695 4.57371 272.441 4.63728 272.255 4.53602C272.069 4.43507 271.917 4.50471 271.917 4.69063C271.917 5.17907 272.481 5.10624 273.006 4.54975C273.255 4.28621 273.366 4.07058 273.253 4.07058C273.141 4.07058 272.946 4.21657 272.821 4.39514ZM101.266 5.34838C101.266 5.52408 101.194 5.66784 101.106 5.66784C101.018 5.66784 100.845 5.52408 100.721 5.34838C100.598 5.17269 100.67 5.02893 100.881 5.02893C101.093 5.02893 101.266 5.17269 101.266 5.34838ZM10.5606 20.1125C10.3002 20.3415 10.131 20.3604 10.131 20.1604C10.131 19.7339 10.5606 19.356 10.8028 19.5694C10.9059 19.6602 10.7969 19.9045 10.5606 20.1125Z" fill="#6966FF"/>
</svg>
