<svg width="230" height="64" viewBox="0 0 230 64" fill="none" xmlns="http://www.w3.org/2000/svg">
<path fill-rule="evenodd" clip-rule="evenodd" d="M95.8421 0.559645C95.5128 0.88258 95.2454 0.917004 94.9294 0.67636C94.3119 0.206219 91.5746 1.44485 91.1366 2.39234C90.8867 2.93232 90.8581 2.79527 91.0226 1.84909L91.2428 0.583578L89.6762 0.835369C87.3853 1.20388 86.7211 1.24355 86.3271 1.03536C85.8188 0.766848 83.5347 0.990115 83.0499 1.35567C82.7796 1.5596 82.5837 1.52124 82.4804 1.24322C82.3538 0.903234 82.0904 0.898317 81.1465 1.21765C80.3447 1.48878 79.7605 1.51238 79.3111 1.29207C78.8085 1.04519 78.4799 1.1265 77.9254 1.635C77.3209 2.1894 76.943 2.26186 75.6828 2.06646C74.8491 1.93695 74.0061 1.88024 73.8095 1.94023C73.6129 1.9999 72.5672 2.09432 71.4857 2.14973C68.3605 2.31005 68.2682 2.32251 68.2682 2.58643C68.2682 2.72446 67.7613 2.76872 67.1414 2.68544C66.1339 2.54971 66.0356 2.60807 66.214 3.23394C66.3481 3.70408 66.2483 3.93423 65.9109 3.93423C65.6345 3.93423 65.4082 3.71293 65.4082 3.44245C65.4082 3.1146 65.0507 2.95068 64.3357 2.95068C63.7161 2.95068 63.2632 3.12378 63.2632 3.36049C63.2628 3.61359 62.7094 3.78703 61.8149 3.81424C60.1672 3.86407 59.6456 4.1575 60.4135 4.60273C60.7696 4.80927 60.7953 4.90927 60.4925 4.91287C60.2469 4.9155 60.0457 5.13909 60.0457 5.40957C60.0457 5.68005 59.8043 5.90135 59.5094 5.90135C59.2145 5.90135 58.9731 5.68005 58.9731 5.40957C58.9731 5.13909 59.134 4.91779 59.3307 4.91779C59.5273 4.91779 59.6882 4.77026 59.6882 4.58994C59.6882 4.09554 58.7197 4.19652 58.5034 4.71321C58.3883 4.98795 57.9804 5.10598 57.4609 5.01484C56.6723 4.87681 56.6186 4.95287 56.7541 6.01675C56.8936 7.11145 57.7784 7.87797 58.2295 7.29472C58.3436 7.14752 58.8795 7.00097 59.42 6.96949C59.9606 6.93802 60.6044 6.8954 60.85 6.87475C61.096 6.85409 61.6587 6.939 62.1013 7.06326C62.7019 7.2321 62.9057 7.15703 62.9057 6.76721C62.9057 6.34264 63.0762 6.30494 63.8227 6.56525C65.2026 7.04621 66.4807 6.96359 66.4807 6.39313C66.4807 6.08724 66.8182 5.90135 67.3745 5.90135C67.8968 5.90135 68.2682 6.08987 68.2682 6.35444C68.2682 6.9754 71.0964 7.01474 71.3545 6.39739C71.4575 6.1515 71.9716 5.95807 72.4968 5.96725C74.3161 5.99938 74.7033 5.89906 74.7033 5.39515C74.7033 5.1168 74.9045 4.91287 75.1502 4.94238C75.3961 4.97156 75.9645 4.97812 76.4139 4.95648C77.1136 4.92337 77.1765 4.82468 76.8526 4.26963C76.5441 3.74047 76.5744 3.65654 77.0188 3.8126C77.3184 3.91817 77.5633 4.20996 77.5633 4.46109C77.5633 4.71223 77.7875 4.91779 78.0613 4.91779C78.3352 4.91779 78.6508 5.1368 78.7631 5.40433C79.062 6.11904 83.3734 5.92922 84.3555 5.15811C85.1109 4.56502 85.971 4.37782 85.6325 4.88042C85.5249 5.04008 85.8409 5.24138 86.335 5.32826C86.8287 5.41482 87.3206 5.35547 87.4279 5.19647C87.5351 5.03713 87.7725 4.99189 87.9556 5.09582C88.1386 5.19942 88.2884 5.12794 88.2884 4.93713C88.2884 4.74632 88.6198 4.58994 89.0245 4.58994C89.4292 4.58994 89.6612 4.73747 89.5396 4.91779C89.4038 5.11942 89.9115 5.22663 90.8592 5.19647C91.8867 5.16368 92.079 5.10237 91.4362 5.01254C90.7494 4.91648 90.5328 4.73419 90.6815 4.37847C90.7963 4.10406 90.9886 4.00243 91.1087 4.15258C91.4469 4.57584 92.8691 5.24564 93.43 5.24564C93.7067 5.24564 94.6741 4.60404 95.5797 3.81949C96.7069 2.84314 97.226 2.5625 97.226 2.92937C97.226 3.22378 96.7405 3.72801 96.147 4.04931C94.9326 4.70731 95.0352 5.24564 96.3744 5.24564C96.946 5.24564 97.1784 5.11254 97.0193 4.87648C96.8409 4.61191 96.951 4.59977 97.4065 4.83353C98.2112 5.24663 99.371 4.98336 99.371 4.38765C99.371 4.13849 99.5319 3.93423 99.7285 3.93423C99.9251 3.93423 100.086 4.13095 100.086 4.37126C100.086 5.05713 104.297 4.97877 104.499 4.2893C104.624 3.86145 104.658 3.87096 104.692 4.34405C104.74 5.005 105.466 5.09877 106.092 4.52437C106.417 4.22602 106.521 4.22438 106.521 4.51748C106.521 4.94631 112.799 4.92763 113.551 4.49683C113.78 4.36536 114.049 4.44339 114.149 4.66993C114.289 4.98435 114.417 4.96926 114.693 4.60568C114.891 4.34372 114.976 4.01357 114.88 3.87161C114.785 3.72998 114.956 3.70179 115.261 3.80899C115.567 3.91653 115.816 4.17816 115.816 4.39093C115.816 4.81354 116.499 4.90992 119.212 4.87058C120.196 4.85615 122.287 4.87812 123.86 4.9191C128.871 5.04992 129.18 5.03451 129.321 4.64764C129.416 4.38438 129.622 4.41782 129.992 4.75682C130.665 5.37383 132.878 5.38662 134.455 4.78239C135.497 4.38339 135.76 4.38339 136.355 4.78239C137.199 5.34892 137.936 5.40105 137.338 4.85222C136.754 4.31684 136.799 3.93423 137.445 3.93423C137.74 3.93423 137.981 4.15553 137.981 4.42601C137.981 4.69649 138.263 4.92992 138.607 4.94435C138.951 4.9591 139.715 5.00598 140.305 5.0486C140.895 5.09123 141.496 4.96861 141.64 4.77616C141.816 4.54207 141.905 4.56174 141.908 4.83583C141.911 5.06139 142.276 5.24335 142.718 5.24073C143.278 5.23712 143.381 5.15352 143.059 4.96566C142.686 4.74895 142.699 4.61715 143.123 4.29389C143.554 3.96636 143.723 4.01488 144.04 4.5565C144.272 4.95418 144.642 5.14565 144.963 5.03287C145.257 4.92927 145.697 4.99418 145.94 5.17712C146.66 5.71841 147.839 5.76955 148.473 5.28728C148.857 4.99516 149.064 4.96631 149.064 5.20565C149.064 5.59612 150.219 5.71611 150.602 5.36531C151.116 4.89353 153.68 4.92435 153.974 5.40596C154.285 5.91578 155.816 6.05675 158.104 5.78627C158.848 5.69808 159.934 5.75152 160.517 5.90463C161.1 6.05806 161.576 6.06462 161.576 5.91938C161.576 5.77414 161.979 5.65546 162.47 5.65546C162.962 5.65546 163.364 5.84102 163.364 6.0679C163.364 6.56066 164.71 6.95081 164.873 6.50493C164.934 6.33412 165.586 6.07019 166.32 5.9184C167.517 5.67087 167.654 5.71021 167.654 6.30035C167.654 6.88229 167.808 6.93146 168.995 6.72819C169.732 6.60197 170.211 6.61377 170.058 6.75442C169.657 7.1249 172.037 7.80552 172.538 7.4639C172.781 7.29833 173.049 7.32358 173.185 7.52455C173.312 7.71372 174.023 7.86847 174.765 7.86847C175.508 7.86847 176.231 7.97469 176.372 8.10452C176.773 8.47172 180.292 8.47926 180.792 8.11436C181.113 7.87994 181.239 7.94256 181.239 8.33631C181.239 8.77465 181.579 8.88022 182.937 8.86284C183.871 8.85071 185.176 8.93628 185.837 9.053C186.614 9.19004 187.132 9.12545 187.304 8.87039C187.508 8.56778 187.687 8.57794 188.069 8.91366C188.794 9.55002 190.423 10.1562 190.707 9.89558C191.151 9.48773 192.655 9.6333 192.852 10.1034C193.004 10.467 193.155 10.4818 193.562 10.1723C194.077 9.77985 194.978 9.99885 194.678 10.4434C194.539 10.6496 195.548 10.6952 196.88 10.5424C197.126 10.5142 197.34 10.2329 197.355 9.91755C197.378 9.45888 197.425 9.44249 197.592 9.83558C197.706 10.1061 198.04 10.4893 198.333 10.6873C198.626 10.8854 198.761 11.2037 198.632 11.3945C198.487 11.6093 198.658 11.6794 199.08 11.5781C199.455 11.4883 200.347 11.6693 201.061 11.9801C201.776 12.2912 203.159 12.5459 204.134 12.5459C205.109 12.5459 205.907 12.6738 205.907 12.8299C205.907 12.9862 206.148 13.1141 206.443 13.1141C206.738 13.1141 206.979 12.9508 206.979 12.7512C206.979 12.5515 207.221 12.4732 207.516 12.5771C207.811 12.6807 208.052 12.6227 208.052 12.4482C208.052 11.9266 209.03 12.0889 209.265 12.6492C209.586 13.4157 209.562 13.442 208.563 13.442C207.689 13.442 207.674 13.4702 208.266 14.0128C208.709 14.4193 208.93 14.4675 209.035 14.18C209.135 13.9055 209.558 14.0396 210.357 14.599C211.101 15.1193 211.761 15.3412 212.152 15.2035C212.519 15.0747 212.898 15.1724 213.081 15.4432C213.251 15.695 213.678 15.9012 214.028 15.9012C214.379 15.9015 214.686 16.0861 214.71 16.311C214.735 16.5362 214.775 16.8444 214.8 16.9956C214.924 17.7644 218.062 18.3755 218.062 17.6309C218.062 17.4106 218.313 17.5585 218.619 17.9594C218.925 18.3607 219.088 18.8194 218.98 18.9787C218.72 19.3656 219.443 19.8587 220.664 20.1262C221.256 20.2561 222.051 20.8659 222.63 21.6343C223.165 22.3442 223.801 22.9304 224.043 22.9372C224.285 22.9441 224.593 23.3503 224.727 23.8405C224.861 24.3303 225.267 25.0227 225.63 25.3794C226.077 25.8197 226.204 26.2443 226.026 26.702C225.882 27.0724 225.799 27.957 225.842 28.6671C225.886 29.3776 225.681 30.2943 225.388 30.7047C225.094 31.1152 224.854 31.6771 224.854 31.9542C224.854 32.2309 224.693 32.4204 224.496 32.3755C224.299 32.3302 223.935 32.6623 223.686 33.1131C223.437 33.5639 222.874 34.0783 222.435 34.2564C221.996 34.4344 221.637 34.8327 221.637 35.1416C221.637 35.4507 221.41 35.8212 221.132 35.9655C220.854 36.1097 220.572 36.6703 220.506 37.2113C220.419 37.9277 220.19 38.204 219.666 38.2283C218.721 38.2722 217.031 39.0961 215.925 40.0521C215.438 40.4731 214.998 40.7849 214.946 40.7446C214.681 40.5393 211.36 41.9081 210.649 42.5156C210.4 42.7281 210.197 43.0772 210.197 43.2913C210.197 43.5143 209.903 43.6103 209.509 43.5159C209.132 43.4254 208.323 43.6293 207.713 43.9696C207.103 44.3096 206.373 44.588 206.09 44.588C205.806 44.588 204.979 45.0673 204.252 45.6528C203.524 46.2387 202.634 46.6718 202.273 46.6157C201.811 46.5439 201.617 46.7157 201.617 47.1964C201.617 47.7721 201.467 47.8445 200.664 47.6596C199.876 47.4783 199.751 47.5337 199.938 47.9813C200.089 48.3429 199.978 48.5222 199.601 48.5222C199.247 48.5222 199.114 48.3393 199.244 48.0304C199.383 47.696 199.224 47.5387 198.746 47.5387C198.359 47.5387 198.042 47.6616 198.042 47.8118C198.042 47.9622 197.841 48.1101 197.595 48.1409C193.666 48.6324 191.685 49.3261 191.538 50.2631C191.439 50.8995 191.376 50.9188 190.907 50.4559C190.376 49.9316 190.358 49.9333 187.256 50.8011C186.535 51.0031 185.342 51.2391 184.605 51.3254C183.869 51.4119 183.081 51.6237 182.854 51.7958C182.628 51.9679 181.489 52.2056 180.322 52.324C179.145 52.4433 177.449 52.9066 176.512 53.3649C175.156 54.0278 174.72 54.1121 174.3 53.7924C173.918 53.5016 173.585 53.4889 173.063 53.7452C172.67 53.938 171.8 54.0957 171.129 54.0957C170.458 54.0957 169.41 54.3239 168.8 54.6029C168.118 54.9153 166.292 55.1721 164.049 55.2711C162.045 55.3596 160.128 55.5684 159.789 55.7353C159.449 55.9019 158.063 56.0622 156.709 56.0917C155.356 56.1212 153.6 56.3425 152.809 56.5838C152.018 56.8248 150.329 57.0487 149.055 57.0815C147.434 57.1234 146.488 57.3208 145.9 57.7405C145.171 58.2608 144.993 58.2778 144.548 57.8693C144.174 57.527 143.798 57.4814 143.165 57.7021C142.686 57.869 141.686 57.9939 140.942 57.9798C140.199 57.9657 139.429 57.986 139.233 58.025C139.036 58.0644 138.368 58.0713 137.749 58.0408C137.13 58.0103 136.517 58.1431 136.388 58.3355C136.258 58.528 135.779 58.6856 135.323 58.6856C134.867 58.6856 134.297 58.9027 134.057 59.1682C133.697 59.5663 133.538 59.5754 133.152 59.2214C132.571 58.6886 128.475 58.8214 127.719 59.3974C127.313 59.7059 127.138 59.6971 126.908 59.3555C126.689 59.0299 125.612 58.9342 122.642 58.9761C118.3 59.0374 116.894 59.3443 116.878 60.2348C116.868 60.7737 116.838 60.7715 116.479 60.2036C116.164 59.7076 116.03 59.6764 115.774 60.0397C115.527 60.3921 115.415 60.3449 115.258 59.8194C115.121 59.365 114.719 59.1263 114.006 59.0765C113.429 59.0361 112.956 59.1335 112.956 59.2932C112.956 59.4528 112.473 59.5315 111.884 59.4686C111.294 59.4056 110.811 59.4879 110.811 59.6515C110.811 60.0767 109.716 60.2387 108.636 59.9735C107.942 59.8026 107.609 59.8994 107.293 60.3636C107.062 60.7029 106.6 60.9806 106.268 60.9806C105.797 60.9806 105.758 60.8931 106.092 60.5872C107.002 59.7531 106.506 59.5056 104.012 59.5469C102.633 59.5695 101.42 59.4646 101.318 59.3132C101.047 58.9099 99.43 59.6722 99.2501 60.2885C99.1264 60.7141 99.0882 60.6996 99.0549 60.2141C99.0178 59.6761 98.7164 59.6207 96.2428 59.6997C94.7191 59.7482 93.1157 59.9033 92.6803 60.0439C92.2141 60.1948 91.7951 60.161 91.6611 59.9623C91.5359 59.7764 91.1881 59.7108 90.8881 59.8164C90.5882 59.922 90.162 59.8797 89.9411 59.7223C88.7817 58.8961 87.2484 59.1873 86.7658 60.3249C86.6003 60.7157 86.5516 60.6977 86.5291 60.2377C86.5091 59.8276 86.2145 59.6626 85.5177 59.6725C84.9772 59.6797 84.1374 59.6453 83.6519 59.5954C82.6792 59.4961 82.1436 60.5374 82.9366 60.9865C83.1775 61.1232 83.2644 61.3993 83.1293 61.5996C82.7746 62.1258 82.2108 62.0478 82.2108 61.4724C82.2108 61.2019 82.0442 60.9806 81.8408 60.9806C81.5959 60.9806 81.6067 60.7475 81.873 60.2911C82.2605 59.6269 82.209 59.6063 80.4551 59.7174C79.0898 59.8043 78.6354 59.7207 78.6354 59.3833C78.6358 59.0204 78.5318 59.0122 78.0995 59.3414C77.7742 59.5889 77.5633 59.6151 77.5633 59.4079C77.5633 59.2079 76.637 59.0646 75.3289 59.0624C74.1002 59.0601 71.2984 59.0089 69.1037 58.9489C66.9086 58.8892 65.1873 58.9512 65.2788 59.0869C65.5004 59.4154 64.3657 59.0214 63.3175 58.4053C62.7087 58.048 62.3158 58.0054 61.8875 58.2503C61.5583 58.4388 60.9805 58.4748 60.5819 58.3322C59.5287 57.9549 56.8489 57.9827 55.2594 58.3876C54.2119 58.6542 53.804 58.6447 53.6045 58.3489C53.454 58.1254 52.4351 57.9365 51.2407 57.9109C49.5015 57.8739 49.0042 57.9922 48.3374 58.6037C47.3368 59.5213 46.6479 59.5827 47.2485 58.7004C47.7547 57.9572 47.3654 57.3969 46.7405 57.9699C46.1245 58.5348 45.5786 58.4457 46.103 57.866C46.3479 57.5955 46.4881 57.3667 46.4148 57.3575C46.3419 57.3487 45.2647 57.2592 44.0217 57.1588C41.995 56.9952 41.6668 57.0559 40.8431 57.749L39.9247 58.5217L40.1606 57.6201C40.4177 56.6379 40.4413 56.6494 37.9699 56.5533C37.134 56.5205 36.4505 56.6287 36.4505 56.7936C36.4505 56.9585 36.1977 56.8615 35.8888 56.5779C35.5796 56.2946 35.0433 56.0628 34.6969 56.0628C34.3505 56.0628 33.9644 55.9684 33.8386 55.8533C33.7131 55.7379 33.0024 55.6061 32.2598 55.5606C28.8303 55.3488 26.6413 55.0403 26.203 54.7068C25.8491 54.4373 25.5763 54.4567 25.1505 54.7809C24.6636 55.1514 24.5049 55.1298 24.1141 54.6396C23.7673 54.2049 23.6057 54.1672 23.4649 54.4882C23.3176 54.8232 23.21 54.8281 22.9651 54.5114C22.7931 54.2895 22.2787 54.1737 21.8218 54.2544C21.3646 54.3354 20.0911 54.1114 18.9915 53.757C17.8921 53.4023 16.7049 53.1961 16.3538 53.2984C15.9623 53.4121 15.7132 53.3171 15.7099 53.0522C15.7056 52.7341 15.6109 52.7499 15.3496 53.1122C15.0461 53.5331 14.9052 53.4997 14.3722 52.881C14.0293 52.4837 12.8242 51.8362 11.6934 51.4421C10.5626 51.0483 9.63775 50.6287 9.63775 50.5097C9.63775 50.3906 9.07469 50.3533 8.38649 50.427C7.23605 50.5503 7.13523 50.4913 7.13523 49.6972C7.13523 48.9953 6.92967 48.796 6.03555 48.632C5.25941 48.4898 4.6631 48.034 4.00851 47.0829C3.49836 46.3417 3.11904 45.6853 3.16552 45.6237C3.21235 45.562 3.01751 45.3407 2.73258 45.1319C2.44801 44.923 2.11446 43.9054 1.99112 42.871C1.7945 41.2167 1.85384 40.9406 2.48519 40.579C2.87988 40.3531 3.2027 39.8348 3.2027 39.4272C3.2027 39.0201 3.35607 38.6866 3.5434 38.6866C3.73073 38.6866 4.15151 38.1703 4.47791 37.5391C4.80431 36.908 5.29481 36.3917 5.56722 36.3917C5.83964 36.3917 6.06272 36.2058 6.06272 35.9789C6.06272 35.7517 6.38448 35.3815 6.77773 35.1563C7.17098 34.9311 7.49273 34.4701 7.49273 34.1321C7.49273 33.7813 7.81842 33.4393 8.25207 33.3354C8.86269 33.1889 8.96636 32.9892 8.78153 32.3135C8.55702 31.4939 9.01713 31.1463 9.459 31.8017C9.58055 31.982 9.814 32.1296 9.9781 32.1296C10.4225 32.1296 10.751 31.1431 10.4521 30.7067C10.3091 30.4975 10.238 30.0684 10.2948 29.7526C10.3513 29.4372 10.2173 29.1789 9.99669 29.1789C9.77611 29.1789 9.69209 29.3222 9.81007 29.4972C9.92804 29.6723 9.62166 29.908 9.12903 30.0215C8.63639 30.1349 8.13624 30.508 8.01755 30.8506C7.89922 31.1936 7.65218 31.4739 7.46878 31.4739C7.28538 31.4739 7.13523 31.6535 7.13523 31.8732C7.13523 32.0929 6.7073 32.6099 6.18463 33.022C5.6616 33.4338 5.05743 34.1026 4.84221 34.5075C4.62699 34.9127 3.93201 35.4655 3.29815 35.736C2.66323 36.0068 2.14235 36.4808 2.13806 36.7913C2.13305 37.1562 1.94107 37.288 1.59394 37.166C0.971883 36.947 0.918257 37.3237 1.40375 38.4955C1.69046 39.1863 1.62683 39.3909 1.03623 39.6807C0.643695 39.8735 0.421328 40.1774 0.542164 40.3567C0.663 40.5357 0.556464 40.9091 0.305497 41.1865C-0.0337731 41.5616 -0.050218 41.838 0.241862 42.2671C0.482461 42.6199 0.510704 43.0228 0.315507 43.3057C-0.119216 43.9356 -0.0995536 45.5715 0.342678 45.5715C0.539304 45.5715 0.713051 45.9774 0.728423 46.4731C0.743796 46.9688 0.837819 47.1905 0.936847 46.9649C1.17101 46.4335 1.70476 46.4335 1.654 46.9649C1.58786 47.6567 2.94887 49.8336 3.44759 49.8336C3.70606 49.8336 3.91771 50.0412 3.91771 50.2946C3.91771 50.5841 4.16724 50.6959 4.58731 50.5952C5.04563 50.4854 5.50395 50.7533 6.04163 51.4457C6.47314 52.0017 7.13738 52.4564 7.51705 52.4564C7.89707 52.4564 8.20774 52.6777 8.20774 52.9482C8.20774 53.2187 8.44905 53.44 8.74399 53.44C9.03893 53.44 9.28025 53.6 9.28025 53.7951C9.28025 53.9905 9.48152 54.0826 9.72713 54C9.97309 53.9174 10.1358 53.6892 10.0889 53.4928C10.0421 53.2964 10.2434 53.22 10.5358 53.323C10.8282 53.4259 11.0678 53.699 11.0678 53.9295C11.0678 54.3386 13.1102 55.4071 13.8924 55.4071C14.1087 55.4071 14.2853 55.5324 14.2853 55.6851C14.2853 55.8379 14.784 55.9759 15.3939 55.992C16.0034 56.0077 16.7889 56.2589 17.1392 56.5497C17.5668 56.9044 18.0838 57.0074 18.7119 56.8628C19.261 56.7366 19.6478 56.7851 19.6478 56.9802C19.6478 57.1631 19.9696 57.2356 20.3628 57.1415C21.1697 56.9477 21.3006 56.5277 20.631 56.2799C20.3854 56.189 20.5462 56.1028 20.9885 56.0887C21.4536 56.0736 21.7929 56.2566 21.7929 56.5225C21.7929 57.07 23.7838 57.8506 24.921 57.749C25.3632 57.7096 25.7254 57.8145 25.7254 57.9824C25.7254 58.4896 26.8551 58.7224 27.3795 58.3234C27.7596 58.0339 27.8704 58.0637 27.8704 58.4555C27.8704 58.8378 28.4163 59.0063 30.1048 59.1453C31.3339 59.2466 32.7975 59.3135 33.3581 59.2945C34.2761 59.263 34.3573 59.1689 34.1778 58.3463C34.0377 57.7041 34.1417 57.3762 34.5289 57.2398C35.364 56.9461 35.4741 56.9992 35.2321 57.5778C35.0612 57.9863 35.1763 58.069 35.7301 57.9362C36.6482 57.7162 36.6553 58.0775 35.7451 58.6791C35.0955 59.1086 35.0852 59.1912 35.6114 59.7246C36.0147 60.1331 36.3597 60.217 36.7829 60.0095C37.1229 59.8423 37.5991 59.8377 37.8826 59.9984C38.1575 60.1541 38.4975 60.2167 38.6377 60.1371C38.7782 60.0574 39.3487 60.1528 39.9061 60.3492C40.4634 60.5456 41.7236 60.7721 42.7068 60.8531C43.6899 60.9337 44.796 61.0852 45.1646 61.1895C45.6011 61.3127 45.7498 61.2521 45.5904 61.0157C45.2236 60.4715 45.9482 60.5787 46.4605 61.1445C47.089 61.8393 47.5331 61.7547 47.5331 60.9406C47.5331 60.4315 47.6532 60.3308 47.9799 60.5649C48.2259 60.7413 48.9498 61.0468 49.5887 61.2439C50.6791 61.5803 50.7506 61.555 50.7506 60.838C50.7506 60.3495 51.0083 60.0118 51.4645 59.9023C52.0261 59.7676 52.1127 59.8387 51.8703 60.2361C51.3305 61.1203 52.6271 61.9278 54.5734 61.9199C55.5186 61.916 56.9765 62.0566 57.8134 62.232C58.7018 62.4183 59.4172 62.4291 59.5326 62.2576C59.6413 62.0963 59.5598 61.9642 59.3517 61.9642C59.1437 61.9642 58.9731 61.8491 58.9731 61.7081C58.9731 61.3032 60.9977 60.7098 61.4685 60.9767C61.7474 61.1347 61.6065 61.2914 61.0592 61.4327L60.2244 61.6478L61.0381 62.2753C62.0713 63.072 67.1171 63.189 67.4374 62.4238C67.693 61.813 68.2682 61.8353 68.2682 62.456C68.2682 62.7582 68.6032 62.9477 69.138 62.9477C69.8698 62.9477 70.0032 62.794 69.9778 61.9806C69.956 61.2737 69.754 60.9868 69.2278 60.915C68.6 60.8292 68.5767 60.7646 69.0479 60.4088C69.5048 60.0636 69.72 60.2364 70.4476 61.534L71.307 63.0671L71.5097 62.1058C71.6212 61.577 71.5876 60.8196 71.4357 60.4226C71.2212 59.8633 71.2763 59.742 71.6799 59.8839C71.9662 59.9846 72.2033 60.2357 72.2061 60.442C72.2093 60.6662 72.337 60.6351 72.5239 60.3649C72.963 59.7292 73.7051 60.2489 73.4424 61.0082C73.323 61.3537 73.3859 61.6363 73.5825 61.6363C73.7791 61.6363 74.0423 61.9314 74.167 62.292C74.2918 62.6527 74.6243 62.9477 74.906 62.9477C75.1877 62.9477 75.4183 63.0953 75.4183 63.2756C75.4183 63.7126 76.7132 63.6929 77.6323 63.2418C78.1982 62.9641 78.4403 62.9831 78.6758 63.3238C78.9139 63.6684 78.9837 63.6395 78.9879 63.1936C78.9944 62.5097 79.9621 62.4405 80.7526 63.0674C81.0633 63.3133 81.9205 63.5992 82.6577 63.7025C83.7034 63.8487 83.9984 63.7815 83.9984 63.3969C83.9984 62.9022 84.8671 62.9897 86.1244 63.6103C86.409 63.751 87.0067 63.7388 87.4525 63.5831C87.9391 63.4136 88.3481 63.4267 88.4757 63.6159C88.7875 64.0785 91.0633 64.0008 91.2392 63.5215C91.3479 63.2258 91.5299 63.208 91.8945 63.4579C92.1723 63.6487 93.3238 63.8415 94.4535 63.8867C96.27 63.9592 96.6075 63.8697 97.375 63.11L98.243 62.2514L98.36 63.0094C98.4701 63.7215 98.6181 63.7631 100.801 63.6962C102.079 63.6572 103.286 63.61 103.482 63.591C103.679 63.5723 106.036 63.6588 108.721 63.7828C113.301 63.9946 113.613 63.971 113.774 63.3962C113.926 62.8556 113.951 62.851 113.987 63.3576C114.024 63.8693 114.423 64.0765 115.175 63.9749C115.719 63.9011 126.062 63.5333 126.988 63.5546C127.529 63.567 127.971 63.4392 127.971 63.2703C127.971 63.0848 128.3 63.0785 128.805 63.2549C129.264 63.4149 129.853 63.4248 130.114 63.2769C130.377 63.1277 130.856 63.1612 131.189 63.352C131.563 63.5657 132.318 63.5956 133.188 63.4307C133.956 63.2848 134.731 63.1979 134.91 63.2376C135.088 63.2776 135.349 63.1395 135.49 62.9313C135.683 62.6451 135.934 62.6448 136.513 62.929C136.936 63.1362 137.428 63.2228 137.606 63.1215C137.785 63.0202 138.939 62.8651 140.171 62.7776C141.402 62.6897 142.513 62.4635 142.641 62.2747C142.768 62.0858 143.179 61.9366 143.555 61.9435C144.495 61.9602 145.549 61.9586 146.293 61.9396C146.637 61.9307 146.919 61.7114 146.919 61.4521C146.919 61.1927 147.16 60.9806 147.455 60.9806C147.75 60.9806 147.991 61.1282 147.991 61.3085C147.991 61.4888 148.223 61.6363 148.505 61.6363C148.871 61.6363 149.013 61.2531 148.999 60.3092C148.988 59.579 149.079 58.8906 149.2 58.7791C149.322 58.6676 149.421 58.9627 149.421 59.4351C149.421 60.3944 150.105 61.9642 150.522 61.9642C151.192 61.9642 151.924 61.5278 151.924 61.1288C151.924 60.3905 152.721 60.1918 153.212 60.8078C153.763 61.4986 154.965 61.2304 154.653 60.4862C154.534 60.2003 154.651 59.9971 154.936 59.9971C155.203 59.9971 155.515 60.2184 155.628 60.4888C155.741 60.7593 156.201 60.9636 156.65 60.9426C157.255 60.9144 157.304 60.8659 156.84 60.7547C156.113 60.5806 155.992 59.9971 156.682 59.9971C156.939 59.9971 157.462 60.2062 157.843 60.4616C158.332 60.7898 158.667 60.8262 158.984 60.5856C159.299 60.3456 159.431 60.358 159.431 60.6275C159.431 60.8816 159.822 60.9432 160.593 60.8111C161.834 60.5983 162.255 60.5328 165.867 59.9898C167.145 59.7974 168.512 59.5046 168.905 59.3384C169.299 59.1725 170.022 59.0522 170.514 59.0712C171.792 59.121 174.208 58.6837 174.607 58.3303C174.794 58.165 175.252 58.0299 175.625 58.0299C175.997 58.0299 176.73 57.7545 177.252 57.4175C177.898 57.0005 178.428 56.8887 178.915 57.0667C180.046 57.4801 180.519 57.4169 180.296 56.8825C180.166 56.571 180.301 56.3907 180.665 56.3907C180.981 56.3907 181.239 56.5382 181.239 56.7185C181.239 56.8988 181.48 57.0464 181.775 57.0464C182.409 57.0464 182.415 57.0103 181.963 55.9202C181.736 55.3737 181.736 55.0793 181.963 55.0793C182.155 55.0793 182.312 55.3006 182.312 55.571C182.312 55.8415 182.62 56.0628 182.997 56.0628C183.374 56.0628 183.736 56.2058 183.801 56.3805C183.871 56.5667 184.602 56.4733 185.566 56.155C186.81 55.7435 187.311 55.3688 187.621 54.6157L188.03 53.6203L188.575 54.3327C189.093 55.0111 189.189 55.0225 190.58 54.5727C191.383 54.3127 192.161 54.1685 192.308 54.2521C192.455 54.3354 192.504 54.0567 192.415 53.6325C192.257 52.8748 193.054 52.0132 193.297 52.6797C193.365 52.8666 193.629 53.281 193.884 53.601C194.293 54.1144 194.512 54.1357 195.748 53.7826C196.518 53.5626 197.83 53.1007 198.663 52.7558C199.497 52.4109 200.425 52.1286 200.726 52.1286C201.027 52.1286 201.911 51.7598 202.689 51.309C203.468 50.8582 204.338 50.4893 204.623 50.4893C204.908 50.4893 205.353 50.3047 205.613 50.0795C205.873 49.8543 206.626 49.63 207.286 49.5818C207.946 49.5333 208.826 49.2753 209.242 49.0081C209.658 48.7409 210.284 48.5222 210.634 48.5222C210.983 48.5222 211.269 48.3009 211.269 48.0304C211.269 47.7547 211.588 47.5387 211.995 47.5387C212.395 47.5387 212.815 47.3174 212.927 47.0469C213.041 46.7764 213.522 46.5551 213.998 46.5551C214.591 46.5551 214.969 46.2977 215.202 45.7355C215.534 44.9335 216.274 44.5942 216.274 45.2437C216.274 45.7286 216.964 45.6417 217.577 45.0798C217.872 44.8093 218.385 44.588 218.718 44.588C219.05 44.588 219.481 44.268 219.675 43.8772C219.869 43.4861 220.349 43.0067 220.741 42.8117C221.133 42.6166 221.809 42.1251 222.243 41.7193C222.677 41.3137 223.161 40.9754 223.318 40.9678C223.475 40.96 224.005 40.4905 224.497 39.9239C224.989 39.3574 225.834 38.5073 226.377 38.0352C227.692 36.8893 229.782 33.041 228.781 33.6085C228.057 34.0187 228.311 32.4689 229.234 30.8447C229.788 29.8674 230.116 28.9822 229.962 28.8776C229.807 28.7727 229.68 27.6665 229.68 26.4194C229.679 24.8991 229.532 24.1064 229.233 24.0149C228.988 23.9398 228.787 23.6854 228.787 23.4493C228.787 23.213 228.561 22.9402 228.284 22.8431C228.008 22.7458 227.674 22.2153 227.542 21.6642C227.41 21.1131 227.154 20.578 226.972 20.4751C226.79 20.3724 226.636 19.9649 226.629 19.5699C226.622 19.1748 226.26 18.4768 225.825 18.0188C224.741 16.8782 222.352 15.2973 222.352 15.7202C222.352 15.9097 222.111 16.0648 221.816 16.0648C221.521 16.0648 221.279 15.9409 221.279 15.7897C221.279 15.6383 220.877 15.3461 220.386 15.1409C219.894 14.9353 219.488 14.5062 219.483 14.1865C219.474 13.5931 217.442 12.4584 216.388 12.4584C216.074 12.4584 215.588 12.2001 215.308 11.8847C214.958 11.4903 214.744 11.4326 214.621 11.7004C214.5 11.964 214.209 11.8755 213.719 11.426C213.216 10.965 212.731 10.8231 212.132 10.9608C211.648 11.0722 211.269 11.0145 211.269 10.8296C211.269 10.2946 208.705 8.97202 207.158 8.70875C206.372 8.57499 205.563 8.34057 205.362 8.18812C204.621 7.62749 200.887 6.66098 198.277 6.35477C197.459 6.25904 196.268 6.05577 195.629 5.90332C194.842 5.71579 194.467 5.74201 194.467 5.98495C194.467 6.18199 194.105 6.03675 193.662 5.66169C193.158 5.23384 192.192 4.91976 191.07 4.8178C190.087 4.72829 188.479 4.48994 187.495 4.28766C186.512 4.0857 184.776 3.86276 183.637 3.79195C182.498 3.72146 181.372 3.5218 181.135 3.34836C180.897 3.17493 179.577 3.01952 178.2 3.0028C175.734 2.97297 175.148 2.90576 174.089 2.53299C173.127 2.19432 169.799 2.05596 169.799 2.35464C169.799 2.51496 169.502 2.50021 169.139 2.32185C168.685 2.09891 168.35 2.11563 168.066 2.37595C167.755 2.66151 167.654 2.64217 167.654 2.29792C167.654 1.9658 167.532 1.99531 167.204 2.40611C166.696 3.0428 165.257 2.98215 164.801 2.30513C164.605 2.01498 164.137 1.94023 163.383 2.07859C162.616 2.21891 162.333 2.17137 162.496 1.92941C162.646 1.70647 162.429 1.72385 161.916 1.97597C161.238 2.30874 161.027 2.29038 160.692 1.87007C160.328 1.41436 160.245 1.41862 159.88 1.9104C159.503 2.4189 159.472 2.41693 159.453 1.88515C159.441 1.56976 159.391 1.29797 159.342 1.28158C159.293 1.26551 157.654 1.18683 155.7 1.10716C153.746 1.02716 151.951 0.812092 151.71 0.62915C151.411 0.400964 151.193 0.41375 151.021 0.669148C150.857 0.912414 150.317 0.959625 149.47 0.804551C147.256 0.399325 145.846 0.432438 145.846 0.889793C145.846 1.12158 145.685 1.31141 145.489 1.31141C145.292 1.31141 145.172 1.14552 145.221 0.942577C145.27 0.739636 144.908 0.533744 144.416 0.484894C143.925 0.436044 143.161 0.289822 142.718 0.159664C142.109 -0.0190156 141.914 0.0524562 141.914 0.45342C141.914 0.745209 142.102 0.983558 142.331 0.983558C142.56 0.983558 142.628 1.09404 142.48 1.22879C142.333 1.36387 142.01 1.2206 141.763 0.910447C141.152 0.143927 139.486 0.0901596 138.03 0.789797C137.082 1.24453 136.74 1.28158 136.421 0.963231C136.114 0.658656 136.124 0.616363 136.462 0.790781C136.736 0.932741 136.909 0.824878 136.909 0.511123C136.909 0.230153 136.703 0 136.452 0C135.896 0 134.392 0.893071 133.781 1.58582C133.392 2.02646 133.334 1.99597 133.334 1.35207C133.334 0.760619 133.19 0.653411 132.619 0.819632C132.109 0.967821 131.904 0.878645 131.904 0.508828C131.904 0.128846 131.592 0.00622907 130.742 0.0514728C130.103 0.0858973 129.32 0.230481 129.001 0.373097C128.683 0.515713 128.325 0.543252 128.206 0.434077C128.087 0.324574 126.514 0.193105 124.71 0.141632C122.23 0.0711438 121.227 0.170811 120.593 0.551448C119.891 0.973723 119.725 0.981263 119.565 0.598659C119.365 0.119666 118.051 0.0357357 117.312 0.454732C117.072 0.590135 116.953 0.814386 117.047 0.95274C117.14 1.09109 116.997 1.49239 116.728 1.84384C116.311 2.38939 115.122 2.59069 114.029 2.30087C113.727 2.22088 115.617 1.53238 115.949 1.60156C116.121 1.63697 116.161 1.42682 116.039 1.13404C115.916 0.841598 115.816 0.465551 115.816 0.299002C115.816 0.122945 114.654 0.0763897 113.045 0.18786C109.778 0.414078 109.836 0.414734 108.577 0.13901C107.824 -0.0259004 107.594 0.0436042 107.594 0.434077C107.594 0.886514 107.482 0.891104 106.61 0.474403C105.264 -0.1695 102.589 -0.127863 101.529 0.553415C100.918 0.945855 100.626 0.993394 100.525 0.717342C100.318 0.145894 98.4633 0.242611 97.9106 0.853401C97.478 1.33141 97.384 1.32125 96.8713 0.74062C96.3923 0.198023 96.2382 0.170812 95.8421 0.559645ZM100.443 1.47534C100.443 1.74582 100.283 1.98548 100.086 2.0081C99.8894 2.03072 99.5619 2.06744 99.3581 2.09006C99.154 2.11268 98.8347 2.35234 98.6485 2.62282C98.1676 3.32017 98.1851 2.44578 98.6685 1.61763C99.1043 0.870777 100.443 0.763569 100.443 1.47534ZM81.4958 2.1117C81.4958 2.19137 81.335 2.34743 81.1383 2.4589C80.9417 2.57037 80.7808 2.50512 80.7808 2.31431C80.7808 2.1235 80.9417 1.96712 81.1383 1.96712C81.335 1.96712 81.4958 2.03203 81.4958 2.1117ZM70.9652 3.91096C70.6138 4.43257 70.0475 4.00767 70.2974 3.41C70.435 3.08116 70.6299 3.01821 70.8587 3.22804C71.0514 3.40475 71.0993 3.71195 70.9652 3.91096ZM158.359 3.44245C158.359 3.71293 158.123 3.93423 157.834 3.93423C157.514 3.93423 157.389 3.74211 157.515 3.44245C157.628 3.17198 157.864 2.95068 158.04 2.95068C158.215 2.95068 158.359 3.17198 158.359 3.44245ZM162.087 3.19656C161.909 3.33197 161.643 3.58999 161.497 3.77031C161.344 3.95751 161.228 3.85194 161.224 3.52442C161.221 3.20542 161.484 2.95068 161.815 2.95068C162.142 2.95068 162.265 3.06116 162.087 3.19656ZM69.3407 3.93423C69.3407 4.11455 69.1799 4.26209 68.9832 4.26209C68.7866 4.26209 68.6257 4.11455 68.6257 3.93423C68.6257 3.75391 68.7866 3.60638 68.9832 3.60638C69.1799 3.60638 69.3407 3.75391 69.3407 3.93423ZM80.6839 3.8044C80.5653 3.91325 80.2567 3.92505 79.999 3.8303C79.7137 3.72572 79.7984 3.64802 80.2149 3.63228C80.5917 3.61818 80.8026 3.69556 80.6839 3.8044ZM167.654 4.287C167.654 4.44208 167.413 4.48437 167.118 4.38077C166.823 4.27684 166.582 4.06472 166.582 3.90932C166.582 3.75424 166.823 3.71195 167.118 3.81555C167.413 3.91948 167.654 4.1316 167.654 4.287ZM175.162 3.93423C175.162 4.11455 174.88 4.25979 174.536 4.25717C174.001 4.25291 173.988 4.2057 174.447 3.93423C175.121 3.53425 175.162 3.53425 175.162 3.93423ZM62.7269 4.58994C62.8485 4.77026 62.7773 4.91779 62.5693 4.91779C62.3612 4.91779 62.1907 4.77026 62.1907 4.58994C62.1907 4.40962 62.2615 4.26209 62.3483 4.26209C62.4352 4.26209 62.6054 4.40962 62.7269 4.58994ZM156.214 4.58994C156.214 4.77026 156.043 4.91779 155.835 4.91779C155.627 4.91779 155.556 4.77026 155.678 4.58994C155.799 4.40962 155.969 4.26209 156.056 4.26209C156.143 4.26209 156.214 4.40962 156.214 4.58994ZM165.135 5.39154C165.46 5.75087 165.475 5.90135 165.184 5.90135C164.957 5.90135 164.679 5.68005 164.566 5.40957C164.453 5.13909 164.136 4.91779 163.862 4.91779C163.588 4.91779 163.364 4.76501 163.364 4.57846C163.364 4.15389 164.478 4.66502 165.135 5.39154ZM160.407 4.78796C160.288 4.89681 159.98 4.90861 159.722 4.81386C159.437 4.70928 159.522 4.63158 159.938 4.61584C160.315 4.60174 160.526 4.67911 160.407 4.78796ZM55.6366 5.79218C55.1707 6.21904 55.4078 6.88491 56.0238 6.87999C56.5185 6.87606 56.5464 6.81508 56.1567 6.58853C55.8857 6.43116 55.7746 6.13839 55.9097 5.93807C56.18 5.53711 56.0123 5.4476 55.6366 5.79218ZM173.635 6.75508C173.516 6.86393 173.207 6.87573 172.95 6.78098C172.664 6.67639 172.749 6.59869 173.166 6.58296C173.542 6.56886 173.753 6.64623 173.635 6.75508ZM174.804 7.21276C174.804 7.39308 174.643 7.54061 174.447 7.54061C174.25 7.54061 174.089 7.39308 174.089 7.21276C174.089 7.03244 174.25 6.88491 174.447 6.88491C174.643 6.88491 174.804 7.03244 174.804 7.21276ZM178.737 7.37669C178.737 7.64717 178.576 7.86847 178.379 7.86847C178.182 7.86847 178.022 7.64717 178.022 7.37669C178.022 7.10621 178.182 6.88491 178.379 6.88491C178.576 6.88491 178.737 7.10621 178.737 7.37669ZM188.747 8.05174C188.747 8.33271 188.586 8.47172 188.389 8.36025C188.193 8.24878 188.032 8.01895 188.032 7.84912C188.032 7.6793 188.193 7.54061 188.389 7.54061C188.586 7.54061 188.747 7.77077 188.747 8.05174ZM201.974 10.9831C201.974 11.2535 201.733 11.4748 201.438 11.4748C201.143 11.4748 200.902 11.2535 200.902 10.9831C200.902 10.7126 201.143 10.4913 201.438 10.4913C201.733 10.4913 201.974 10.7126 201.974 10.9831ZM214.366 13.8518C214.267 14.0773 214.186 13.8928 214.186 13.442C214.186 12.9912 214.267 12.8069 214.366 13.0321C214.465 13.2577 214.465 13.6265 214.366 13.8518ZM45.9243 17.7041C45.8027 17.8844 45.8739 18.0319 46.082 18.0319C46.29 18.0319 46.4605 17.8844 46.4605 17.7041C46.4605 17.5237 46.3898 17.3762 46.3029 17.3762C46.216 17.3762 46.0458 17.5237 45.9243 17.7041ZM41.1545 19.0155C41.1545 19.4663 41.2356 19.6508 41.3347 19.4253C41.4341 19.2 41.4341 18.8312 41.3347 18.6056C41.2356 18.3804 41.1545 18.5647 41.1545 19.0155ZM33.6569 19.4135C33.1 19.9243 33.1135 20.4213 33.6798 20.2331C33.9258 20.1515 34.398 20.301 34.7298 20.5655C35.0616 20.8305 35.5038 20.9498 35.7129 20.8314C36.2224 20.5426 36.197 19.999 35.6743 19.999C35.4441 19.999 34.9911 19.7797 34.6683 19.5118C34.2154 19.1358 33.9841 19.1135 33.6569 19.4135ZM28.8485 20.8508C28.7309 20.9586 28.7209 21.2527 28.8264 21.5048C28.9801 21.8724 28.7012 21.9232 27.4189 21.7619C26.4007 21.634 25.73 21.6943 25.5727 21.9275C25.4369 22.1291 25.4962 22.294 25.7043 22.294C25.9124 22.294 26.0829 22.6445 26.0829 23.0726C26.0829 23.6847 26.2742 23.8513 26.9766 23.8513C27.6062 23.8513 27.8704 23.6729 27.8704 23.248C27.8704 22.5841 28.866 21.9707 29.5689 22.2019C29.8678 22.3002 29.9364 22.1589 29.7762 21.776C29.6125 21.3852 29.6694 21.2783 29.9546 21.4399C30.1849 21.5704 30.3729 21.5366 30.3729 21.3649C30.3729 21.1931 30.1184 20.9632 29.8074 20.8537C29.1134 20.6095 29.1113 20.6095 28.8485 20.8508ZM31.0879 21.5534C31.0879 22.1579 31.7486 22.3582 32.4257 21.9593C32.9326 21.6602 32.9416 21.6203 32.4722 21.7517C32.1519 21.8416 31.7096 21.7494 31.489 21.5471C31.1927 21.2754 31.0879 21.277 31.0879 21.5534ZM23.4016 22.6218C23.2801 22.8022 23.3512 22.9497 23.5593 22.9497C23.7673 22.9497 23.9379 23.1589 23.9379 23.4143C23.9379 24.0873 24.7637 24.2391 25.2349 23.6526C25.5391 23.2739 25.5234 23.0454 25.1709 22.7225C24.6164 22.2137 23.7112 22.1622 23.4016 22.6218ZM20.9885 23.5034C20.6442 23.5861 20.3628 23.9198 20.3628 24.245C20.3628 24.5703 20.0915 25.0391 19.7597 25.2866C19.2346 25.6781 19.1852 25.6656 19.3797 25.1899C19.5123 24.8644 19.3951 24.5703 19.0891 24.4624C18.8066 24.3631 18.5753 24.4247 18.5753 24.5991C18.5753 24.7739 18.334 24.9168 18.0391 24.9168C17.7441 24.9168 17.5028 25.0598 17.5028 25.2345C17.5028 25.4089 17.2779 25.4729 17.0027 25.3758C16.204 25.0948 16.1039 25.6797 16.8336 26.3676C17.4238 26.9243 17.5028 26.9341 17.5028 26.4495C17.5028 26.1476 17.7441 25.9004 18.0391 25.9004C18.334 25.9004 18.5753 26.1318 18.5753 26.4151C18.5753 27.276 20.1183 26.8413 20.4018 25.9004C20.5573 25.3847 20.6624 25.2935 20.6846 25.6545C20.7246 26.2951 21.2648 26.419 21.6334 25.8718C21.7653 25.6758 22.1743 25.5876 22.5422 25.6758C23.0884 25.8066 23.1485 25.7299 22.8718 25.2555C22.6855 24.9365 22.6308 24.5857 22.7502 24.4762C22.988 24.2578 22.1997 23.2543 21.8386 23.3156C21.7149 23.3366 21.3327 23.4211 20.9885 23.5034ZM23.2229 24.589C22.7645 24.8604 22.7774 24.9076 23.3122 24.9119C23.6565 24.9145 23.9379 24.7693 23.9379 24.589C23.9379 24.189 23.8975 24.189 23.2229 24.589ZM13.8577 27.0383C12.0173 28.1271 11.8242 28.4065 12.7659 28.6186C13.1098 28.696 12.8689 28.6996 12.2296 28.6265C11.027 28.4888 10.6295 28.9546 11.6444 29.3117C12.0105 29.4405 12.1535 29.753 12.0355 30.1664C11.9333 30.5247 11.9955 30.8182 12.1739 30.8182C12.3519 30.8182 12.4978 30.5231 12.4978 30.1625C12.4978 29.4477 12.7613 29.3586 13.5385 29.8097C14.1241 30.1497 15.3578 29.5641 15.3578 28.9465C15.3578 28.7111 15.6181 28.6206 15.9834 28.7284C16.4879 28.8773 16.5097 28.8484 16.0957 28.5793C15.677 28.3068 15.6663 28.1527 16.0374 27.7426C16.4067 27.3347 16.4024 27.1272 16.0145 26.6426C15.5601 26.0748 15.4536 26.0941 13.8577 27.0383ZM6.59898 34.0967C6.72232 34.2796 6.4549 34.4222 5.99444 34.4196C5.3302 34.4154 5.27371 34.3524 5.70522 34.0967C6.37053 33.7026 6.33335 33.7026 6.59898 34.0967ZM215.381 42.6209C215.502 42.8012 215.341 42.9487 215.023 42.9487C214.705 42.9487 214.544 42.8012 214.666 42.6209C214.787 42.4405 214.948 42.293 215.023 42.293C215.098 42.293 215.259 42.4405 215.381 42.6209ZM209.248 46.0774C209.131 46.3558 208.959 46.5131 208.866 46.4272C208.772 46.3413 208.801 46.1135 208.931 45.9214C209.283 45.3981 209.489 45.4997 209.248 46.0774ZM208.175 48.0445C208.059 48.3229 207.887 48.4802 207.793 48.3943C207.699 48.3085 207.729 48.0806 207.858 47.8885C208.211 47.3652 208.417 47.4669 208.175 48.0445ZM199.829 49.1779C199.829 49.3582 199.659 49.5058 199.451 49.5058C199.243 49.5058 199.171 49.3582 199.293 49.1779C199.415 48.9976 199.585 48.8501 199.672 48.8501C199.759 48.8501 199.829 48.9976 199.829 49.1779ZM201.081 49.1779C201.202 49.3582 201.051 49.5058 200.744 49.5058C200.438 49.5058 200.187 49.3582 200.187 49.1779C200.187 48.9976 200.338 48.8501 200.523 48.8501C200.708 48.8501 200.959 48.9976 201.081 49.1779ZM177.307 55.735C177.307 55.9153 177.146 56.0628 176.949 56.0628C176.752 56.0628 176.592 55.9153 176.592 55.735C176.592 55.5547 176.752 55.4071 176.949 55.4071C177.146 55.4071 177.307 55.5547 177.307 55.735ZM39.0724 58.7181C39.2361 58.8306 39.1157 59.0119 38.8043 59.1214C38.3964 59.265 38.238 59.1246 38.238 58.6207C38.238 58.2358 38.3588 58.0542 38.5061 58.2175C38.6534 58.3804 38.9083 58.606 39.0724 58.7181ZM45.2912 59.2115C45.1725 59.3204 44.8639 59.3322 44.6062 59.2374C44.3209 59.1328 44.4056 59.0551 44.8221 59.0394C45.1989 59.0253 45.4099 59.1027 45.2912 59.2115ZM132.976 60.4888C132.976 60.7714 132.654 60.9806 132.218 60.9806C131.583 60.9806 131.532 60.8996 131.904 60.4888C132.149 60.2184 132.49 59.9971 132.662 59.9971C132.835 59.9971 132.976 60.2184 132.976 60.4888ZM93.8297 60.6528C93.9512 60.8331 93.7904 60.9806 93.4722 60.9806C93.154 60.9806 92.9931 60.8331 93.1147 60.6528C93.2362 60.4724 93.3971 60.3249 93.4722 60.3249C93.5472 60.3249 93.7081 60.4724 93.8297 60.6528ZM79.7083 60.7767C79.7083 60.8446 79.467 61.0839 79.1721 61.3085C78.7327 61.6429 78.6358 61.6203 78.6358 61.1845C78.6358 60.8921 78.8771 60.6528 79.1721 60.6528C79.467 60.6528 79.7083 60.7085 79.7083 60.7767ZM103.304 60.7973C103.304 60.877 103.143 61.0331 102.946 61.1445C102.749 61.256 102.589 61.1908 102.589 61C102.589 60.8092 102.749 60.6528 102.946 60.6528C103.143 60.6528 103.304 60.7177 103.304 60.7973ZM87.4243 61.6363C87.7031 61.6363 87.9309 61.9314 87.9309 62.292C87.9309 62.6527 87.839 62.9477 87.7267 62.9477C87.316 62.9477 86.6775 62.1111 86.6006 61.4724C86.5574 61.1118 86.611 61.0013 86.7197 61.2265C86.8287 61.4521 87.1458 61.6363 87.4243 61.6363ZM72.5583 62.292C72.5583 62.7146 72.7392 62.9471 73.0051 62.8658C73.2511 62.7907 73.452 62.5323 73.452 62.292C73.452 62.0517 73.2511 61.7934 73.0051 61.7183C72.7392 61.637 72.5583 61.8694 72.5583 62.292ZM95.3251 62.3537C95.2111 62.615 95.1263 62.5373 95.1092 62.1553C95.0938 61.8098 95.1782 61.6163 95.2969 61.7252C95.4156 61.834 95.4284 62.117 95.3251 62.3537ZM96.3322 63.2756C96.4538 63.4559 96.3022 63.6034 95.9958 63.6034C95.6894 63.6034 95.4384 63.4559 95.4384 63.2756C95.4384 63.0953 95.5897 62.9477 95.7749 62.9477C95.96 62.9477 96.2106 63.0953 96.3322 63.2756Z" fill="#6966FF"/>
</svg>
