<svg width="32" height="100" viewBox="0 0 32 100" fill="none" xmlns="http://www.w3.org/2000/svg">
<path fill-rule="evenodd" clip-rule="evenodd" d="M13.8624 0.593033C13.7162 1.4718 13.7278 1.51546 14.1597 1.71294C14.3777 1.81264 14.556 1.9821 14.556 2.08942C14.556 2.36716 15.2172 2.32046 15.547 2.01946C15.9618 1.64089 15.883 1.20417 15.3488 0.919951C15.0872 0.780606 14.8731 0.569015 14.8731 0.449685C14.8731 0.266497 14.4081 0.00915639 14.0606 6.50327e-06C14.006 -0.00151848 13.9169 0.265353 13.8624 0.593033ZM15.4303 2.85363C15.1687 3.20132 15.1576 3.2871 15.3551 3.43731C15.4825 3.53415 15.6402 3.61459 15.7055 3.61631C15.7709 3.61783 15.8245 3.73983 15.8245 3.88718C15.8245 4.19218 15.1858 4.07533 15.0006 3.73678C14.9401 3.62565 14.8521 3.58104 14.8051 3.63728C14.6727 3.79664 15.002 5.00309 15.227 5.18189C15.3815 5.30465 15.3639 5.38719 15.1506 5.53836C14.9979 5.64644 14.8731 5.82162 14.8731 5.92742C14.8731 6.03321 14.9364 6.07267 15.0138 6.01529C15.2763 5.8201 15.5492 6.46497 15.4519 7.05076C15.3926 7.40646 15.4221 7.62224 15.5299 7.62224C15.629 7.62224 15.6705 7.82583 15.6271 8.0988C15.5692 8.46346 15.6179 8.57536 15.8348 8.57536C15.9908 8.57536 16.1509 8.42534 16.1909 8.24177C16.2576 7.93448 16.2648 7.93544 16.2817 8.25435C16.2919 8.44459 16.2142 8.78771 16.1091 9.01684C16.0041 9.24578 15.8923 9.64608 15.8609 9.90609C15.8295 10.1663 15.7409 10.4259 15.664 10.4831C15.5841 10.5424 15.5876 10.7077 15.6718 10.8678C15.7531 11.0224 15.8207 11.0546 15.8221 10.9395C15.8233 10.8243 16.0385 10.7229 16.3001 10.714C16.6136 10.7033 16.7758 10.7908 16.7758 10.9709C16.7758 11.1211 16.6687 11.2441 16.5379 11.2441C16.4071 11.2441 16.3001 11.3819 16.3001 11.5504C16.3001 11.7546 16.2143 11.8171 16.0431 11.7382C15.8349 11.6421 15.8089 11.7014 15.9056 12.0514C15.9713 12.2889 16.0225 12.912 16.0196 13.4362C16.0166 13.9604 16.0964 14.4524 16.1967 14.5295C16.3169 14.6215 16.2901 14.6705 16.1189 14.6724C15.6233 14.6779 15.6196 15.6231 16.1151 15.6345C16.3554 15.64 16.3542 15.6635 16.1019 15.8937C15.9492 16.0331 15.8245 16.2447 15.8245 16.3642C15.8245 16.4837 15.7482 16.5815 15.6548 16.5815C15.5616 16.5815 15.5081 16.7746 15.5359 17.0104C15.5638 17.2462 15.6545 17.4115 15.7373 17.3775C15.8202 17.3436 15.9489 17.5135 16.0233 17.7554C16.1095 18.0356 16.0976 18.2193 15.9905 18.2624C15.898 18.2994 15.876 18.4296 15.9413 18.5516C16.11 18.8667 16.1046 19.6315 15.9337 19.6315C15.8551 19.6315 15.8302 19.7558 15.8787 19.9077C15.9377 20.0924 15.8907 20.1488 15.7371 20.0779C15.5952 20.0125 15.5074 20.0892 15.5074 20.2782C15.5074 20.4468 15.5698 20.5846 15.6461 20.5846C15.8329 20.5846 15.8238 21.5156 15.6358 21.6555C15.5529 21.7171 15.6033 21.921 15.7495 22.1153C15.9968 22.4439 15.9928 22.4582 15.6805 22.36C15.4902 22.3002 15.3488 22.3465 15.3488 22.4685C15.3488 22.5857 15.4558 22.6814 15.5866 22.6814C15.7452 22.6814 15.8245 22.8721 15.8245 23.2533C15.8245 23.698 15.8949 23.8252 16.1416 23.8252C16.316 23.8252 16.4587 23.9109 16.4587 24.0158C16.4587 24.1206 16.383 24.2064 16.2908 24.2064C16.1985 24.2064 16.1744 24.3067 16.2375 24.4294C16.3136 24.5774 16.2671 24.6132 16.0999 24.536C15.7457 24.3726 15.4471 24.8547 15.6328 25.2903C15.8949 25.9051 15.8275 27.0377 15.4875 27.7304L15.1603 28.3972L15.6485 28.7322C15.9169 28.9165 16.1772 29.1937 16.227 29.3483C16.3298 29.6674 15.8505 30.1685 15.5674 30.0379C15.4458 29.9819 15.3805 30.1849 15.3805 30.619C15.3805 31.0206 15.4704 31.3275 15.6066 31.3904C15.8901 31.5212 15.5931 32.0219 15.2319 32.0219C15.0303 32.0219 15.035 32.0949 15.2637 32.5147C15.5172 32.9796 15.5162 33.0284 15.2486 33.3841C15.0547 33.6417 15.0208 33.8024 15.1414 33.8921C15.2383 33.9644 15.3602 34.4524 15.4124 34.9766C15.4644 35.5008 15.4655 35.8226 15.4146 35.6914C15.3639 35.5603 15.1975 35.4531 15.045 35.4531C14.6973 35.4531 14.7127 36.0679 15.0724 36.5456C15.2308 36.7561 15.3193 37.1655 15.3004 37.6003C15.2748 38.1918 15.2117 38.311 14.9234 38.3117C14.7148 38.3121 14.5367 38.4669 14.4747 38.7017C14.3507 39.1712 14.5259 40.5552 14.7284 40.7056C14.9903 40.9002 14.8801 41.1369 14.4371 41.3316C14.1972 41.4368 14.0904 41.5298 14.1993 41.538C14.3084 41.5462 14.3975 41.7675 14.3975 42.0296C14.3975 42.3262 14.4874 42.5062 14.6353 42.5062C14.7661 42.5062 14.8731 42.592 14.8731 42.6968C14.8731 42.8016 14.7661 42.8874 14.6353 42.8874C14.3807 42.8874 14.3594 43.0662 14.3948 44.9006C14.4154 45.9675 14.3861 46.0731 14.0109 46.2786C13.5613 46.5249 13.4563 47.2153 13.8416 47.393C13.9719 47.4532 14.0422 47.5731 13.9976 47.6599C13.9531 47.7464 13.9968 47.8768 14.0947 47.9496C14.2255 48.0468 14.224 48.1181 14.0894 48.2182C13.9884 48.2931 13.8971 48.5611 13.8862 48.8139C13.8754 49.0665 13.7541 49.4347 13.6166 49.6322C13.3823 49.9689 13.3889 49.983 13.7236 49.8577C14.0144 49.7489 14.0804 49.7971 14.0804 50.1183C14.0804 50.3351 14.0211 50.5123 13.9485 50.5123C13.7527 50.5123 13.4519 51.8312 13.564 52.1974C13.6173 52.3715 13.7374 52.577 13.831 52.654C13.9345 52.7392 13.8962 52.795 13.733 52.7969C13.3198 52.8013 13.2507 53.1141 13.5231 53.7474C13.6824 54.1178 13.7084 54.3248 13.5955 54.3248C13.4988 54.3248 13.4517 54.4321 13.4909 54.5631C13.5787 54.8581 13.3146 55.511 13.1551 55.3925C13.091 55.3448 13.029 55.4496 13.0176 55.6254C12.9835 56.1466 12.8814 56.5922 12.7638 56.7339C12.7031 56.8067 12.6534 57.101 12.6534 57.3877C12.6534 57.7636 12.7974 58.0255 13.1687 58.3256C13.5443 58.6288 13.5927 58.7181 13.3474 58.6544C13.0807 58.585 13.0268 58.6411 13.0883 58.9239C13.1311 59.1203 13.0839 59.281 12.9834 59.281C12.8494 59.281 12.8464 59.3833 12.9723 59.6662C13.2061 60.1916 13.0186 60.4806 12.5377 60.3355C12.1838 60.2286 12.1659 60.247 12.3772 60.5011C12.922 61.1559 12.8928 63.7587 12.3333 64.4314C12.091 64.7227 12.0219 64.9653 12.0988 65.2555C12.2888 65.9726 12.3157 66.8035 12.1529 66.9244C12.0584 66.9945 12.0952 67.1605 12.2453 67.3411C12.567 67.7278 12.5642 68.0496 12.2391 68.0496C12.0454 68.0496 12 68.1876 12.0525 68.6169C12.0906 68.9288 12.0451 69.2185 11.9515 69.2606C11.8467 69.3079 11.9241 69.6472 12.1527 70.1438C12.4211 70.7267 12.476 71.0079 12.3509 71.1583C12.2556 71.2729 12.1778 71.6066 12.1778 71.9002C12.1778 72.2791 12.0974 72.4356 11.9003 72.4396C11.6377 72.4452 11.6379 72.456 11.903 72.6415C12.1006 72.7799 12.1416 72.9265 12.0425 73.1394C11.8772 73.4947 11.9878 74.1495 12.2133 74.1495C12.2995 74.1495 12.3262 74.2877 12.2723 74.4566C12.202 74.6764 12.2423 74.7325 12.4139 74.6534C12.7257 74.5094 12.7184 74.7004 12.3953 75.1295C12.219 75.3638 12.131 75.859 12.1178 76.6913C12.1037 77.58 12.0447 77.8857 11.9003 77.8204C11.6419 77.7033 11.6354 78.568 11.8924 78.877C12.0007 79.0072 12.0137 79.1057 11.9225 79.1057C11.831 79.1057 11.7462 79.7607 11.7246 80.6307C11.6996 81.6494 11.7456 82.1557 11.8634 82.1557C11.9602 82.1557 12.0248 82.3917 12.0069 82.6799C11.9675 83.3118 12.1594 84.0619 12.3604 84.0619C12.4433 84.0619 12.4367 83.9062 12.3447 83.6997C12.2207 83.4212 12.2418 83.3107 12.4361 83.2211C12.649 83.1227 12.6731 83.2167 12.5898 83.8215C12.5355 84.2159 12.4876 84.6885 12.4831 84.8721C12.4787 85.0554 12.4172 85.2056 12.3463 85.2056C12.2754 85.2056 12.2174 85.4201 12.2174 85.6822C12.2174 85.9443 12.2799 86.1588 12.3561 86.1588C12.4324 86.1588 12.4949 86.2874 12.4949 86.4447C12.4949 86.602 12.6019 86.7306 12.7327 86.7306C13.0217 86.7306 13.0436 87.1374 12.7723 87.4668C12.6136 87.6595 12.6293 87.7449 12.8516 87.8957C13.0043 87.9992 13.1291 88.2941 13.1291 88.5511C13.1291 88.8078 13.2115 89.0181 13.3122 89.0181C13.4191 89.0181 13.3817 89.1691 13.2222 89.381C12.9875 89.6927 12.9785 89.8059 13.1579 90.1824C13.2729 90.4237 13.5047 90.7627 13.6731 90.9358C14.0817 91.3559 14.1825 93.0911 13.8354 93.7284C13.5943 94.1706 13.5844 94.1721 13.1048 93.8372C12.8375 93.6504 12.573 93.3588 12.5171 93.1887C12.3316 92.6243 11.2734 91.361 10.8887 91.2449C10.6803 91.182 10.3918 90.8912 10.2477 90.5985C9.73624 89.5606 9.24378 89.0181 8.81252 89.0181C8.56296 89.0181 8.29485 88.8538 8.15643 88.6163C8.02753 88.3951 7.84519 88.2716 7.75101 88.3416C7.65683 88.4115 7.57978 88.3686 7.57978 88.2465C7.57978 88.1243 7.47276 88.0736 7.34195 88.134C7.18023 88.2085 7.10412 88.1237 7.10412 87.8684C7.10412 87.662 7.03785 87.4931 6.95683 87.4931C6.87597 87.4931 6.68745 87.3463 6.53825 87.1668C6.3889 86.9872 6.15916 86.8214 6.02756 86.7981C5.8958 86.775 5.74534 86.6851 5.69302 86.5985C5.51211 86.2991 4.2743 85.4108 3.86666 85.2878C3.64152 85.2199 3.45744 85.0907 3.45744 85.0009C3.45744 84.9111 3.24339 84.5743 2.98178 84.2525C2.72017 83.9308 2.50613 83.5447 2.50613 83.3949C2.50613 83.0712 1.93202 82.6605 1.71004 82.8253C1.62474 82.8888 1.55482 82.8436 1.55482 82.7253C1.55482 82.3278 1.07267 81.9248 0.564033 81.8972C-0.0498787 81.8638 -0.210491 82.3518 0.321924 82.6326C0.520431 82.7373 0.693094 82.9944 0.705619 83.2041C0.718145 83.4138 0.735903 83.7685 0.745257 83.9925C0.766662 84.511 2.08438 86.1584 2.86287 86.6401C3.1898 86.8423 3.45744 87.1393 3.45744 87.3C3.45744 87.6706 4.00666 88.0922 4.30823 87.9531C4.4663 87.8801 4.57031 88.0284 4.6442 88.4327C4.74345 88.9765 4.92959 89.1142 5.46185 89.037C5.56142 89.0227 5.63277 89.159 5.6204 89.3399C5.6074 89.529 5.79052 89.7825 6.05055 89.9354C6.57266 90.2427 7.10412 90.8376 7.10412 91.1149C7.10412 91.2198 7.23144 91.3056 7.38714 91.3056C7.54284 91.3056 7.98837 91.7373 8.37713 92.265C8.76606 92.7928 9.35223 93.4478 9.67964 93.7206C10.0072 93.9935 10.2752 94.3302 10.2752 94.4689C10.2752 95.1329 10.8588 96.0727 11.4643 96.3834C11.8131 96.5624 12.1521 96.6941 12.2174 96.676C12.2827 96.6579 12.3363 96.8146 12.3363 97.0242C12.3363 97.2339 12.4077 97.4055 12.4949 97.4055C12.5821 97.4055 12.6534 97.6199 12.6534 97.882C12.6534 98.1787 12.7433 98.3586 12.8913 98.3586C13.0221 98.3586 13.2718 98.5302 13.4462 98.7399C13.6206 98.9495 13.8346 99.1211 13.9218 99.1211C14.009 99.1211 14.0804 99.2069 14.0804 99.3117C14.0804 99.4166 14.1814 99.5023 14.3051 99.5023C14.4286 99.5023 14.5562 99.5984 14.5889 99.716C14.6214 99.8334 14.9128 99.949 15.2362 99.9726C15.6694 100.004 15.8245 99.94 15.8245 99.7294C15.8245 99.4905 15.8746 99.4978 16.1284 99.774C16.3716 100.039 16.4986 100.062 16.7647 99.8908C17.0287 99.7208 17.0642 99.6034 16.9376 99.3192C16.8241 99.0641 16.833 98.9392 16.9686 98.8849C17.0732 98.843 17.1766 98.4728 17.1985 98.0622C17.2203 97.6514 17.3125 97.2858 17.4033 97.2494C17.4942 97.213 17.5685 96.9758 17.5685 96.7225C17.5685 96.469 17.6416 96.2618 17.731 96.2618C17.8203 96.2618 17.9613 96.0473 18.0442 95.7852C18.1271 95.5231 18.2631 95.3086 18.3467 95.3086C18.4301 95.3086 18.5438 95.1371 18.5991 94.9274C18.6544 94.7177 18.7905 94.5462 18.9015 94.5462C19.0125 94.5462 19.1845 94.3317 19.2837 94.0696C19.3831 93.8075 19.5243 93.593 19.5975 93.593C19.6708 93.593 20.0113 93.0787 20.3541 92.4503C20.6969 91.8218 21.0294 91.3071 21.0928 91.3065C21.2728 91.305 23.1169 89.1477 23.1261 88.9279C23.1307 88.8202 23.5697 88.3033 24.1018 87.779C24.6337 87.2548 25.2773 86.4828 25.5319 86.0634C25.7864 85.6441 26.0252 85.3225 26.0624 85.3486C26.2454 85.4773 26.4472 85.3387 27.0347 84.6814C27.386 84.2884 28.0347 83.589 28.4762 83.1273C28.9178 82.6658 29.3212 82.0867 29.3725 81.8406C29.4659 81.3936 29.7331 81.287 30.5437 81.3734C31.0614 81.4285 31.4239 81.0447 31.1833 80.6961C30.9545 80.3648 31.0368 80.2618 31.5735 80.2085C32.0194 80.1641 32.1771 79.6776 31.7457 79.6776C31.6076 79.6776 31.5241 79.5712 31.5602 79.441C31.5964 79.3108 31.5488 79.1101 31.4545 78.9946C31.3603 78.8793 31.1155 78.5194 30.9103 78.1947C30.52 77.5767 29.7066 77.1114 29.4066 77.3345C29.3101 77.4061 29.0419 77.4475 28.8108 77.4263C28.5796 77.4052 28.3013 77.5169 28.1923 77.6749C28.0833 77.8327 27.8983 77.962 27.7813 77.962C27.6641 77.962 27.4921 78.1335 27.3987 78.3432C27.3053 78.5529 27.1423 78.7231 27.0364 78.7216C26.9021 78.7195 26.9089 78.669 27.0589 78.5548C27.2111 78.4387 27.2221 78.3522 27.0962 78.2588C26.7946 78.0346 25.5245 79.1414 25.4674 79.6776C25.4293 80.0356 25.3182 80.1593 25.0204 80.1747C24.175 80.219 24.0691 80.2584 24.0691 80.5295C24.0691 80.6833 23.98 80.7691 23.8709 80.7197C23.6442 80.6172 22.643 81.6772 22.6406 82.0224C22.6396 82.1481 22.4579 82.4226 22.2369 82.6322C22.0157 82.8419 21.6216 83.2495 21.3611 83.5377C21.1004 83.8261 20.8149 84.0619 20.7266 84.0619C20.5713 84.0619 20.2791 84.402 19.4967 85.4931C19.229 85.8661 19.1739 86.0682 19.2985 86.218C19.6527 86.6439 19.4962 86.9582 18.9956 86.8259C18.6026 86.7222 18.537 86.7529 18.6169 87.0036C18.6904 87.2337 18.6459 87.2756 18.4322 87.1769C18.252 87.0938 18.1883 87.1203 18.2552 87.2503C18.3126 87.362 18.2197 87.6553 18.0486 87.9022C17.8775 88.149 17.7353 88.2836 17.7323 88.2013C17.7295 88.1189 17.5871 88.1416 17.4158 88.2518C17.2448 88.362 17.1419 88.5684 17.1872 88.7108C17.2411 88.8793 17.1147 89.0053 16.8246 89.0722C16.5798 89.1288 16.3703 89.1612 16.3594 89.1443C16.3485 89.1273 16.2873 88.9096 16.2235 88.6607C16.15 88.373 16.1658 88.2512 16.2673 88.3265C16.4147 88.4361 16.4227 88.1999 16.3258 86.5877C16.3079 86.2884 16.1991 86.1588 15.966 86.1588C15.7371 86.1588 15.6602 86.0705 15.7216 85.8783C15.7707 85.7241 15.707 85.4729 15.58 85.32C15.4509 85.165 15.3488 84.6889 15.3488 84.2428C15.3488 83.5537 15.3816 83.4761 15.5866 83.6807C15.7174 83.8112 15.8303 83.886 15.8376 83.8469C15.9112 83.4519 15.9112 82.9182 15.8376 82.918C15.7231 82.9178 15.7325 80.9712 15.8482 80.719C15.8945 80.6179 15.922 79.8875 15.9091 79.0954C15.8928 78.087 15.8054 77.5171 15.6174 77.1943C15.4417 76.893 15.3488 76.3598 15.3488 75.6543C15.3488 74.7031 15.3911 74.559 15.7055 74.4376C16.0306 74.3119 16.0356 74.2914 15.7618 74.2054C15.521 74.1297 15.5053 74.078 15.6826 73.9454C15.8635 73.81 15.8674 73.7094 15.7043 73.393C15.5944 73.18 15.5613 73.0058 15.6305 73.0058C15.6998 73.0058 15.7704 72.8556 15.7874 72.6722C15.8043 72.4888 15.8489 72.0456 15.8866 71.6873C15.9243 71.3291 15.8903 70.831 15.811 70.5803C15.7317 70.3296 15.7201 70.1646 15.7853 70.2134C15.8505 70.2622 15.8803 69.6665 15.8516 68.8899C15.8092 67.7452 15.8436 67.4777 16.0328 67.4777C16.3558 67.4777 16.4851 66.9789 16.2286 66.7229C15.9164 66.4116 15.81 65.7621 16.0712 65.7621C16.2416 65.7621 16.2865 65.3296 16.2803 63.7463C16.274 62.0886 16.3217 61.6653 16.5487 61.3635C16.806 61.0217 16.807 60.9727 16.5625 60.6479C16.4182 60.4562 16.3001 60.1559 16.3001 59.9807C16.3001 59.8056 16.2402 59.6622 16.1671 59.6622C16.0938 59.6622 15.9486 59.4373 15.8444 59.1622C15.6637 58.6855 15.6738 58.6664 16.0623 58.7558C16.2863 58.8073 16.4349 58.8077 16.3924 58.7566C16.3499 58.7055 16.4189 58.5391 16.5455 58.3869C16.8506 58.02 16.8371 57.756 16.5134 57.756C16.2774 57.756 16.2798 57.7177 16.5379 57.3747C16.7961 57.0318 16.7984 56.9935 16.5625 56.9935C16.233 56.9935 16.227 56.8137 16.5473 56.5324C16.7371 56.3654 16.7591 56.2034 16.6424 55.8341C16.5457 55.5286 16.5455 55.2346 16.6416 55.028C16.7249 54.8494 16.7442 54.6082 16.6848 54.4925C16.6253 54.3768 16.6749 54.1994 16.7951 54.0983C16.9476 53.97 16.9589 53.8873 16.8322 53.8246C16.6331 53.7258 16.7152 53.1727 17.0404 52.4237C17.295 51.837 17.3169 50.8936 17.0759 50.8936C16.9793 50.8936 16.9415 50.7649 16.9917 50.6076C17.0418 50.4504 17.0138 50.3217 16.9294 50.3217C16.8449 50.3217 16.7758 50.2359 16.7758 50.1311C16.7758 50.0262 16.8717 49.9405 16.989 49.9405C17.1063 49.9405 17.3237 49.779 17.4721 49.5819C17.7158 49.2582 17.7182 49.1946 17.4967 48.9283C17.3618 48.766 17.2514 48.5415 17.2514 48.429C17.2514 48.3167 17.1333 48.2249 16.989 48.2249C16.7501 48.2249 16.7515 48.1919 17.0044 47.8558C17.2135 47.5781 17.288 47.1192 17.3064 45.9972C17.3253 44.8426 17.3798 44.5203 17.5492 44.5636C17.7098 44.6046 17.7366 44.5037 17.6502 44.1823C17.4702 43.5129 17.5143 42.8554 17.7512 42.6749C17.9138 42.551 17.9169 42.5113 17.7637 42.509C17.6285 42.5071 17.5952 42.3499 17.6619 42.0296C17.722 41.7422 17.6936 41.5531 17.5907 41.5531C17.4967 41.5531 17.4593 41.4297 17.5073 41.2791C17.5558 41.1272 17.702 41.0548 17.8355 41.1164C18.0095 41.1966 18.0583 41.127 18.0112 40.8661C17.9754 40.6672 17.861 40.5262 17.7574 40.5523C17.6535 40.5786 17.5685 40.4713 17.5685 40.314C17.5685 40.1568 17.4972 40.0281 17.41 40.0281C17.175 40.0281 17.2176 39.6602 17.4907 39.3319C17.6223 39.1737 17.6944 38.9751 17.651 38.8906C17.6075 38.806 17.6763 38.6329 17.8037 38.5058C18.0064 38.3035 18.0052 38.2383 17.7933 37.9837C17.6602 37.8235 17.573 37.4676 17.5996 37.1924C17.6391 36.7829 17.7196 36.7023 18.0442 36.7484C18.3354 36.7896 18.3817 36.7568 18.2189 36.6243C18.0305 36.4713 18.0359 36.3275 18.2554 35.6684C18.5571 34.7616 18.4626 34.245 18.0255 34.412C17.5538 34.5919 17.6475 33.7659 18.165 33.1826C18.5614 32.7358 18.6053 32.5538 18.6294 31.2594C18.644 30.4731 18.7061 29.5082 18.7672 29.1149C18.8407 28.6426 18.8195 28.4001 18.7047 28.4001C18.6091 28.4001 18.4488 28.2156 18.3484 27.9899C18.1939 27.6426 18.2043 27.5976 18.4171 27.6958C18.7903 27.8679 18.894 27.5011 18.6624 26.8286C18.5051 26.3721 18.5014 26.2154 18.647 26.1571C18.8834 26.0623 18.8992 25.5408 18.6659 25.5408C18.5592 25.5408 18.533 25.3309 18.5964 24.9836C18.6888 24.4777 18.6644 24.4348 18.3315 24.5175C18.0795 24.58 18.1211 24.5213 18.4643 24.3294C18.8897 24.0917 18.9638 23.9479 18.9638 23.3604C18.9638 22.9809 18.8588 22.5444 18.7305 22.39C18.6021 22.2358 18.5577 22.1096 18.6316 22.1096C18.8108 22.1096 18.6862 20.5539 18.4826 20.251C18.3771 20.0941 18.3765 20.0127 18.4807 20.0127C18.7734 20.0127 18.7748 17.9847 18.4824 17.4227C18.2367 16.9506 18.081 15.6454 18.2608 15.5655C18.3917 15.5072 18.3881 15.4185 18.2479 15.2395C18.0957 15.0453 18.1111 14.9444 18.3212 14.7597C18.5458 14.5622 18.5542 14.4784 18.3755 14.2193C18.2592 14.0508 18.217 13.9128 18.282 13.9128C18.347 13.9128 18.3086 13.7803 18.1967 13.6181C18.0849 13.4561 17.9015 13.3661 17.7891 13.4179C17.661 13.477 17.6175 13.4092 17.6728 13.2359C17.7719 12.9252 18.2027 12.8556 18.2027 13.1503C18.2027 13.2551 18.2852 13.3409 18.3859 13.3409C18.4954 13.3409 18.4635 13.2008 18.3066 12.9923C18.1623 12.8005 18.0442 12.4574 18.0442 12.2298C18.0442 12.0022 17.9728 11.8159 17.8856 11.8159C17.7984 11.8159 17.7271 11.7155 17.7271 11.5927C17.7271 11.47 17.609 11.2126 17.4647 11.0209C17.2181 10.6934 17.223 10.6722 17.5439 10.6722C17.7318 10.6722 17.8915 10.6078 17.8986 10.5292C17.9058 10.4507 17.944 10.1505 17.9833 9.86206C18.0229 9.5725 17.9815 9.33785 17.891 9.33785C17.8008 9.33785 17.7271 9.20918 17.7271 9.05191C17.7271 8.89465 17.6201 8.76598 17.4892 8.76598C17.3584 8.76598 17.2514 8.6802 17.2514 8.57536C17.2514 8.47051 17.3171 8.38473 17.3974 8.38473C17.4777 8.38473 17.5931 8.11214 17.654 7.77912C17.7363 7.32906 17.6987 7.11557 17.508 6.94801C17.3668 6.82391 17.2514 6.62471 17.2514 6.50519C17.2514 6.38567 17.1492 6.28788 17.0242 6.28788C16.8744 6.28788 16.8016 6.09288 16.8105 5.71602C16.8179 5.40149 16.8829 5.14415 16.9551 5.14415C17.1187 5.14415 16.7767 4.1918 16.479 3.81837C16.3272 3.62813 16.3137 3.51833 16.4361 3.46934C16.5651 3.41768 16.5676 3.29206 16.4452 3.01718C16.3521 2.80769 16.1788 2.6813 16.0604 2.73582C15.9419 2.79053 15.8207 2.74764 15.791 2.6407C15.7614 2.53376 15.599 2.62965 15.4303 2.85363ZM16.5311 18.8558C16.5814 18.9534 16.5498 19.087 16.4612 19.153C16.3726 19.2188 16.3001 19.1389 16.3001 18.9755C16.3001 18.6406 16.3952 18.5914 16.5311 18.8558ZM17.7876 20.3086C17.8417 20.4782 17.8151 20.5547 17.7253 20.4879C17.6391 20.4239 17.5685 20.2908 17.5685 20.1921C17.5685 19.918 17.6822 19.9784 17.7876 20.3086ZM18.5198 21.0844C18.5198 21.5091 18.4837 21.5484 18.2801 21.3452C18.0976 21.1631 18.0833 21.0434 18.2202 20.8452C18.4734 20.4784 18.5198 20.5154 18.5198 21.0844ZM17.1721 21.1564C17.1182 21.2613 17.0071 21.3471 16.925 21.3471C16.8428 21.3471 16.7758 21.2613 16.7758 21.1564C16.7758 21.0516 16.8871 20.9658 17.0229 20.9658C17.1588 20.9658 17.2261 21.0516 17.1721 21.1564ZM18.0884 23.6891C18.1341 23.8318 18.0496 23.934 17.8856 23.934C17.7217 23.934 17.6372 23.8318 17.6828 23.6891C17.7258 23.5543 17.8171 23.4439 17.8856 23.4439C17.9541 23.4439 18.0454 23.5543 18.0884 23.6891ZM15.7182 53.4512C15.7656 53.5998 15.7019 53.7687 15.5766 53.8265C15.4262 53.8959 15.3488 53.8042 15.3488 53.5564C15.3488 53.1225 15.5912 53.0535 15.7182 53.4512ZM14.3223 58.8629C14.2737 58.9216 14.1457 58.8631 14.0381 58.7327C13.8827 58.5444 13.9009 58.5227 14.1268 58.626C14.2832 58.6977 14.3712 58.8042 14.3223 58.8629ZM15.6659 60.2341C15.8506 60.3776 15.8042 60.4196 15.4584 60.4218C15.2013 60.4236 15.0544 60.3441 15.111 60.2341C15.2326 59.9973 15.3613 59.9973 15.6659 60.2341ZM12.6534 81.8493C12.6534 81.8905 12.5464 81.9736 12.4156 82.0341C12.2848 82.0943 12.1778 82.0606 12.1778 81.9592C12.1778 81.8575 12.2848 81.7744 12.4156 81.7744C12.5464 81.7744 12.6534 81.8082 12.6534 81.8493ZM15.6659 81.8585C15.6659 81.9048 15.5946 81.9956 15.5074 82.0604C15.4201 82.1252 15.3488 82.0872 15.3488 81.9763C15.3488 81.8654 15.4201 81.7744 15.5074 81.7744C15.5946 81.7744 15.6659 81.8122 15.6659 81.8585Z" fill="#6966FF"/>
</svg>
