<svg width="121" height="40" viewBox="0 0 121 40" fill="none" xmlns="http://www.w3.org/2000/svg">
<path fill-rule="evenodd" clip-rule="evenodd" d="M52.87 39.8762C52.5996 39.8136 52.3068 39.7053 52.2191 39.6354C52.1313 39.5655 52.0203 39.5904 51.9722 39.6906C51.8604 39.9237 51.3451 39.9293 51.3451 39.6973C51.3451 39.5908 51.2081 39.6024 50.9962 39.7268C50.7232 39.8873 50.5672 39.8767 50.2782 39.6781C50.0007 39.4875 49.8951 39.478 49.853 39.6393C49.8103 39.8032 49.7142 39.8057 49.4486 39.6496C49.2107 39.5099 49.0704 39.5038 49.0059 39.6307C48.954 39.7329 48.6488 39.8285 48.3276 39.843C47.8684 39.8638 47.6975 39.7848 47.528 39.4726C47.4095 39.2544 47.3124 39.1601 47.3124 39.2628C47.3124 39.469 45.7036 39.583 45.4662 39.3939C45.3857 39.3297 44.9166 39.2962 44.4238 39.3191C43.6632 39.3546 43.4782 39.3008 43.1993 38.963C42.9441 38.6539 42.8279 38.6109 42.6788 38.7704C42.4025 39.0663 41.2967 38.9741 41.1047 38.6392C40.9758 38.4142 40.9065 38.4045 40.7358 38.587C40.5859 38.7477 40.5108 38.7543 40.4736 38.6103C40.4406 38.4827 39.9897 38.4075 39.2433 38.4052C38.5954 38.4032 37.721 38.2748 37.3004 38.1197C36.8797 37.9646 36.3291 37.8585 36.0767 37.8836C35.8243 37.9089 35.5398 37.8459 35.4445 37.7441C35.3493 37.6421 35.149 37.5558 34.9995 37.5524C34.4314 37.5393 33.6056 37.3039 33.3378 37.0787C33.1846 36.9498 32.8026 36.8492 32.4892 36.8553C32.1756 36.8612 31.8001 36.7841 31.6548 36.6839C31.5094 36.5834 31.0933 36.4439 30.73 36.3737C30.3666 36.3034 30.0694 36.1745 30.0694 36.087C30.0694 35.9996 29.9582 35.9281 29.8223 35.9281C29.6863 35.9281 29.441 35.8071 29.2774 35.6591C29.1136 35.5112 28.8811 35.4389 28.7606 35.4987C28.6402 35.5582 28.2933 35.44 27.9897 35.236C27.6448 35.0041 27.405 34.9331 27.3506 35.0466C27.2976 35.1571 27.2003 35.1648 27.1021 35.066C27.0133 34.9767 26.4182 34.6496 25.7797 34.3391C25.1411 34.0287 24.4645 33.6181 24.2759 33.427C24.0875 33.2356 23.8433 33.1238 23.7335 33.1781C23.5968 33.2457 23.5338 33.1508 23.5338 32.8772C23.5338 32.5781 23.49 32.524 23.36 32.6626C23.239 32.7915 23.0173 32.7718 22.6299 32.5975C22.324 32.46 22.058 32.3461 22.0389 32.3447C22.0199 32.3432 22.0032 32.1603 22.0021 31.9385C22.0005 31.6472 21.967 31.602 21.8817 31.7757C21.7829 31.9766 21.7141 31.9767 21.4666 31.7775C21.3033 31.6461 21.1698 31.4876 21.1698 31.4252C21.1698 31.363 20.9039 31.2586 20.5788 31.1934C19.7189 31.0209 18.8059 30.538 18.8059 30.2556C18.8059 30.1211 18.7152 30.011 18.6045 30.011C18.4937 30.011 18.2355 29.8107 18.0308 29.5662C17.8259 29.3214 17.6054 29.1634 17.5406 29.2151C17.4758 29.2667 17.3132 29.1443 17.1795 28.9429C17.0458 28.7414 16.7939 28.5766 16.6196 28.5766C16.4284 28.5766 16.3028 28.4681 16.3028 28.3031C16.3028 28.1529 16.1464 27.9531 15.9552 27.8593C15.764 27.7656 15.6066 27.5457 15.6055 27.3707C15.6038 27.1351 15.5736 27.1129 15.4889 27.285C15.3977 27.4703 15.2857 27.4521 14.9358 27.1954C14.6944 27.018 14.4965 26.7722 14.4959 26.649C14.4955 26.5257 14.37 26.4249 14.217 26.4249C14.064 26.4249 13.9389 26.3604 13.9389 26.2813C13.9389 26.2024 13.6573 25.9614 13.3131 25.7457C12.969 25.5302 12.6874 25.272 12.6874 25.1721C12.6874 25.0722 12.5935 24.9905 12.4788 24.9905C12.363 24.9905 12.2702 24.8311 12.2702 24.6319C12.2702 24.4326 12.1775 24.2732 12.0616 24.2732C11.9469 24.2732 11.853 24.1926 11.853 24.0939C11.853 23.9953 11.7749 23.9145 11.6792 23.9143C11.4196 23.9136 10.4901 22.8413 10.7406 22.8313C10.8553 22.8268 10.7302 22.7214 10.4625 22.5971C10.1948 22.473 9.79459 22.1537 9.57307 21.8878C9.35155 21.6219 9.11697 21.4044 9.05161 21.4044C8.98625 21.4044 8.93285 21.2855 8.93285 21.1401C8.93285 20.9946 8.75848 20.7594 8.54517 20.6172C8.33199 20.475 7.91301 19.9887 7.61418 19.5367C7.31535 19.0847 7.00317 18.7148 6.92043 18.7148C6.73103 18.7148 6.01295 17.6728 6.01183 17.3963C6.01128 17.2832 5.82578 17.055 5.59967 16.8889C5.37343 16.7231 5.14802 16.38 5.09865 16.1269C5.04942 15.8737 4.9411 15.6666 4.85794 15.6666C4.61376 15.6666 3.92682 14.7301 3.92682 14.3971C3.92682 14.2289 3.83296 14.0448 3.71824 13.9879C3.60352 13.9313 3.50965 13.7505 3.50965 13.5865C3.50965 13.4222 3.40021 13.1567 3.2663 12.9962C2.93396 12.5976 2.67531 11.9743 2.67531 11.5725C2.67531 11.3889 2.55406 11.0586 2.40582 10.8383C2.25773 10.6179 2.16817 10.3312 2.20683 10.2012C2.24966 10.0574 2.18403 9.97508 2.03927 9.99158C1.67411 10.0328 1.65547 9.65574 2.0109 9.41493C2.18514 9.29695 2.22741 9.23634 2.10476 9.27991C1.91273 9.34841 1.4238 8.84474 1.4238 8.57847C1.4238 8.52826 1.25944 8.15137 1.0585 7.74112C0.755639 7.12251 0.721292 6.93657 0.857845 6.65471C0.976043 6.41085 0.980354 6.24894 0.873141 6.08236C0.712948 5.83367 0.816128 5.26688 1.02151 5.26688C1.08979 5.26688 1.14569 5.19372 1.14569 5.10443C1.14569 5.01496 1.02054 4.98412 0.867579 5.03558C0.681104 5.09851 0.589466 5.04114 0.589466 4.86147C0.589466 4.71408 0.496437 4.49408 0.382828 4.37251C0.202055 4.17904 0.210676 4.09512 0.452356 3.69886C0.753692 3.20505 0.820856 2.5773 0.572501 2.5773C0.460004 2.5773 0.458336 2.51204 0.566661 2.34385C0.64926 2.21546 0.681521 1.93593 0.638275 1.72273C0.533704 1.20705 0.911243 0.720955 1.29434 0.877846C1.46802 0.948853 1.55299 1.0966 1.50779 1.24865C1.46594 1.3894 1.51586 1.50147 1.62057 1.50147C1.82387 1.50147 1.97085 1.01215 1.87629 0.649769C1.84417 0.526409 1.72917 0.425636 1.62085 0.425636C1.37013 0.425636 1.36387 0.134987 1.61195 0.0123405C1.71541 -0.0389404 1.90313 0.074379 2.02912 0.264084C2.279 0.640446 2.33546 1.14286 2.12771 1.14286C1.97016 1.14286 1.98921 1.90742 2.15037 2.05247C2.21323 2.10913 2.29332 2.34708 2.32823 2.58143C2.36327 2.81578 2.48703 3.07613 2.60314 3.15986C2.71926 3.24378 2.81437 3.53515 2.81437 3.80733C2.81437 4.12165 2.97568 4.51505 3.25615 4.88496C3.57139 5.30077 3.70099 5.6445 3.70809 6.08398C3.71573 6.54623 3.779 6.70042 3.96159 6.70079C4.18338 6.70132 4.26084 6.87686 4.17017 7.17379C4.15098 7.23655 4.26848 7.35131 4.43104 7.42877C4.65742 7.53689 4.71068 7.67818 4.65826 8.03213C4.60736 8.37478 4.64783 8.49438 4.81442 8.49438C4.93818 8.49438 5.03927 8.57506 5.03927 8.67368C5.03927 8.7723 5.13314 8.85299 5.24786 8.85299C5.36258 8.85299 5.45644 8.93941 5.45644 9.04502C5.45644 9.15081 5.55434 9.36347 5.67393 9.51767C5.82772 9.71598 5.84816 9.85405 5.74345 9.98907C5.51999 10.2772 5.56574 10.489 5.83885 10.4298C5.98055 10.3991 6.0822 10.4893 6.0822 10.646C6.0822 10.794 6.20735 10.9625 6.36031 11.0206C6.51327 11.0785 6.62285 11.2198 6.60366 11.3344C6.58461 11.4488 6.65191 11.5426 6.75328 11.5426C6.85466 11.5426 7.07923 11.7369 7.25236 11.9745C7.5459 12.3776 7.54994 12.4124 7.31132 12.4916C7.13374 12.5508 7.16892 12.5831 7.42632 12.5976C7.68594 12.6121 7.93596 12.8459 8.26066 13.3772C8.95663 14.5165 9.19692 14.788 9.45932 14.7317C9.61618 14.698 9.71282 14.8183 9.74216 15.0838C9.76886 15.3272 9.8833 15.4873 10.0306 15.4873C10.1709 15.4873 10.391 15.7727 10.5491 16.1597C10.7001 16.5294 10.8833 16.843 10.956 16.8563C11.4254 16.9418 11.7553 17.2122 11.8861 17.6187C11.9692 17.8763 12.0269 18.1478 12.0145 18.2217C12.0022 18.2956 12.0702 18.3685 12.1659 18.3834C12.2614 18.3985 12.4023 18.4295 12.4788 18.4525C12.5553 18.4754 12.7347 18.5034 12.8775 18.5149C13.0658 18.5297 13.1171 18.6339 13.0642 18.8941C13.0064 19.1794 13.06 19.2527 13.3262 19.2527C13.5102 19.2527 13.6608 19.3443 13.6608 19.4562C13.6608 19.7198 14.2618 20.4358 14.7639 20.7705C14.9799 20.9147 15.1936 21.1566 15.2386 21.3081C15.2838 21.4596 15.4442 21.5837 15.595 21.5837C15.7458 21.5837 15.899 21.6457 15.9353 21.7214C15.9716 21.7972 15.7406 21.8374 15.4221 21.8107C14.9046 21.7675 14.8764 21.7845 15.158 21.9706C15.3752 22.1142 15.4479 22.2815 15.3919 22.5089C15.2926 22.9125 15.4361 22.9322 15.7558 22.5591C15.975 22.3034 16.0264 22.3194 16.3578 22.7466C16.557 23.0036 16.72 23.1293 16.72 23.0262C16.72 22.7812 17.0995 22.7827 17.1629 23.0278C17.1897 23.1318 17.3358 23.2408 17.4873 23.2699C17.6596 23.303 17.7629 23.4613 17.7629 23.6923C17.7629 24.2056 17.9262 24.3656 18.1768 24.0975C18.3178 23.9467 18.3887 23.937 18.3887 24.0687C18.3887 24.1773 18.5451 24.317 18.7363 24.3789C18.9275 24.4407 19.084 24.6037 19.084 24.7409C19.084 24.8999 19.2389 24.9905 19.5109 24.9905C19.9251 24.9905 20.9181 25.7283 21.2979 26.3182C21.3977 26.4733 21.531 26.5592 21.5938 26.5092C21.6567 26.459 21.9312 26.5796 22.2037 26.7771C22.4764 26.9745 22.6994 27.095 22.6994 27.0448C22.6994 26.859 23.6097 27.5658 23.7866 27.8891C23.8875 28.0733 24.031 28.1753 24.1056 28.1159C24.1803 28.0564 24.3167 28.0863 24.409 28.1823C24.5012 28.2782 24.8583 28.4134 25.2025 28.4826C25.5466 28.552 26.0616 28.8032 26.3468 29.0408C26.6318 29.2786 26.9936 29.4731 27.1508 29.4731C27.3078 29.4731 27.6689 29.6065 27.9533 29.7697C28.2376 29.9328 28.5258 30.0503 28.5936 30.0306C28.6615 30.0108 28.8567 30.164 29.0275 30.3707C29.2522 30.6429 29.4369 30.7148 29.6961 30.6309C29.9255 30.5566 30.1682 30.6178 30.3709 30.8009C30.545 30.9581 30.9572 31.0868 31.2867 31.0868C31.6765 31.0868 31.9124 31.176 31.9619 31.342C32.0036 31.4822 32.13 31.6427 32.2428 31.6985C32.3568 31.7549 32.4106 31.7221 32.3639 31.6248C32.3163 31.5254 32.3733 31.4958 32.4957 31.5563C32.6144 31.6151 32.7165 31.7956 32.7225 31.9577C32.7285 32.1198 32.7603 32.1695 32.7931 32.0684C32.8641 31.8501 33.963 31.9511 33.963 32.1759C33.963 32.2611 34.0616 32.2819 34.1823 32.2222C34.3668 32.1309 34.8779 32.2882 36.1879 32.8396C36.4747 32.9602 36.9374 33.0345 37.9795 33.127C38.4679 33.1702 38.9059 33.2837 38.9529 33.3791C39.0343 33.5439 39.3843 33.5919 40.9854 33.6581C41.3678 33.6739 41.7226 33.7619 41.774 33.8537C41.8253 33.9455 42.1381 34.042 42.4692 34.068C42.8003 34.0942 43.1085 34.1198 43.1538 34.1252C43.1993 34.1306 43.4125 34.3299 43.6274 34.5682C43.9548 34.931 44.0488 34.9622 44.2054 34.7603C44.3081 34.6278 44.3923 34.4375 44.3923 34.3376C44.3923 34.0814 46.3402 34.3065 46.6735 34.601C46.8662 34.7716 47.0119 34.7843 47.2095 34.648C47.3653 34.5404 47.6965 34.5155 47.9876 34.5894C48.2664 34.66 50.0275 34.7432 51.9013 34.7741C53.7751 34.8051 55.4496 34.8361 55.6225 34.8431C55.7954 34.8503 56.077 35.0368 56.2482 35.2575L56.5597 35.6591L56.6063 35.2347C56.6479 34.8558 56.7057 34.8214 57.145 34.9132C57.4156 34.9699 57.7545 35.1531 57.898 35.3206C58.1449 35.6087 58.1588 35.6057 58.1588 35.2621C58.1588 34.967 58.2565 34.894 58.6803 34.8718C59.9047 34.8076 60.5762 34.8653 60.7484 35.0497C60.8848 35.1958 60.9874 35.1754 61.1463 34.9704C61.4119 34.6279 64.0044 34.5811 64.171 34.9159C64.2363 35.0473 64.2739 35.0084 64.2752 34.8074C64.2775 34.4711 64.6775 34.4054 65.1811 34.6588C65.3611 34.7493 65.5081 34.7138 65.5982 34.5582C65.6749 34.426 66.1129 34.272 66.5718 34.2159C67.0306 34.1598 67.5933 34.085 67.8222 34.0497C68.051 34.0144 68.2766 34.0655 68.3235 34.1632C68.3764 34.2736 68.482 34.251 68.6027 34.1035C68.8298 33.8256 69.8396 33.6975 69.8396 33.9468C69.8396 34.0402 70.0697 33.9927 70.3512 33.8412C70.6325 33.6896 71.0942 33.5941 71.3771 33.6289C71.7491 33.6746 71.8729 33.6292 71.8241 33.4653C71.7641 33.2638 72.0453 33.1437 72.391 33.2231C72.4559 33.238 72.894 33.1162 73.3644 32.9525C73.835 32.7888 74.5327 32.6337 74.9151 32.6079C75.2976 32.5821 75.7356 32.5078 75.8885 32.4426C76.1089 32.3488 76.2224 32.458 76.4354 32.9694C76.6525 33.4901 76.7278 33.5605 76.8254 33.3353C76.892 33.1818 76.9081 32.9764 76.8612 32.8785C76.8144 32.7806 76.85 32.7006 76.9402 32.7006C77.0641 32.7006 77.0654 32.6396 76.9455 32.4535C76.8198 32.2582 76.8526 32.1837 77.1024 32.0974C77.5928 31.928 77.6518 31.9579 77.5601 32.3301C77.488 32.6233 77.5405 32.6746 77.8983 32.6615C78.2468 32.6488 78.322 32.5713 78.322 32.2251C78.322 31.6043 78.8036 31.0558 79.228 31.1932C79.4209 31.2556 79.811 31.1826 80.1107 31.0279C80.5105 30.8217 80.6881 30.8026 80.8052 30.9536C80.9222 31.1046 81.0354 31.0556 81.2474 30.7623C81.464 30.4625 81.6472 30.3865 82.012 30.4449C82.2895 30.4892 82.5361 30.4329 82.597 30.3112C82.6549 30.1953 82.9213 29.999 83.189 29.8746C83.5995 29.684 83.6993 29.6901 83.8266 29.9133C83.9414 30.1147 84.0161 30.1279 84.1395 29.9689C84.2286 29.8539 84.3015 29.6641 84.3015 29.5466C84.3015 29.2407 85.4503 28.5871 86.2193 28.4557C86.5793 28.3942 86.9975 28.2348 87.1484 28.1016C87.2991 27.9684 87.5141 27.8593 87.6259 27.8593C87.7377 27.8593 88.1148 27.6786 88.464 27.4577C88.8671 27.2026 89.3576 27.0553 89.8073 27.0543C90.3496 27.0528 90.5126 26.9894 90.5025 26.7835C90.4945 26.6178 90.6365 26.4927 90.8719 26.4579C91.0823 26.4267 91.2543 26.3345 91.2543 26.2531C91.2543 26.0507 92.2964 25.5284 92.7002 25.5284C92.8804 25.5284 93.1058 25.4073 93.2011 25.2594C93.3898 24.9661 93.8964 24.8899 93.8964 25.1549C93.8964 25.2453 93.8182 25.3598 93.7225 25.4097C93.6156 25.4653 93.6394 25.5056 93.7841 25.5142C93.9137 25.5219 94.1314 25.2847 94.2678 24.9869C94.4042 24.6891 94.5954 24.4848 94.6927 24.5331C94.7901 24.5811 94.8698 24.5504 94.8698 24.4647C94.8698 24.3789 95.1002 24.3172 95.3818 24.3274C95.6691 24.338 95.9184 24.2514 95.9497 24.1303C95.9803 24.0118 96.0864 23.9146 96.1854 23.9146C96.2844 23.9146 96.4432 23.7936 96.5384 23.6457C96.6337 23.4977 96.8291 23.3767 96.9726 23.3767C97.1162 23.3767 97.365 23.2075 97.5255 23.0005C97.7135 22.7581 97.9341 22.6532 98.1463 22.7056C98.3274 22.7502 98.5043 22.6975 98.5393 22.5887C98.582 22.456 98.6469 22.4712 98.7359 22.6349C98.848 22.8413 98.8822 22.8413 98.9551 22.6349C99.0214 22.4472 99.0601 22.442 99.1221 22.6131C99.1841 22.7841 99.2495 22.7753 99.4042 22.5759C99.5151 22.433 99.7134 22.3606 99.8451 22.4151C100.028 22.4909 100.04 22.4734 99.8957 22.3402C99.7369 22.1938 99.7369 22.1417 99.8957 22.0095C99.9994 21.9233 100.178 21.8444 100.293 21.8343C100.408 21.8243 100.611 21.804 100.745 21.7895C100.879 21.775 100.988 21.6419 100.988 21.494C100.988 21.3068 101.134 21.2251 101.468 21.2251C101.758 21.2251 101.996 21.1144 102.069 20.9448C102.136 20.7908 102.29 20.6459 102.41 20.6231C102.53 20.6004 102.726 20.4777 102.845 20.3508C102.964 20.2236 103.18 20.1684 103.326 20.2281C103.482 20.2921 103.663 20.2247 103.767 20.0637C103.863 19.9134 104.044 19.7901 104.169 19.7894C104.293 19.7888 104.583 19.628 104.812 19.432C105.042 19.236 105.339 19.0752 105.473 19.0746C105.607 19.0739 105.716 19.0099 105.716 18.9325C105.716 18.7919 106.041 18.7191 106.678 18.7169C106.863 18.7162 107.125 18.5866 107.26 18.4288C107.396 18.2708 107.561 18.1856 107.629 18.2393C107.696 18.2931 107.839 18.1799 107.946 17.9879C108.054 17.796 108.214 17.6389 108.302 17.6389C108.391 17.6389 108.541 17.5179 108.636 17.37C108.86 17.0232 109.193 17.0232 109.193 17.37C109.193 17.5179 109.13 17.6389 109.054 17.6389C108.977 17.6389 108.914 17.7121 108.914 17.8014C108.914 17.8907 109.066 17.8715 109.252 17.7587C109.501 17.6067 109.551 17.4948 109.443 17.3273C109.363 17.2029 109.352 17.0928 109.419 17.0826C109.486 17.0723 109.778 17.0383 110.069 17.0069C110.643 16.9452 111 16.6628 111 16.2723C111 16.1364 111.065 16.0252 111.144 16.0252C111.223 16.0252 111.452 15.887 111.652 15.7181C111.852 15.549 112.109 15.393 112.224 15.3713C112.339 15.3496 112.479 15.2339 112.537 15.1145C112.594 14.9949 112.742 14.947 112.865 15.0078C113.004 15.0769 113.153 14.9852 113.26 14.765C113.354 14.5705 113.534 14.4115 113.661 14.4115C113.79 14.4115 113.929 14.2149 113.978 13.9632C114.026 13.7166 114.162 13.5149 114.281 13.5149C114.473 13.5149 114.473 13.485 114.288 13.246C114.173 13.098 114.012 12.977 113.93 12.977C113.848 12.977 113.781 12.8942 113.781 12.793C113.781 12.6885 113.601 12.7296 113.363 12.8883C113.062 13.0887 112.872 13.117 112.686 12.9888C112.544 12.8906 112.384 12.8657 112.332 12.9333C112.28 13.0009 112.181 12.9399 112.113 12.7975C112.005 12.573 111.978 12.5738 111.91 12.8027C111.845 13.024 111.512 13.0521 109.852 12.977C108.763 12.9277 107.786 12.8165 107.682 12.7299C107.56 12.6286 107.449 12.6605 107.371 12.8196C107.275 13.0165 107.25 13.0186 107.248 12.8298C107.247 12.6994 107.164 12.4879 107.065 12.3597C106.917 12.1685 106.83 12.1829 106.585 12.4396C106.343 12.6914 106.168 12.7235 105.688 12.6035C105.359 12.5218 105.044 12.4513 104.986 12.447C104.929 12.4427 104.882 12.3181 104.882 12.1701C104.882 12.0222 104.817 11.9012 104.738 11.9012C104.659 11.9012 104.559 12.0222 104.515 12.1701C104.42 12.4895 104.165 12.5187 103.945 12.2354C103.761 11.9982 104.06 11.5046 104.357 11.5549C104.769 11.6249 104.9 11.5198 104.876 11.1391C104.818 10.2024 104.876 9.93707 105.115 10.0552C105.291 10.1426 105.326 10.0977 105.258 9.87037C105.205 9.69124 105.237 9.56913 105.338 9.5677C105.431 9.56644 105.648 9.5166 105.82 9.45724C106.05 9.37763 106.133 9.42587 106.133 9.63888C106.133 9.96934 106.316 10.0074 106.683 9.75382C106.884 9.61539 106.952 9.65269 107.009 9.93312C107.048 10.128 107.153 10.2874 107.242 10.2874C107.34 10.2874 107.369 10.1469 107.316 9.92989C107.246 9.64838 107.277 9.59674 107.459 9.68711C107.587 9.75023 107.739 9.70146 107.798 9.57899C107.857 9.45653 108.132 9.34249 108.41 9.32564C108.808 9.30143 108.914 9.3615 108.914 9.61199C108.914 10.0445 109.282 10.0142 109.371 9.57415C109.436 9.25302 109.538 9.22666 110.454 9.29372C111.142 9.3441 111.584 9.2887 111.836 9.12105C112.151 8.91126 112.262 8.91144 112.577 9.12194C112.78 9.25822 112.947 9.3077 112.947 9.23204C112.947 9.15637 113.135 9.13001 113.364 9.17341C113.594 9.2168 113.781 9.35558 113.781 9.48181C113.781 9.825 114.163 9.94729 114.257 9.63386C114.371 9.24997 114.358 9.17412 114.2 9.3C114.12 9.36401 114.099 9.28762 114.15 9.11621C114.22 8.88114 114.261 8.87038 114.357 9.06206C114.455 9.25786 114.502 9.25248 114.616 9.03229C114.731 8.80924 114.776 8.80493 114.877 9.00665C114.959 9.17054 115.028 9.18703 115.091 9.05722C115.141 8.95125 115.384 8.87145 115.629 8.88024C115.875 8.88885 116.138 8.87666 116.215 8.85317C116.504 8.76459 116.591 8.86141 116.438 9.09953C116.311 9.29731 116.346 9.34608 116.618 9.34608C116.832 9.34608 116.981 9.22254 117.025 9.00988C117.118 8.54727 117.365 8.58726 117.438 9.07712L117.498 9.48056L117.517 9.07712C117.543 8.5288 118.231 8.48559 118.231 9.03229C118.231 9.22953 118.288 9.3909 118.357 9.3909C118.427 9.3909 118.454 9.24405 118.417 9.06457C118.337 8.6692 118.68 8.26271 119.024 8.34609C119.162 8.37944 119.336 8.58708 119.411 8.80744C119.486 9.02781 119.611 9.1994 119.689 9.18865C120.046 9.13934 120.149 9.24961 120.229 9.76655C120.298 10.2066 120.251 10.3887 120.003 10.6473C119.723 10.9401 119.708 11.031 119.856 11.5383C120.003 12.0392 119.987 12.1472 119.719 12.4927C119.553 12.707 119.435 13.0448 119.456 13.2435C119.485 13.513 119.463 13.5427 119.367 13.3613C119.278 13.1915 119.211 13.1778 119.144 13.3164C119.092 13.4256 118.934 13.5149 118.794 13.5149C118.501 13.5149 118.37 13.8545 118.37 14.616C118.37 14.9096 118.319 15.1089 118.256 15.0587C118.128 14.9569 117.675 15.5725 117.675 15.8479C117.675 15.9454 117.59 16.0252 117.486 16.0252C117.359 16.0252 117.318 16.1726 117.362 16.4683C117.412 16.8077 117.32 17.0281 116.966 17.4096C116.099 18.3465 115.714 18.8995 115.803 19.084C115.922 19.3336 115.493 20.1492 115.243 20.1492C115.121 20.1492 115.073 20.2555 115.122 20.4182C115.175 20.5969 115.115 20.6891 114.944 20.6929C114.534 20.7018 114.199 21.1332 114.199 21.6498C114.199 22.0809 114.173 22.1038 113.919 21.8991C113.672 21.7009 113.596 21.7388 113.286 22.2114C113.092 22.5071 112.841 23.0115 112.73 23.3319C112.501 23.9856 112.33 24.0629 112.13 23.6023C111.934 23.1506 111.768 23.4712 111.784 24.2702C111.795 24.8002 111.752 24.9383 111.6 24.863C111.476 24.8017 111.372 24.9085 111.323 25.1465C111.281 25.3566 111.165 25.5284 111.067 25.5284C110.951 25.5284 110.914 25.3858 110.964 25.1249L111.041 24.7215L110.747 25.1463C110.345 25.7253 110.233 26.2513 110.464 26.4629C110.602 26.5892 110.572 26.6126 110.35 26.5504C110.133 26.4895 110.069 26.5359 110.122 26.7141C110.162 26.8509 110.122 26.9628 110.031 26.9628C109.94 26.9628 109.623 27.2897 109.325 27.6892C109.027 28.0887 108.704 28.4017 108.606 28.3851C107.958 28.2748 107.802 28.3957 107.802 29.008C107.802 29.5215 107.76 29.6045 107.536 29.529C107.354 29.4679 107.193 29.5893 107.03 29.9101C106.899 30.169 106.826 30.4254 106.868 30.4799C106.964 30.6047 106.535 31.1659 106.109 31.4704C105.788 31.7001 105.705 31.7386 105.438 31.7817C105.362 31.794 105.299 31.9654 105.299 32.1627C105.299 32.3667 105.206 32.5213 105.084 32.5213C104.966 32.5213 104.762 32.7628 104.632 33.0581C104.343 33.7131 104.107 33.7465 103.99 33.1489C103.942 32.9023 103.806 32.7006 103.688 32.7006C103.536 32.7006 103.498 32.806 103.561 33.0581C103.626 33.3246 103.597 33.3898 103.445 33.3147C103.112 33.1501 103.063 32.5329 103.364 32.2911C103.51 32.1731 103.63 31.9613 103.63 31.8207C103.63 31.68 103.671 31.6172 103.72 31.6811C103.82 31.81 104.594 30.569 104.6 30.2696C104.604 30.0766 105.538 29.4731 105.832 29.4731C105.921 29.4731 105.994 29.604 105.994 29.7639C105.994 30.0022 106.032 30.0146 106.203 29.8317C106.318 29.7089 106.412 29.4772 106.414 29.3167C106.415 29.0672 106.434 29.063 106.545 29.2886C106.616 29.4337 106.723 29.4898 106.782 29.4134C106.916 29.2407 106.542 28.9212 106.368 29.0596C106.251 29.153 106.001 28.8127 105.996 28.5527C105.995 28.4901 106.119 28.3971 106.272 28.3456C106.424 28.2942 106.593 28.1032 106.647 27.9212C106.8 27.407 107.285 26.9535 107.609 27.0215C107.836 27.069 107.888 27.0082 107.836 26.7539C107.8 26.573 107.713 26.4249 107.643 26.4249C107.574 26.4249 107.622 26.2183 107.751 25.9659C107.895 25.6819 108.02 25.5816 108.078 25.703C108.25 26.0624 108.62 25.6876 108.663 25.1097C108.702 24.5949 108.754 24.537 109.228 24.4864C109.71 24.4352 109.738 24.4022 109.594 24.0559C109.46 23.7328 109.472 23.6975 109.68 23.8004C109.864 23.8917 109.906 23.844 109.856 23.5982C109.776 23.2017 110.107 22.7712 110.386 22.9094C110.52 22.9758 110.639 22.8508 110.728 22.5514C110.898 21.9742 110.771 21.6665 110.488 21.9693C110.373 22.0924 110.082 22.2046 109.84 22.2188C109.128 22.2605 109.054 22.2896 109.054 22.5263C109.054 22.7425 108.164 23.1974 107.742 23.1974C107.629 23.1974 107.487 23.3145 107.425 23.4574C107.359 23.6082 107.034 23.7484 106.649 23.7909C106.285 23.8313 105.949 23.9132 105.903 23.9729C105.856 24.0324 105.711 24.007 105.579 23.9161C105.377 23.7767 105.35 23.8196 105.405 24.1913C105.445 24.457 105.406 24.6319 105.307 24.6319C105.217 24.6319 105.182 24.5512 105.229 24.4525C105.457 23.9779 104.911 24.341 104.275 25.0866C104.089 25.3055 103.096 25.6971 102.796 25.67C102.11 25.6082 101.684 25.7279 101.684 25.9822C101.684 26.1334 101.574 26.3069 101.44 26.3681C101.306 26.4294 101.103 26.5807 100.988 26.7046C100.874 26.8283 100.592 26.9558 100.362 26.9877C100.133 27.0197 99.7359 27.1914 99.48 27.3695C99.2242 27.5475 98.8956 27.6445 98.75 27.585C98.6026 27.5246 98.4852 27.5613 98.4852 27.668C98.4852 27.7733 98.3288 27.8593 98.1376 27.8593C97.9464 27.8593 97.7899 27.9449 97.7899 28.0492C97.7899 28.1536 97.7269 28.1889 97.6499 28.1276C97.5729 28.0663 97.3285 28.1825 97.107 28.386C96.8854 28.5895 96.6355 28.7559 96.5518 28.7559C96.4679 28.7559 96.3994 28.8366 96.3994 28.9352C96.3994 29.0338 96.2555 29.1145 96.0795 29.1145C95.9036 29.1145 95.7002 29.1864 95.6276 29.2744C95.5549 29.3623 94.9663 29.6406 94.3192 29.8929C93.3867 30.2565 93.1003 30.3069 92.9367 30.1363C92.7724 29.9649 92.753 29.9696 92.8415 30.1593C92.973 30.441 92.5171 31.0617 92.2597 30.9511C92.1659 30.9109 91.8782 31.046 91.6206 31.2513C91.3627 31.4568 90.9785 31.6248 90.7665 31.6248C90.5546 31.6248 90.3116 31.7444 90.2267 31.8903C90.1418 32.0364 89.9472 32.1856 89.7942 32.222C89.6412 32.2584 89.4222 32.3336 89.3075 32.389C88.6039 32.7289 88.1785 32.8408 87.92 32.7537C87.7348 32.6911 87.5626 32.7664 87.4543 32.9574C87.3595 33.1248 87.0823 33.2676 86.8349 33.2767C86.5888 33.2857 86.3873 33.3701 86.3873 33.4643C86.3873 33.5584 86.3003 33.5925 86.194 33.5397C86.0876 33.4872 85.8639 33.6084 85.6968 33.8092C85.479 34.0707 85.281 34.1456 84.9987 34.0728C84.7359 34.005 84.5805 34.0524 84.5322 34.2152C84.4921 34.3495 84.0015 34.593 83.4418 34.7563C82.8821 34.9195 82.2817 35.1727 82.1074 35.3188C81.9332 35.4649 81.7374 35.542 81.6723 35.4902C81.6074 35.4384 81.3612 35.52 81.1254 35.6717C80.7056 35.9417 79.9113 35.9372 79.3997 35.662C79.2042 35.5569 79.1564 35.6231 79.1564 35.9986C79.1564 36.2946 79.0799 36.466 78.9478 36.466C78.8331 36.466 78.7392 36.5336 78.7392 36.6163C78.7392 36.6989 78.513 36.7775 78.2364 36.7909C77.9598 36.8044 77.6514 36.9032 77.5508 37.0107C77.3417 37.2345 76.6332 37.4045 76.0383 37.3733C75.8147 37.3616 75.5872 37.4452 75.5327 37.5589C75.4782 37.6727 75.0979 37.8015 74.6877 37.845C73.6009 37.9605 73.4202 37.9564 73.0644 37.8077C72.8118 37.7023 72.7281 37.7491 72.6716 38.0272C72.5982 38.3894 72.5878 38.3921 70.813 38.5262C70.0948 38.5804 69.7496 38.6738 69.6118 38.8515C69.5587 38.9202 69.2252 38.9763 68.8708 38.9763C68.5165 38.9763 68.1672 39.0523 68.0944 39.1454C67.986 39.2841 67.1039 39.3584 65.946 39.3259C65.8313 39.3227 65.4558 39.407 65.1117 39.5131C64.1822 39.8 63.3957 39.8581 63.2015 39.6544C63.1049 39.5533 62.9217 39.5371 62.7843 39.6178C62.4562 39.81 59.8275 39.8715 59.8275 39.687C59.8275 39.6071 59.6533 39.6537 59.4404 39.7907C59.2009 39.9447 58.7101 40.0223 58.1538 39.9944C57.2237 39.9474 56.8452 39.7891 56.9819 39.5038C57.0253 39.4132 56.9638 39.3871 56.845 39.4457C56.7263 39.5045 56.6292 39.6345 56.6292 39.7346C56.6292 39.8396 56.5409 39.8222 56.4206 39.6935C56.2511 39.5122 56.2121 39.5201 56.2121 39.7364C56.2121 39.9549 56.0097 39.9911 55.0779 39.9395C54.4541 39.9049 53.914 39.8382 53.8776 39.7914C53.8413 39.7444 53.7103 39.7701 53.5865 39.8481C53.4626 39.9261 53.1403 39.9388 52.87 39.8762ZM102.275 35.4404C102.179 35.3963 102.108 35.1047 102.117 34.7925C102.128 34.4108 102.155 34.3423 102.201 34.5833C102.239 34.7805 102.334 35.0447 102.414 35.1703C102.582 35.4372 102.521 35.5541 102.275 35.4404ZM63.8602 35.0316C63.8602 34.9329 63.7938 34.8523 63.7129 34.8523C63.632 34.8523 63.6043 34.9329 63.6516 35.0316C63.6989 35.1302 63.7651 35.2109 63.7988 35.2109C63.8326 35.2109 63.8602 35.1302 63.8602 35.0316ZM102.935 34.5444C102.935 34.1933 103.181 33.7764 103.388 33.7764C103.454 33.7764 103.459 33.8772 103.399 34.0006C103.339 34.1237 103.288 34.3387 103.286 34.4782C103.281 34.8671 102.935 34.9322 102.935 34.5444ZM39.3485 34.206C39.3024 34.1465 39.1824 34.1401 39.0821 34.1919C38.9711 34.2491 39.0041 34.2916 39.1661 34.3002C39.3127 34.3079 39.3947 34.2656 39.3485 34.206ZM102.587 33.9557C102.54 33.8571 102.599 33.7764 102.718 33.7764C102.837 33.7764 102.935 33.8571 102.935 33.9557C102.935 34.0543 102.876 34.135 102.804 34.135C102.732 34.135 102.635 34.0543 102.587 33.9557ZM37.0223 33.4072C37.0223 33.3144 36.9597 33.2385 36.8832 33.2385C36.8067 33.2385 36.7442 33.3644 36.7442 33.518C36.7442 33.6717 36.8067 33.7477 36.8832 33.6868C36.9597 33.6258 37.0223 33.5001 37.0223 33.4072ZM29.9304 33.3387C29.9304 33.2952 29.8678 33.2098 29.7913 33.1489C29.7148 33.0879 29.6523 33.1236 29.6523 33.2279C29.6523 33.3323 29.7148 33.4178 29.7913 33.4178C29.8678 33.4178 29.9304 33.3823 29.9304 33.3387ZM29.6053 31.5799C29.5667 31.4566 29.5352 31.5575 29.5352 31.8041C29.5352 32.0506 29.5667 32.1514 29.6053 32.0282C29.6439 31.9048 29.6439 31.7031 29.6053 31.5799ZM27.9836 30.1903C27.9836 30.0917 27.874 30.0123 27.7402 30.0137C27.5322 30.016 27.5272 30.0419 27.7055 30.1903C27.9679 30.4091 27.9836 30.4091 27.9836 30.1903ZM91.1332 28.8866C90.9071 28.595 90.7779 28.8679 90.9969 29.1747C91.1005 29.3196 91.2074 29.3582 91.2351 29.2604C91.2629 29.1629 91.217 28.9947 91.1332 28.8866ZM25.411 29.1145C25.4583 29.0159 25.4307 28.9352 25.3497 28.9352C25.2688 28.9352 25.2025 29.0159 25.2025 29.1145C25.2025 29.2131 25.23 29.2938 25.2638 29.2938C25.2976 29.2938 25.3638 29.2131 25.411 29.1145ZM107.246 27.7697C107.246 27.6218 107.183 27.5007 107.107 27.5007C107.03 27.5007 106.968 27.6218 106.968 27.7697C106.968 27.9176 107.03 28.0387 107.107 28.0387C107.183 28.0387 107.246 27.9176 107.246 27.7697ZM111.974 21.2251C111.974 21.1264 111.946 21.0457 111.912 21.0457C111.879 21.0457 111.812 21.1264 111.765 21.2251C111.718 21.3237 111.746 21.4044 111.826 21.4044C111.907 21.4044 111.974 21.3237 111.974 21.2251ZM111.278 12.1701C111.278 12.0222 111.216 11.9012 111.139 11.9012C111.063 11.9012 111 12.0222 111 12.1701C111 12.3181 111.063 12.4391 111.139 12.4391C111.216 12.4391 111.278 12.3181 111.278 12.1701ZM5.31739 11.8221C5.31739 11.7785 5.25481 11.6932 5.17833 11.6322C5.10185 11.5713 5.03927 11.6069 5.03927 11.7113C5.03927 11.8156 5.10185 11.9012 5.17833 11.9012C5.25481 11.9012 5.31739 11.8657 5.31739 11.8221ZM112.113 11.6322C112.113 11.4843 112.05 11.3633 111.974 11.3633C111.897 11.3633 111.835 11.2288 111.835 11.0644C111.835 10.9001 111.796 10.8157 111.748 10.8768C111.623 11.0382 111.815 11.9012 111.976 11.9012C112.051 11.9012 112.113 11.7801 112.113 11.6322ZM107.112 10.8296C106.833 10.607 106.656 10.7924 106.865 11.0887C106.975 11.2456 107.087 11.2716 107.175 11.1615C107.266 11.0488 107.244 10.9347 107.112 10.8296ZM108.344 11.1171C108.511 10.8573 108.415 10.2874 108.204 10.2874C108.136 10.2874 108.08 10.4085 108.08 10.5564C108.08 10.7043 107.979 10.8253 107.855 10.8253C107.67 10.8253 107.66 10.8739 107.802 11.0943C108.017 11.4276 108.14 11.4328 108.344 11.1171ZM117.414 10.9568C117.277 10.7811 117.261 10.8017 117.336 11.0572C117.389 11.234 117.466 11.3335 117.509 11.2783C117.552 11.2232 117.509 11.0785 117.414 10.9568ZM105.712 10.6909C105.708 10.2679 105.688 10.2426 105.565 10.513C105.487 10.6864 105.461 10.9082 105.508 11.0061C105.652 11.3061 105.716 11.2065 105.712 10.6909ZM110.166 10.2768C110.166 10.0739 110.103 9.95751 110.027 10.0185C109.95 10.0794 109.888 10.2455 109.888 10.3877C109.888 10.5299 109.95 10.646 110.027 10.646C110.103 10.646 110.166 10.4798 110.166 10.2768ZM113.364 10.0185C113.364 9.87054 113.272 9.74951 113.16 9.74951C113.036 9.74951 112.987 9.85459 113.036 10.0185C113.08 10.1664 113.172 10.2874 113.24 10.2874C113.308 10.2874 113.364 10.1664 113.364 10.0185ZM2.81159 9.11764C2.71481 8.96738 2.60704 8.88132 2.57199 8.92632C2.47563 9.05076 2.67156 9.3909 2.83954 9.3909C2.93187 9.3909 2.9213 9.28798 2.81159 9.11764ZM4.06588 7.69808C4.06588 7.65451 4.0033 7.56916 3.92682 7.5082C3.85034 7.44724 3.78777 7.48291 3.78777 7.58727C3.78777 7.69163 3.85034 7.77716 3.92682 7.77716C4.0033 7.77716 4.06588 7.74165 4.06588 7.69808Z" fill="#6966FF"/>
</svg>
