<svg width="63" height="60" viewBox="0 0 63 60" fill="none" xmlns="http://www.w3.org/2000/svg">
<path fill-rule="evenodd" clip-rule="evenodd" d="M1.04019 1.53702C0.790472 2.49033 0.582374 3.46436 0.499135 4.43839C0.228608 7.87859 -0.0835381 19.4219 0.0205108 21.743C0.0205108 22.4476 0.145369 23.2351 0.436706 23.8776C0.95695 25.0174 2.28878 25.1003 3.01712 24.0434C3.28764 23.6703 3.45412 23.173 3.53736 22.6963C3.76627 21.3078 3.95356 19.9193 4.05761 18.5308C4.34894 14.3445 4.61947 10.1375 4.80676 5.95125C4.86919 4.56274 4.72352 3.1535 4.55704 1.76499C4.43218 0.728785 3.57898 -0.0587303 2.78821 0.0034419C1.85177 0.0863382 1.2691 0.687336 1.04019 1.53702ZM29.5076 29.1407C29.5874 28.8228 29.6566 28.5241 29.7226 28.2389C29.8632 27.6316 29.9894 27.0861 30.1735 26.5501C32.8788 18.5921 37.2281 11.5045 42.1808 4.76915C42.7635 3.98163 43.4918 3.23557 44.3034 2.73819C44.7404 2.46878 45.6144 2.51023 46.1138 2.77964C46.4884 2.98688 46.7589 3.79512 46.6757 4.25105C46.53 5.12146 46.2179 6.0126 45.7809 6.80011C42.9091 12.0019 40.0166 17.1829 37.0824 22.3432C36.2192 23.8515 35.3178 25.3472 34.4181 26.8401C34.1682 27.2548 33.9184 27.6693 33.6696 28.0837C33.295 28.7262 32.8788 29.3479 32.4418 29.9282C31.9632 30.5913 31.2348 30.9851 30.5065 30.5499C30.4605 30.522 30.4142 30.4949 30.3679 30.4679L30.3679 30.4679C29.9327 30.2134 29.5076 29.9649 29.5076 29.1407ZM58.9749 60C58.641 59.9446 58.2885 59.8938 57.9252 59.8415L57.9251 59.8414C57.2015 59.7372 56.435 59.6267 55.6869 59.4612L55.6867 59.4611C51.2543 58.4664 46.8219 57.4716 42.4103 56.4355C41.453 56.2075 40.5166 55.8137 39.6634 55.3578C38.5188 54.7568 38.1235 53.9071 38.3107 52.9745C38.498 52.042 39.2472 51.4617 40.5582 51.441C41.453 51.4202 42.4103 51.441 43.2635 51.6482C48.8613 53.0574 54.4591 54.5081 60.0362 55.9795C60.6604 56.1453 61.3055 56.4355 61.7842 56.8499C62.9911 57.8654 62.6166 59.4612 61.0766 59.8549C60.6952 59.9466 60.2805 59.9555 59.822 59.9654H59.8219C59.5551 59.9711 59.2734 59.9771 58.9749 60Z" fill="#6966FF"/>
</svg>
