<svg width="161" height="16" viewBox="0 0 161 16" fill="none" xmlns="http://www.w3.org/2000/svg">
<path fill-rule="evenodd" clip-rule="evenodd" d="M82.2653 0.361072C81.2404 0.571078 80.1127 0.836608 79.7591 0.951157C79.4055 1.06588 78.368 1.34402 77.4533 1.56909C75.8721 1.9581 73.1108 2.75294 72.2683 3.06138C72.053 3.14003 71.0405 3.4525 70.0182 3.75569C68.9959 4.05887 68.0244 4.37064 67.8595 4.44841C67.6945 4.52635 67.2666 4.64773 66.9086 4.71797C65.9353 4.90941 64.1484 5.65433 64.1484 5.86872C64.1484 5.97206 64.0547 6.00463 63.9404 5.9414C63.7592 5.84122 62.0914 6.28768 60.92 6.7499C60.7048 6.83485 60.2864 6.98286 59.9906 7.07884C59.6948 7.17465 59.4525 7.33403 59.4525 7.43264C59.4525 7.53143 59.2084 7.61217 58.91 7.61217C58.4244 7.61217 55.9305 8.38092 55.0144 8.81319C54.3977 9.10412 51.7346 10.1039 51.4851 10.1382C51.3536 10.1563 51.1849 10.2258 51.11 10.2927C51.0353 10.3598 50.859 10.4146 50.7185 10.4146C50.5778 10.4146 49.9983 10.6069 49.4303 10.8418C47.9611 11.4497 46.864 11.8636 46.6368 11.8957C46.5292 11.9109 46.2651 11.9829 46.0498 12.0558C45.8346 12.1286 45.1743 12.3478 44.5824 12.5427C43.9905 12.7378 43.3302 12.9646 43.1149 13.047C41.6397 13.6109 37.521 13.6798 36.4625 13.1582C36.1397 12.9991 35.7278 12.8685 35.5474 12.8678C35.1849 12.8665 34.4081 12.0777 34.4081 11.7107C34.4081 11.5827 34.2539 11.403 34.0657 11.3114C33.8773 11.2198 33.5032 10.7663 33.2341 10.3036C32.9651 9.8408 32.5073 9.08835 32.2165 8.63156C31.9259 8.17476 31.5875 7.46295 31.4646 7.04976C31.3417 6.63658 31.1306 6.18031 30.9956 6.03581C30.7357 5.75784 30.4732 5.23975 30.3793 4.81991C30.3483 4.68101 29.8553 4.17955 29.2838 3.70559C28.2518 2.84963 28.2348 2.84332 26.7774 2.79165C25.9703 2.7631 25.2219 2.80041 25.1142 2.87467C25.0066 2.94894 24.5963 3.05385 24.2023 3.10798C23.2899 3.23321 19.7336 4.47206 19.7336 4.66455C19.7336 4.74442 19.516 4.80975 19.2501 4.80975C18.984 4.80975 18.2577 5.01275 17.6359 5.26094C17.0139 5.50913 15.7478 5.98186 14.8223 6.3115C13.4177 6.81156 11.0649 7.84145 6.62439 9.90018C6.24775 10.0748 5.70127 10.4195 5.41013 10.6665C5.11879 10.9133 4.80045 11.1152 4.70282 11.1152C4.60499 11.1152 4.31111 11.2657 4.0499 11.4497C3.6441 11.7354 3.43533 11.7608 2.61532 11.6237C1.69376 11.4695 1.63389 11.4846 1.10737 12.0006C0.73464 12.3658 0.558937 12.7266 0.558937 13.1261C0.558937 13.4495 0.408866 13.9483 0.225337 14.2343C-0.0980887 14.7389 -0.0937846 14.7736 0.372081 15.3858C1.09935 16.3416 1.29247 16.2852 3.4774 14.4774C4.41852 13.6987 5.05911 13.4796 5.05911 13.9364C5.05911 14.0224 5.19118 14.0928 5.3526 14.0928C5.70127 14.0928 5.73179 13.8893 5.42441 13.6141C5.10998 13.3326 5.3121 12.9895 5.96482 12.6963C6.27377 12.5576 6.65863 12.3502 6.82005 12.2357C6.98147 12.1211 7.72987 11.7375 8.48316 11.3834C9.23645 11.029 10.0729 10.6285 10.3419 10.4929C11.3709 9.97462 14.658 8.66308 14.9276 8.66308C15.0832 8.66308 15.2606 8.5904 15.3219 8.50142C15.3833 8.41244 15.6967 8.28791 16.0182 8.22468C16.3399 8.16145 16.603 8.03727 16.603 7.94864C16.603 7.85984 16.74 7.78733 16.9075 7.78733C17.075 7.78733 17.7146 7.56401 18.3292 7.29112C18.9435 7.01824 19.706 6.73659 20.0238 6.66531C20.3415 6.59384 21.0445 6.35441 21.5861 6.13319C22.4237 5.79095 23.9499 5.33696 25.747 4.8954C27.188 4.54124 28.7338 4.97492 28.7341 5.73332C28.7343 5.94788 28.9545 6.35231 29.2233 6.63238C29.497 6.91717 29.7123 7.36066 29.7123 7.6395C29.7123 7.91344 29.8003 8.13763 29.9079 8.13763C30.0155 8.13763 30.1036 8.28196 30.1036 8.45833C30.1036 8.63454 30.3233 9.16665 30.5919 9.64061C30.8606 10.1144 31.0807 10.5677 31.0811 10.6479C31.0815 10.7279 31.4119 11.1592 31.8156 11.6062C32.219 12.053 32.7254 12.6156 32.9406 12.8562C33.5851 13.5766 35.2725 14.9622 35.5093 14.9654C35.6306 14.9671 35.8305 15.0773 35.9538 15.2101C36.442 15.7366 39.8089 16.0345 41.8432 15.7312C42.5522 15.6255 44.9293 14.9945 45.259 14.8244C45.3619 14.7713 45.6352 14.7097 45.8663 14.6876C46.0972 14.6657 47.1135 14.3348 48.1246 13.9528C49.1358 13.5707 50.1832 13.2 50.4522 13.1293C50.7212 13.0583 51.0734 12.9051 51.2348 12.7884C51.3963 12.672 51.9686 12.4534 52.5066 12.3027C53.0447 12.1521 54.7616 11.5606 56.322 10.9884C57.8824 10.4162 59.9075 9.6886 60.8222 9.37157C61.7369 9.05455 62.569 8.72596 62.6712 8.64154C62.7735 8.55712 62.9936 8.48828 63.1603 8.48881C63.417 8.48951 67.32 7.21178 68.5507 6.72416C68.766 6.63886 69.6386 6.36947 70.4897 6.12531C71.341 5.88133 72.1462 5.60108 72.279 5.5023C72.4119 5.40369 72.5958 5.33818 72.688 5.35692C72.7799 5.37549 72.9873 5.34554 73.1487 5.29036C73.3102 5.23502 74.851 4.78155 76.5728 4.28254C78.2946 3.78354 79.9925 3.26439 80.3459 3.12917C80.6992 2.99378 81.1997 2.88308 81.4582 2.88308C81.7165 2.88308 82.1559 2.80549 82.4348 2.71056C83.273 2.42523 85.4998 2.15953 86.086 2.27478C87.0453 2.46324 87.6863 3.96955 87.6735 6.00568C87.672 6.26316 87.7598 6.5723 87.8688 6.69263C87.9776 6.81313 88.007 6.91157 87.934 6.91157C87.8608 6.91157 87.9381 7.08672 88.1056 7.30093C88.273 7.51497 88.4102 7.87192 88.4102 8.09402C88.4102 8.68603 89.454 10.4337 90.1101 10.9401C91.2897 11.8503 92.0207 12.0589 93.9953 12.0489C95.1468 12.0432 95.9458 11.9591 96.1262 11.8251C96.2851 11.707 96.4863 11.6499 96.5731 11.6979C96.733 11.7864 99.9459 11.1304 101.03 10.7882C101.604 10.6071 104.555 9.74535 104.943 9.64534C105.051 9.61766 105.491 9.53744 105.922 9.46686C106.352 9.39627 106.88 9.27331 107.096 9.19379C107.492 9.04719 109.622 8.57393 110.52 8.43294C110.789 8.39072 111.669 8.22958 112.476 8.07493C114.628 7.66279 115.219 7.61498 118.346 7.60044C121.013 7.58783 121.245 7.6141 122.21 8.03797C122.776 8.28581 123.238 8.60143 123.238 8.73928C123.238 8.87712 123.414 9.03984 123.629 9.10096C123.844 9.16209 124.02 9.28557 124.02 9.37543C124.02 9.46528 124.147 9.53884 124.303 9.53884C124.458 9.53884 124.701 9.68667 124.842 9.8676C125.061 10.1468 125.744 10.6882 127.151 11.6976C127.906 12.2397 129.074 12.731 130.446 13.0841C131.769 13.4248 132.414 13.4705 135.956 13.4745C138.162 13.4768 141.728 13.4107 143.88 13.3275C146.032 13.2444 148.717 13.1657 149.847 13.1527C150.977 13.14 152.007 13.0681 152.137 12.993C152.266 12.918 152.618 12.8983 152.919 12.949C153.221 12.9997 154.127 13.0871 154.935 13.1431C157.294 13.3069 157.713 13.3529 158.848 13.5735C160.05 13.8069 161 13.6092 161 13.1258C161 12.7101 160.1 11.991 159.58 11.991C159.328 11.991 159.036 11.9144 158.931 11.8207C158.827 11.7272 158.215 11.6084 157.572 11.5571C156.928 11.5056 156.006 11.3921 155.522 11.3049C154.555 11.1308 145.201 11.1896 141.63 11.3925C136.639 11.6759 131.239 11.4795 130.162 10.9756C129.959 10.8805 129.572 10.7173 129.303 10.6129C128.397 10.2613 126.874 9.40713 126.8 9.20938C126.76 9.10167 126.608 9.01339 126.463 9.01339C126.318 9.01339 126.143 8.85575 126.075 8.66308C126.006 8.47042 125.836 8.31278 125.697 8.31278C125.557 8.31278 125.199 7.99751 124.901 7.61217C124.534 7.13909 124.212 6.91157 123.909 6.91157C123.638 6.91157 123.412 6.77828 123.341 6.57615C123.154 6.04912 119.843 5.23694 118.15 5.3028C117.881 5.31313 117.303 5.32189 116.864 5.32207C115.978 5.32224 112.137 5.75382 110.618 6.02372C110.08 6.11936 108.847 6.4045 107.878 6.6576C106.91 6.91052 105.765 7.18043 105.335 7.25714C104.519 7.40252 101.864 8.11574 100.345 8.59705C99.8612 8.75066 99.2889 8.89849 99.0737 8.92581C98.5651 8.99027 96.3908 9.55198 96.1433 9.68282C96.038 9.73834 95.0877 9.81558 94.0311 9.85447C91.6053 9.94379 91.0461 9.76058 90.5443 8.71265C90.1518 7.89294 89.7262 5.9048 89.8919 5.66466C89.9469 5.58532 89.8645 5.34063 89.709 5.12117C89.5534 4.9017 89.3652 4.36749 89.2909 3.93399C89.2165 3.50049 88.988 2.88518 88.7829 2.56658C88.5779 2.24798 88.4102 1.84023 88.4102 1.66052C88.4102 1.19164 87.4746 0.252127 87.1267 0.371581C86.969 0.425878 86.6964 0.363524 86.5211 0.233211C86.0466 -0.119194 84.3643 -0.0687506 82.2653 0.361072ZM2.41771 12.6916C2.22302 12.8842 1.98843 13.0419 1.89666 13.0419C1.8047 13.0419 1.83953 12.8842 1.97395 12.6916C2.10837 12.4989 2.34296 12.3413 2.49519 12.3413C2.70787 12.3413 2.68987 12.4222 2.41771 12.6916Z" fill="#6966FF"/>
</svg>
