<svg width="6" height="22" viewBox="0 0 6 22" fill="none" xmlns="http://www.w3.org/2000/svg">
<path d="M3.2642 21.2246C2.67992 20.7547 2.25393 20.1861 1.98624 19.5187C1.71799 18.8192 1.58191 18.3575 1.578 18.1336C1.04016 12.9902 1.16016 7.94731 1.93803 3.00499C2.08627 2.3303 2.25164 1.71932 2.43411 1.17205C2.61659 0.62478 2.80381 0.349472 2.99578 0.346121C3.21975 0.342211 3.46083 0.402013 3.71903 0.525526C3.97722 0.649037 4.20398 0.805103 4.3993 0.993725C4.59462 1.18234 4.74223 1.3878 4.84212 1.61009C4.97401 1.83182 5.04163 2.03867 5.04499 2.23064C4.45981 5.37734 4.1626 8.519 4.15334 11.6556C4.17552 14.7597 4.30968 17.8619 4.55582 20.962C4.5614 21.282 4.42078 21.4765 4.13394 21.5455C3.97452 21.5803 3.81427 21.5671 3.65317 21.5059C3.52352 21.4121 3.39386 21.3184 3.2642 21.2246Z" fill="white"/>
</svg>
