<svg width="20" height="20" viewBox="0 0 20 20" fill="none" xmlns="http://www.w3.org/2000/svg">
<path d="M12.7977 2.94299C13.1427 4.30692 13.0606 5.56835 12.5513 6.72728C12.2621 7.353 11.8897 8.03845 11.4341 8.78363C10.9785 9.5288 10.4741 10.2874 9.92092 11.0596C9.36943 11.7997 8.8028 12.523 8.22102 13.2296C7.64093 13.9041 7.11211 14.5173 6.63458 15.0691C7.21314 15.0353 7.92036 14.9922 8.75624 14.9399C9.62576 14.8573 10.5113 14.7755 11.4127 14.6946C12.3462 14.6154 13.2468 14.5504 14.1146 14.4997C15.0161 14.4188 15.82 14.3648 16.5264 14.3377C16.8796 14.3242 17.2774 14.3771 17.7197 14.4964C18.1941 14.6174 18.5094 14.714 18.6659 14.7863C18.8526 14.8923 18.9073 15.0714 18.83 15.3237C18.7863 15.5457 18.6779 15.7803 18.5047 16.0276C18.3315 16.2749 18.1272 16.5045 17.8918 16.7165C17.69 16.8982 17.5252 16.9857 17.3974 16.979C16.3664 17.0851 15.2227 17.2014 13.9664 17.3279C12.742 17.456 11.5017 17.5832 10.2453 17.7096C8.98899 17.8361 7.74863 17.9633 6.52425 18.0914C5.3335 18.1892 4.25627 18.261 3.29256 18.3066C2.84182 18.347 2.46756 18.1512 2.16977 17.719C1.90394 17.2885 1.75079 16.8479 1.71032 16.3972C1.71367 16.3332 1.73551 16.2222 1.77584 16.0641C1.81617 15.906 2.02131 15.6604 2.39125 15.3273C3.81212 13.8957 5.20857 12.3187 6.5806 10.5961C7.98626 8.84326 9.10348 7.09133 9.93226 5.34031C10.0415 5.08968 10.086 4.85169 10.0658 4.62632C10.0473 4.36899 9.99171 4.20586 9.8992 4.13693C9.74611 4.00073 9.54175 3.92593 9.2861 3.91253C9.06408 3.86885 8.79245 3.85462 8.47122 3.86983C8.02216 3.87834 7.55461 3.93394 7.06856 4.03665C6.58252 4.13935 6.09564 4.25803 5.60793 4.39269C5.15217 4.52903 4.72753 4.68301 4.33401 4.85465C3.94216 4.99434 3.59908 5.12055 3.30478 5.2333C2.91126 5.40494 2.58751 5.46809 2.33353 5.42273C2.07956 5.37738 1.85922 5.30174 1.6725 5.19583C1.51942 5.05963 1.3983 4.9251 1.30913 4.79226C1.21996 4.65941 1.17705 4.56103 1.1804 4.49711C1.15681 4.33566 1.18368 4.12878 1.26099 3.87648C1.3383 3.62418 1.4131 3.41982 1.48538 3.26339C1.79141 2.92694 2.25806 2.58289 2.88532 2.23124C3.54454 1.88126 4.2803 1.59938 5.0926 1.3856C5.93853 1.14154 6.81224 0.97904 7.71371 0.89811C8.64713 0.818853 9.57386 0.867421 10.4939 1.04381C11.0927 1.23541 11.5754 1.50104 11.9422 1.8407C12.3409 2.18204 12.626 2.54946 12.7977 2.94299Z" fill="white"/>
</svg>
