<svg width="14" height="25" viewBox="0 0 14 25" fill="none" xmlns="http://www.w3.org/2000/svg">
<path d="M12.4518 16.8236C12.1543 17.4743 11.7306 18.1775 11.1806 18.9332C10.6295 19.6569 9.9825 20.3839 9.23954 21.1143C8.52744 21.8115 7.75026 22.4791 6.90801 23.1169C6.09662 23.7215 5.28188 24.2303 4.46378 24.6431C4.21241 24.7799 3.91139 24.8705 3.56072 24.9148C3.20893 24.9271 2.91831 24.8572 2.68887 24.7051C2.22885 24.3689 1.9888 23.913 1.9687 23.3374C1.98057 22.7606 2.23677 22.3034 2.73729 21.9657C3.64909 21.4856 4.55754 20.9095 5.46264 20.2375C6.39972 19.5644 7.20832 18.8798 7.88844 18.1836C8.59942 17.4544 9.15106 16.7467 9.54335 16.0606C9.96651 15.3414 10.1361 14.6951 10.052 14.1217C9.93484 13.5174 9.66224 13.0466 9.23421 12.7093C8.80618 12.3721 8.27068 12.1666 7.62772 12.093C7.01674 12.0183 6.31373 12.0589 5.51868 12.2147C4.72252 12.3386 3.92971 12.5584 3.14025 12.8741C2.88664 12.947 2.6479 12.9874 2.42404 12.9952C2.19906 12.971 2.00326 12.8658 1.83666 12.6795C1.56853 12.3366 1.36325 11.9596 1.22081 11.5483C1.11035 11.1359 1.194 10.7808 1.47178 10.4829C2.00316 10.1121 2.5814 9.70769 3.20649 9.26961C3.83158 8.83152 4.40759 8.36314 4.93451 7.86444C5.46142 7.36575 5.87529 6.83899 6.17611 6.28415C6.50779 5.69622 6.6145 5.08412 6.49622 4.44786C6.4553 4.19313 6.28814 3.99084 5.99473 3.84099C5.73331 3.69002 5.40959 3.58926 5.02359 3.5387C4.63648 3.45616 4.23616 3.45413 3.82265 3.53261C3.40802 3.57911 3.02705 3.67246 2.67973 3.81266C2.49343 3.97927 2.28946 4.09846 2.06783 4.17024C1.8462 4.24202 1.62346 4.28181 1.39959 4.28963C1.17573 4.29745 0.982729 4.27217 0.820593 4.21379C0.65734 4.12343 0.5415 4.01541 0.473072 3.88972C0.371546 3.73317 0.299768 3.51154 0.257736 3.22483C0.246568 2.90503 0.317585 2.64639 0.470787 2.44893C0.804704 1.92495 1.46234 1.50174 2.44368 1.1793C3.42391 0.824874 4.60439 0.703601 5.98514 0.815482C7.07918 0.969395 7.91032 1.38865 8.47855 2.07323C9.04679 2.75782 9.34766 3.57982 9.38117 4.53923C9.40685 5.27478 9.24289 6.081 8.88928 6.95787C8.56653 7.80165 8.05078 8.62015 7.34203 9.41337C8.23413 9.28615 9.03755 9.37017 9.75229 9.6654C10.467 9.96064 11.0583 10.3883 11.5261 10.9483C12.1937 11.7255 12.6264 12.6549 12.8242 13.7367C13.0221 14.8184 12.898 15.8474 12.4518 16.8236Z" fill="white"/>
</svg>
