<svg width="270" height="156" viewBox="0 0 270 156" fill="none" xmlns="http://www.w3.org/2000/svg">
<path d="M0 146.52C0.750137 151.526 5.57245 156 12.8059 156C22.7184 156 26.6299 149.449 26.6299 142.259V118.878H19.7715V121.967C18.8606 120.209 16.4494 118.398 12.2701 118.398C5.03664 118.398 0 124.257 0 131.181C0 138.531 5.25096 143.91 12.2701 143.91C16.0744 143.91 18.5391 142.259 19.6107 140.555V142.472C19.6107 147.532 17.0924 149.769 12.5916 149.769C9.21597 149.769 6.91198 147.691 6.42975 144.815L0 146.52ZM13.5025 137.838C9.80537 137.838 7.17988 135.282 7.17988 131.181C7.17988 127.133 9.96611 124.576 13.5025 124.576C16.9317 124.576 19.7179 127.133 19.7179 131.181C19.7179 135.229 17.146 137.838 13.5025 137.838Z" fill="#6966FF"/>
<path d="M41.0173 118.878H33.891V145.082H41.0173V123.671C41.178 126.121 43.2141 127.985 45.786 127.985C48.4651 127.985 50.5547 125.908 50.5547 123.245C50.5547 120.582 48.4651 118.505 45.786 118.505C43.2141 118.505 41.178 120.422 41.0173 122.925V118.878Z" fill="#6966FF"/>
<path d="M53.2673 137.945C53.2673 142.046 56.6965 145.827 62.3225 145.827C66.2339 145.827 68.7523 144.016 70.0918 141.939C70.0918 142.951 70.1989 144.389 70.3597 145.082H76.8966C76.7359 144.176 76.5751 142.312 76.5751 140.927V128.038C76.5751 122.766 73.4674 118.079 65.1087 118.079C58.036 118.079 54.2317 122.606 53.8031 126.707L60.1257 128.038C60.34 125.748 62.0546 123.778 65.1623 123.778C68.1629 123.778 69.6096 125.322 69.6096 127.186C69.6096 128.092 69.1273 128.837 67.627 129.05L61.1437 130.009C56.7501 130.648 53.2673 133.258 53.2673 137.945ZM63.8228 140.555C61.5188 140.555 60.3936 139.063 60.3936 137.519C60.3936 135.495 61.8403 134.483 63.662 134.217L69.6096 133.311V134.483C69.6096 139.117 66.8233 140.555 63.8228 140.555Z" fill="#6966FF"/>
<path d="M90.7787 130.009C90.7787 126.973 92.6005 124.576 95.7082 124.576C99.1374 124.576 100.584 126.867 100.584 129.796V145.082H107.71V128.571C107.71 122.819 104.71 118.185 98.1729 118.185C95.3331 118.185 92.1718 119.41 90.5644 122.126V118.878H83.6524V145.082H90.7787V130.009Z" fill="#6966FF"/>
<path d="M124.003 111.048H117.574V114.723C117.574 117.067 116.288 118.878 113.501 118.878H112.162V125.162H116.931V137.359C116.931 142.419 120.145 145.455 125.289 145.455C127.379 145.455 128.665 145.082 129.308 144.815V138.957C128.933 139.063 127.968 139.17 127.111 139.17C125.075 139.17 124.003 138.424 124.003 136.134V125.162H129.308V118.878H124.003V111.048Z" fill="#6966FF"/>
<path d="M133.268 137.785C133.589 140.768 136.322 145.881 144.252 145.881C151.164 145.881 154.486 141.513 154.486 137.252C154.486 133.418 151.861 130.275 146.663 129.21L142.912 128.411C141.466 128.145 140.501 127.346 140.501 126.068C140.501 124.576 142.002 123.458 143.877 123.458C146.877 123.458 148.003 125.429 148.217 126.973L154.164 125.642C153.843 122.819 151.325 118.079 143.823 118.079C138.144 118.079 133.964 121.967 133.964 126.654C133.964 130.329 136.268 133.364 141.359 134.483L144.841 135.282C146.877 135.708 147.681 136.667 147.681 137.838C147.681 139.223 146.556 140.448 144.198 140.448C141.091 140.448 139.537 138.531 139.376 136.454L133.268 137.785Z" fill="#6966FF"/>
<path fill-rule="evenodd" clip-rule="evenodd" d="M208.749 10.9683C208.749 10.4793 208.35 10.083 207.858 10.083C207.366 10.083 206.967 10.4793 206.967 10.9683V11.0243C206.967 11.5132 207.366 11.9095 207.858 11.9095C208.35 11.9095 208.749 11.5132 208.749 11.0243V10.9683ZM208.749 19.9891C208.749 19.5002 208.35 19.1038 207.858 19.1038C207.366 19.1038 206.967 19.5002 206.967 19.9891V20.1011C206.967 20.59 207.366 20.9864 207.858 20.9864C208.35 20.9864 208.749 20.59 208.749 20.1011V19.9891ZM208.749 29.0659C208.749 28.577 208.35 28.1807 207.858 28.1807C207.366 28.1807 206.967 28.577 206.967 29.0659V29.178C206.967 29.6669 207.366 30.0632 207.858 30.0632C208.35 30.0632 208.749 29.6669 208.749 29.178V29.0659ZM208.749 38.1428C208.749 37.6538 208.35 37.2575 207.858 37.2575C207.366 37.2575 206.967 37.6538 206.967 38.1428V38.1988C206.967 38.6877 207.366 39.084 207.858 39.084C208.35 39.084 208.749 38.6877 208.749 38.1988V38.1428ZM208.749 82.9257C208.749 82.4368 208.35 82.0404 207.858 82.0404C207.366 82.0404 206.967 82.4368 206.967 82.9257V82.9855C206.967 83.4744 207.366 83.8707 207.858 83.8707C208.35 83.8707 208.749 83.4744 208.749 82.9855V82.9257ZM208.749 92.5523C208.749 92.0634 208.35 91.6671 207.858 91.6671C207.366 91.6671 206.967 92.0634 206.967 92.5523V92.6719C206.967 93.1608 207.366 93.5571 207.858 93.5571C208.35 93.5571 208.749 93.1608 208.749 92.6719V92.5523ZM208.749 102.239C208.749 101.75 208.35 101.353 207.858 101.353C207.366 101.353 206.967 101.75 206.967 102.239V102.358C206.967 102.847 207.366 103.244 207.858 103.244C208.35 103.244 208.749 102.847 208.749 102.358V102.239ZM208.749 111.925C208.749 111.436 208.35 111.04 207.858 111.04C207.366 111.04 206.967 111.436 206.967 111.925V112.045C206.967 112.534 207.366 112.93 207.858 112.93C208.35 112.93 208.749 112.534 208.749 112.045V111.925ZM208.749 121.611C208.749 121.123 208.35 120.726 207.858 120.726C207.366 120.726 206.967 121.123 206.967 121.611V121.671C206.967 122.16 207.366 122.557 207.858 122.557C208.35 122.557 208.749 122.16 208.749 121.671V121.611ZM268.961 61.8192C268.961 62.3081 268.562 62.7045 268.071 62.7045H268.017C267.525 62.7045 267.126 62.3081 267.126 61.8192C267.126 61.3303 267.525 60.934 268.017 60.934H268.071C268.562 60.934 268.961 61.3303 268.961 61.8192ZM260.286 61.8192C260.286 62.3081 259.887 62.7045 259.395 62.7045H259.288C258.796 62.7045 258.397 62.3081 258.397 61.8192C258.397 61.3303 258.796 60.934 259.288 60.934H259.395C259.887 60.934 260.286 61.3303 260.286 61.8192ZM251.557 61.8192C251.557 62.3081 251.158 62.7045 250.666 62.7045H250.559C250.067 62.7045 249.668 62.3081 249.668 61.8192C249.668 61.3303 250.067 60.934 250.559 60.934H250.666C251.158 60.934 251.557 61.3303 251.557 61.8192ZM242.828 61.8192C242.828 62.3081 242.429 62.7045 241.937 62.7045H241.829C241.338 62.7045 240.939 62.3081 240.939 61.8192C240.939 61.3303 241.338 60.934 241.829 60.934H241.937C242.429 60.934 242.828 61.3303 242.828 61.8192ZM234.099 61.8192C234.099 62.3081 233.7 62.7045 233.208 62.7045H233.1C232.609 62.7045 232.21 62.3081 232.21 61.8192C232.21 61.3303 232.609 60.934 233.1 60.934H233.208C233.7 60.934 234.099 61.3303 234.099 61.8192ZM225.37 61.8192C225.37 62.3081 224.971 62.7045 224.479 62.7045H224.425C223.933 62.7045 223.535 62.3081 223.535 61.8192C223.535 61.3303 223.933 60.934 224.425 60.934H224.479C224.971 60.934 225.37 61.3303 225.37 61.8192ZM191.672 62.7045C192.164 62.7045 192.562 62.3081 192.562 61.8192C192.562 61.3303 192.164 60.934 191.672 60.934H191.617C191.125 60.934 190.727 61.3303 190.727 61.8192C190.727 62.3081 191.125 62.7045 191.617 62.7045H191.672ZM182.921 62.7045C183.413 62.7045 183.811 62.3081 183.811 61.8192C183.811 61.3303 183.413 60.934 182.921 60.934H182.812C182.32 60.934 181.921 61.3303 181.921 61.8192C181.921 62.3081 182.32 62.7045 182.812 62.7045H182.921ZM174.115 62.7045C174.607 62.7045 175.006 62.3081 175.006 61.8192C175.006 61.3303 174.607 60.934 174.115 60.934H174.007C173.515 60.934 173.116 61.3303 173.116 61.8192C173.116 62.3081 173.515 62.7045 174.007 62.7045H174.115ZM165.31 62.7045C165.802 62.7045 166.201 62.3081 166.201 61.8192C166.201 61.3303 165.802 60.934 165.31 60.934H165.201C164.709 60.934 164.311 61.3303 164.311 61.8192C164.311 62.3081 164.709 62.7045 165.201 62.7045H165.31ZM156.505 62.7045C156.997 62.7045 157.395 62.3081 157.395 61.8192C157.395 61.3303 156.997 60.934 156.505 60.934H156.396C155.904 60.934 155.505 61.3303 155.505 61.8192C155.505 62.3081 155.904 62.7045 156.396 62.7045H156.505Z" fill="#55555E"/>
<path fill-rule="evenodd" clip-rule="evenodd" d="M207.798 1.08203H207.917C208.409 1.0825 208.808 1.47921 208.807 1.96812C208.807 2.45703 208.408 2.85298 207.916 2.85252H207.8C207.308 2.85298 206.909 2.45703 206.909 1.96812C206.908 1.47921 207.306 1.0825 207.798 1.08203ZM199.381 2.54962C199.457 3.03267 199.124 3.48541 198.638 3.56084L198.524 3.57864C198.039 3.65501 197.582 3.32545 197.506 2.84255C197.429 2.35965 197.76 1.90626 198.246 1.82989L198.364 1.81155C198.849 1.73612 199.305 2.06656 199.381 2.54962ZM216.335 2.54962C216.411 2.06656 216.866 1.73612 217.352 1.81155L217.47 1.82989C217.955 1.90626 218.287 2.35965 218.21 2.84255C218.133 3.32545 217.677 3.65501 217.191 3.57864L217.077 3.56084C216.591 3.48541 216.259 3.03267 216.335 2.54962ZM225.553 4.58885C225.704 4.1237 226.207 3.86866 226.675 4.0192L226.787 4.05561C227.255 4.20706 227.511 4.70668 227.358 5.17153C227.206 5.63639 226.703 5.89045 226.236 5.739L226.126 5.70367C225.658 5.55312 225.402 5.05401 225.553 4.58885ZM190.163 4.58885C190.314 5.05401 190.058 5.55313 189.59 5.70367L189.48 5.739C189.012 5.89046 188.51 5.63639 188.358 5.17154C188.205 4.70668 188.461 4.20706 188.928 4.05561L189.041 4.0192C189.509 3.86866 190.011 4.1237 190.163 4.58885ZM234.332 8.04602C234.555 7.61036 235.091 7.43707 235.53 7.65896L235.635 7.71248C236.073 7.93522 236.246 8.4686 236.022 8.90382C235.798 9.33904 235.261 9.5113 234.824 9.28856L234.721 9.2366C234.283 9.01471 234.109 8.48167 234.332 8.04602ZM181.384 8.04602C181.607 8.48167 181.433 9.01472 180.994 9.2366L180.892 9.28856C180.454 9.5113 179.918 9.33905 179.694 8.90382C179.469 8.4686 179.643 7.93522 180.081 7.71249L180.186 7.65896C180.624 7.43707 181.161 7.61036 181.384 8.04602ZM173.26 12.8305C173.549 13.2261 173.461 13.7797 173.063 14.067L172.97 14.1342C172.573 14.4223 172.016 14.3356 171.726 13.9406C171.436 13.5456 171.523 12.9918 171.921 12.7037L172.016 12.6345C172.414 12.3472 172.971 12.435 173.26 12.8305ZM242.455 12.8305C242.744 12.435 243.301 12.3472 243.699 12.6345L243.795 12.7037C244.192 12.9918 244.28 13.5456 243.99 13.9406C243.7 14.3356 243.143 14.4223 242.745 14.1342L242.653 14.067C242.255 13.7797 242.166 13.2261 242.455 12.8305ZM165.987 18.8168C166.335 19.1629 166.334 19.7234 165.986 20.0687L165.905 20.1496C165.558 20.4956 164.994 20.4961 164.646 20.1508C164.297 19.8054 164.297 19.2449 164.644 18.8988L164.728 18.8156C165.076 18.4702 165.64 18.4708 165.987 18.8168ZM249.728 18.8168C250.076 18.4708 250.64 18.4702 250.988 18.8156L251.071 18.8988C251.419 19.2449 251.418 19.8054 251.07 20.1508C250.722 20.4961 250.158 20.4956 249.811 20.1496L249.729 20.0687C249.381 19.7234 249.381 19.1629 249.728 18.8168ZM159.74 25.8549C160.137 26.1429 160.225 26.6967 159.935 27.0917L159.867 27.1841C159.578 27.5797 159.021 27.6674 158.623 27.3801C158.225 27.0928 158.137 26.5392 158.426 26.1436L158.496 26.0485C158.785 25.6535 159.343 25.5668 159.74 25.8549ZM255.976 25.8549C256.373 25.5668 256.93 25.6535 257.22 26.0485L257.29 26.1436C257.579 26.5392 257.491 27.0928 257.093 27.3801C256.695 27.6674 256.138 27.5797 255.849 27.1841L255.781 27.0917C255.491 26.6967 255.578 26.1429 255.976 25.8549ZM261.043 33.7747C261.481 33.552 262.017 33.7242 262.241 34.1595L262.295 34.2643C262.519 34.6999 262.344 35.233 261.906 35.4549C261.468 35.6768 260.931 35.5035 260.708 35.0678L260.656 34.966C260.432 34.5308 260.605 33.9974 261.043 33.7747ZM264.798 42.3868C265.265 42.2353 265.768 42.4894 265.92 42.9542L265.957 43.0664C266.108 43.5315 265.852 44.0306 265.384 44.1812C264.916 44.3317 264.414 44.0767 264.262 43.6115L264.227 43.5027C264.074 43.0379 264.33 42.5382 264.798 42.3868ZM267.141 51.4801C267.627 51.4038 268.083 51.7333 268.159 52.2162L268.178 52.3329C268.254 52.8159 267.921 53.2687 267.435 53.3441C266.949 53.4195 266.494 53.0891 266.418 52.606L266.4 52.4928C266.323 52.0099 266.655 51.5565 267.141 51.4801ZM268.02 60.8268C268.512 60.8263 268.911 61.2223 268.912 61.7112V61.8295C268.911 62.3184 268.512 62.7144 268.02 62.7139C267.529 62.7134 267.13 62.3167 267.131 61.8278V61.7129C267.13 61.224 267.529 60.8272 268.02 60.8268ZM267.435 70.1966C267.921 70.272 268.254 70.7248 268.178 71.2078L268.159 71.3245C268.083 71.8074 267.627 72.1369 267.141 72.0606C266.655 71.9842 266.323 71.5308 266.4 71.0479L266.418 70.9346C266.494 70.4516 266.949 70.1212 267.435 70.1966ZM265.384 79.3595C265.852 79.5101 266.108 80.0092 265.957 80.4743L265.92 80.5864C265.768 81.0513 265.265 81.3054 264.798 81.1539C264.33 81.0024 264.074 80.5028 264.227 80.038L264.262 79.9292C264.414 79.464 264.916 79.209 265.384 79.3595ZM153.81 88.0858C154.248 87.8639 154.784 88.0372 155.008 88.4729L155.06 88.5746C155.284 89.0099 155.111 89.5432 154.673 89.766C154.235 89.9887 153.698 89.8165 153.474 89.3812L153.42 89.2764C153.197 88.8407 153.372 88.3077 153.81 88.0858ZM261.906 88.0858C262.344 88.3077 262.519 88.8407 262.295 89.2764L262.241 89.3812C262.017 89.8165 261.481 89.9887 261.043 89.766C260.605 89.5432 260.432 89.0099 260.656 88.5746L260.708 88.4729C260.931 88.0372 261.468 87.8639 261.906 88.0858ZM158.623 96.1606C159.021 95.8733 159.578 95.961 159.867 96.3566L159.935 96.449C160.225 96.844 160.137 97.3978 159.74 97.6858C159.343 97.9739 158.785 97.8872 158.496 97.4922L158.426 97.397C158.137 97.0015 158.225 96.4479 158.623 96.1606ZM257.093 96.1606C257.491 96.4479 257.579 97.0015 257.29 97.397L257.22 97.4922C256.93 97.8872 256.373 97.9739 255.976 97.6858C255.578 97.3978 255.491 96.844 255.781 96.449L255.849 96.3566C256.138 95.961 256.695 95.8733 257.093 96.1606ZM164.646 103.39C164.994 103.045 165.558 103.045 165.905 103.391L165.986 103.472C166.334 103.817 166.335 104.378 165.987 104.724C165.64 105.07 165.076 105.07 164.728 104.725L164.644 104.642C164.297 104.296 164.297 103.735 164.646 103.39ZM251.07 103.39C251.418 103.735 251.419 104.296 251.071 104.642L250.988 104.725C250.64 105.07 250.076 105.07 249.728 104.724C249.381 104.378 249.381 103.817 249.729 103.472L249.811 103.391C250.158 103.045 250.722 103.045 251.07 103.39ZM171.726 109.6C172.016 109.205 172.573 109.118 172.97 109.406L173.063 109.474C173.461 109.761 173.549 110.315 173.26 110.71C172.971 111.106 172.414 111.193 172.016 110.906L171.921 110.837C171.523 110.549 171.436 109.995 171.726 109.6ZM243.99 109.6C244.28 109.995 244.192 110.549 243.795 110.837L243.699 110.906C243.301 111.193 242.744 111.106 242.455 110.71C242.166 110.315 242.255 109.761 242.653 109.474L242.745 109.406C243.143 109.118 243.7 109.205 243.99 109.6ZM179.694 114.637C179.918 114.202 180.454 114.029 180.892 114.252L180.994 114.304C181.433 114.526 181.607 115.059 181.384 115.495C181.161 115.93 180.624 116.104 180.186 115.882L180.081 115.828C179.643 115.605 179.469 115.072 179.694 114.637ZM236.022 114.637C236.246 115.072 236.073 115.605 235.635 115.828L235.53 115.882C235.091 116.104 234.555 115.93 234.332 115.495C234.109 115.059 234.283 114.526 234.721 114.304L234.824 114.252C235.261 114.029 235.798 114.202 236.022 114.637ZM188.358 118.369C188.51 117.904 189.012 117.65 189.48 117.802L189.59 117.837C190.058 117.988 190.314 118.487 190.163 118.952C190.011 119.417 189.509 119.672 189.041 119.521L188.928 119.485C188.461 119.334 188.205 118.834 188.358 118.369ZM227.358 118.369C227.511 118.834 227.255 119.334 226.787 119.485L226.675 119.521C226.207 119.672 225.704 119.417 225.553 118.952C225.402 118.487 225.658 117.988 226.126 117.837L226.236 117.802C226.703 117.65 227.206 117.904 227.358 118.369ZM197.506 120.698C197.582 120.215 198.039 119.886 198.524 119.962L198.638 119.98C199.124 120.055 199.457 120.508 199.381 120.991C199.305 121.474 198.849 121.805 198.364 121.729L198.246 121.711C197.76 121.634 197.429 121.181 197.506 120.698ZM218.21 120.698C218.287 121.181 217.955 121.634 217.47 121.711L217.352 121.729C216.866 121.805 216.411 121.474 216.335 120.991C216.259 120.508 216.591 120.055 217.077 119.98L217.191 119.962C217.677 119.886 218.133 120.215 218.21 120.698ZM206.909 121.573C206.909 121.084 207.308 120.688 207.8 120.688H207.916C208.408 120.688 208.807 121.084 208.807 121.573C208.808 122.061 208.409 122.458 207.917 122.459H207.798C207.306 122.458 206.908 122.061 206.909 121.573Z" fill="white"/>
<path d="M209.837 1.96712C209.837 3.05358 208.951 3.93433 207.858 3.93433C206.765 3.93433 205.879 3.05358 205.879 1.96712C205.879 0.88066 206.765 -8.89587e-05 207.858 -8.88637e-05C208.951 -8.87687e-05 209.837 0.88066 209.837 1.96712Z" fill="#6966FF"/>
<path d="M209.837 121.573C209.837 122.66 208.951 123.541 207.858 123.541C206.765 123.541 205.879 122.66 205.879 121.573C205.879 120.487 206.765 119.606 207.858 119.606C208.951 119.606 209.837 120.487 209.837 121.573Z" fill="#6966FF"/>
<path d="M268.021 63.7375C266.928 63.7375 266.042 62.8568 266.042 61.7703C266.042 60.6839 266.928 59.8031 268.021 59.8031C269.114 59.8031 270 60.6839 270 61.7703C270 62.8568 269.114 63.7375 268.021 63.7375Z" fill="#6966FF"/>
<path fill-rule="evenodd" clip-rule="evenodd" d="M225.145 24.8955H241.558L188.714 98.4633H172.574L225.145 24.8955ZM205.864 46.5734L190.396 24.8955H173.919L197.793 58.3978L205.864 46.5734ZM201.817 46.6153L197.735 52.5975L180.349 28.2004H188.678L201.817 46.6153ZM179.014 95.1583H187.003L235.099 28.2004H226.862L179.014 95.1583Z" fill="white"/>
<path fill-rule="evenodd" clip-rule="evenodd" d="M228.602 95.1337C228.696 95.2635 228.847 95.3403 229.007 95.3403H236.734L218.415 69.4826C218.215 69.2009 217.797 69.2015 217.598 69.4838L214.067 74.4981C213.944 74.6728 213.945 74.9064 214.07 75.0794L228.602 95.1337ZM209.783 74.8175L227.049 98.6452H243.142L217.997 63.1536L209.783 74.8175Z" fill="url(#paint0_linear_1041_11234)"/>
<path fill-rule="evenodd" clip-rule="evenodd" d="M56.4345 24.8955H42.3272V46.7857C38.2529 44.6192 33.5753 43.3873 28.601 43.3873C12.8081 43.3873 0.00537109 55.8058 0.00537109 71.1249C0.00537109 86.444 12.8081 98.8625 28.601 98.8625C33.5753 98.8625 38.2529 97.6305 42.3272 95.464V98.2021H56.4345V24.8955ZM44.6462 70.9788C44.6462 79.6551 37.3951 86.6886 28.4504 86.6886C19.5057 86.6886 12.2546 79.6551 12.2546 70.9788C12.2546 62.3025 19.5057 55.269 28.4504 55.269C37.3951 55.269 44.6462 62.3025 44.6462 70.9788ZM113.595 24.8955L61.137 98.2022H77.5829L129.99 24.8955H113.595ZM154.514 24.8955H168.621V98.2021H154.514V95.464C150.44 97.6305 145.762 98.8625 140.788 98.8625C124.995 98.8625 112.192 86.444 112.192 71.1249C112.192 55.8058 124.995 43.3873 140.788 43.3873C145.762 43.3873 150.44 44.6192 154.514 46.7857V24.8955ZM140.637 86.6886C149.582 86.6886 156.833 79.6551 156.833 70.9788C156.833 62.3025 149.582 55.269 140.637 55.269C131.692 55.269 124.441 62.3025 124.441 70.9788C124.441 79.6551 131.692 86.6886 140.637 86.6886ZM94.0543 47.1511L77.5958 24.8955H60.4655L84.9853 59.588L94.0543 47.1511Z" fill="white"/>
<defs>
<linearGradient id="paint0_linear_1041_11234" x1="230.675" y1="93.059" x2="204.287" y2="56.5833" gradientUnits="userSpaceOnUse">
<stop stop-color="#6966FF"/>
<stop offset="1" stop-color="#6966FF" stop-opacity="0.36"/>
</linearGradient>
</defs>
</svg>
