<svg width="60" height="60" viewBox="0 0 60 60" fill="none" xmlns="http://www.w3.org/2000/svg">
<path fill-rule="evenodd" clip-rule="evenodd" d="M38.2374 12.0527H46.1359L20.7058 47.669H12.9385L38.2374 12.0527ZM28.9586 22.5476L21.515 12.0527H13.5858L25.075 28.2722L28.9586 22.5476ZM27.0114 22.5679L25.0466 25.4641L16.6799 13.6527H20.6882L27.0114 22.5679ZM16.0376 46.069H19.8822L43.0275 13.6527H39.0635L16.0376 46.069Z" fill="white"/>
<path fill-rule="evenodd" clip-rule="evenodd" d="M39.973 46.157H43.8142L34.8015 33.3589L32.807 36.2081L39.973 46.157ZM30.8447 36.2213L39.1536 47.757H46.8979L34.7975 30.5745L30.8447 36.2213Z" fill="url(#paint0_linear_5017_1498)"/>
<path fill-rule="evenodd" clip-rule="evenodd" d="M30.3471 5.30992C30.3471 5.07323 30.1552 4.88135 29.9185 4.88135C29.6818 4.88135 29.4899 5.07323 29.4899 5.30992V5.33704C29.4899 5.57374 29.6818 5.76562 29.9185 5.76562C30.1552 5.76562 30.3471 5.57374 30.3471 5.33704V5.30992ZM30.3471 9.67715C30.3471 9.44046 30.1552 9.24858 29.9185 9.24858C29.6818 9.24858 29.4899 9.44046 29.4899 9.67715V9.7314C29.4899 9.9681 29.6818 10.16 29.9185 10.16C30.1552 10.16 30.3471 9.9681 30.3471 9.7314V9.67715ZM30.3471 14.0715C30.3471 13.8348 30.1552 13.6429 29.9185 13.6429C29.6818 13.6429 29.4899 13.8348 29.4899 14.0715V14.1258C29.4899 14.3625 29.6818 14.5543 29.9185 14.5543C30.1552 14.5543 30.3471 14.3625 30.3471 14.1258V14.0715ZM30.3471 18.4659C30.3471 18.2292 30.1552 18.0373 29.9185 18.0373C29.6818 18.0373 29.4899 18.2292 29.4899 18.4659V18.493C29.4899 18.7297 29.6818 18.9216 29.9185 18.9216C30.1552 18.9216 30.3471 18.7297 30.3471 18.493V18.4659ZM30.3471 40.1464C30.3471 39.9097 30.1552 39.7178 29.9185 39.7178C29.6818 39.7178 29.4899 39.9097 29.4899 40.1464V40.1754C29.4899 40.4121 29.6818 40.6039 29.9185 40.6039C30.1552 40.6039 30.3471 40.4121 30.3471 40.1754V40.1464ZM30.3471 44.8069C30.3471 44.5702 30.1552 44.3784 29.9185 44.3784C29.6818 44.3784 29.4899 44.5702 29.4899 44.8069V44.8648C29.4899 45.1015 29.6818 45.2934 29.9185 45.2934C30.1552 45.2934 30.3471 45.1015 30.3471 44.8648V44.8069ZM30.3471 49.4964C30.3471 49.2597 30.1552 49.0678 29.9185 49.0678C29.6818 49.0678 29.4899 49.2597 29.4899 49.4964V49.5543C29.4899 49.791 29.6818 49.9829 29.9185 49.9829C30.1552 49.9829 30.3471 49.791 30.3471 49.5543V49.4964ZM30.3471 54.1858C30.3471 53.9492 30.1552 53.7573 29.9185 53.7573C29.6818 53.7573 29.4899 53.9492 29.4899 54.1858V54.2437C29.4899 54.4804 29.6818 54.6723 29.9185 54.6723C30.1552 54.6723 30.3471 54.4804 30.3471 54.2437V54.1858ZM30.3471 58.8753C30.3471 58.6386 30.1552 58.4467 29.9185 58.4467C29.6818 58.4467 29.4899 58.6386 29.4899 58.8753V58.9043C29.4899 59.141 29.6818 59.3328 29.9185 59.3328C30.1552 59.3328 30.3471 59.141 30.3471 58.9043V58.8753ZM59.3231 29.9282C59.3231 30.1649 59.1312 30.3568 58.8945 30.3568H58.8686C58.6319 30.3568 58.44 30.1649 58.44 29.9282C58.44 29.6915 58.6319 29.4997 58.8686 29.4997H58.8945C59.1312 29.4997 59.3231 29.6915 59.3231 29.9282ZM55.1483 29.9282C55.1483 30.1649 54.9565 30.3568 54.7198 30.3568H54.6679C54.4312 30.3568 54.2393 30.1649 54.2393 29.9282C54.2393 29.6915 54.4312 29.4997 54.6679 29.4997H54.7198C54.9565 29.4997 55.1483 29.6915 55.1483 29.9282ZM50.9477 29.9282C50.9477 30.1649 50.7558 30.3568 50.5191 30.3568H50.4672C50.2305 30.3568 50.0387 30.1649 50.0387 29.9282C50.0387 29.6915 50.2305 29.4997 50.4672 29.4997H50.5191C50.7558 29.4997 50.9477 29.6915 50.9477 29.9282ZM46.747 29.9282C46.747 30.1649 46.5551 30.3568 46.3184 30.3568H46.2666C46.0299 30.3568 45.838 30.1649 45.838 29.9282C45.838 29.6915 46.0299 29.4997 46.2666 29.4997H46.3184C46.5551 29.4997 46.747 29.6915 46.747 29.9282ZM42.5463 29.9282C42.5463 30.1649 42.3545 30.3568 42.1178 30.3568H42.0659C41.8292 30.3568 41.6373 30.1649 41.6373 29.9282C41.6373 29.6915 41.8292 29.4997 42.0659 29.4997H42.1178C42.3545 29.4997 42.5463 29.6915 42.5463 29.9282ZM38.3457 29.9282C38.3457 30.1649 38.1538 30.3568 37.9171 30.3568H37.8912C37.6545 30.3568 37.4626 30.1649 37.4626 29.9282C37.4626 29.6915 37.6545 29.4997 37.8912 29.4997H37.9171C38.1538 29.4997 38.3457 29.6915 38.3457 29.9282ZM22.1292 30.3568C22.3659 30.3568 22.5577 30.1649 22.5577 29.9282C22.5577 29.6915 22.3659 29.4997 22.1292 29.4997H22.103C21.8663 29.4997 21.6744 29.6915 21.6744 29.9282C21.6744 30.1649 21.8663 30.3568 22.103 30.3568H22.1292ZM17.9179 30.3568C18.1546 30.3568 18.3465 30.1649 18.3465 29.9282C18.3465 29.6915 18.1546 29.4997 17.9179 29.4997H17.8656C17.6289 29.4997 17.4371 29.6915 17.4371 29.9282C17.4371 30.1649 17.6289 30.3568 17.8656 30.3568H17.9179ZM13.6806 30.3568C13.9172 30.3568 14.1091 30.1649 14.1091 29.9282C14.1091 29.6915 13.9172 29.4997 13.6806 29.4997H13.6282C13.3915 29.4997 13.1997 29.6915 13.1997 29.9282C13.1997 30.1649 13.3915 30.3568 13.6282 30.3568H13.6806ZM9.44317 30.3568C9.67986 30.3568 9.87174 30.1649 9.87174 29.9282C9.87174 29.6915 9.67986 29.4997 9.44317 29.4997H9.39085C9.15416 29.4997 8.96228 29.6915 8.96228 29.9282C8.96228 30.1649 9.15416 30.3568 9.39085 30.3568H9.44317ZM5.20578 30.3568C5.44248 30.3568 5.63436 30.1649 5.63436 29.9282C5.63436 29.6915 5.44248 29.4997 5.20578 29.4997H5.15347C4.91678 29.4997 4.7249 29.6915 4.7249 29.9282C4.7249 30.1649 4.91678 30.3568 5.15347 30.3568H5.20578ZM0.968401 30.3568C1.2051 30.3568 1.39697 30.1649 1.39697 29.9282C1.39697 29.6915 1.2051 29.4997 0.968401 29.4997H0.942243C0.705549 29.4997 0.513672 29.6915 0.513672 29.9282C0.513672 30.1649 0.705549 30.3568 0.942243 30.3568H0.968401Z" fill="#55555E"/>
<path fill-rule="evenodd" clip-rule="evenodd" d="M29.8894 0.523682H29.9467C30.1834 0.523908 30.3751 0.715969 30.3749 0.952662C30.3746 1.18936 30.1826 1.38105 29.9459 1.38082H29.8902C29.6535 1.38105 29.4615 1.18936 29.4612 0.952662C29.461 0.715969 29.6527 0.523908 29.8894 0.523682ZM25.8387 1.23418C25.8752 1.46804 25.7152 1.68723 25.4813 1.72374L25.4265 1.73236C25.1927 1.76934 24.9732 1.60979 24.9363 1.376C24.8993 1.14221 25.0588 0.922715 25.2926 0.885741L25.3491 0.876864C25.583 0.840346 25.8021 1.00032 25.8387 1.23418ZM33.9974 1.23418C34.0339 1.00032 34.2531 0.840346 34.487 0.876864L34.5435 0.885741C34.7773 0.922715 34.9368 1.14221 34.8998 1.376C34.8629 1.60979 34.6434 1.76934 34.4096 1.73236L34.3547 1.72374C34.1209 1.68723 33.9609 1.46804 33.9974 1.23418ZM38.4335 2.22143C38.5063 1.99624 38.748 1.87277 38.9732 1.94565L39.0275 1.96327C39.2525 2.0366 39.3755 2.27848 39.3022 2.50353C39.2289 2.72858 38.987 2.85158 38.7619 2.77825L38.7092 2.76115C38.4841 2.68827 38.3606 2.44663 38.4335 2.22143ZM21.4026 2.22143C21.4755 2.44663 21.352 2.68827 21.1268 2.76115L21.0742 2.77825C20.8491 2.85158 20.6072 2.72858 20.5339 2.50353C20.4606 2.27848 20.5836 2.0366 20.8086 1.96327L20.8629 1.94565C21.0881 1.87277 21.3297 1.99624 21.4026 2.22143ZM42.6581 3.89514C42.7655 3.68423 43.0236 3.60034 43.2345 3.70776L43.2853 3.73367C43.496 3.84151 43.5794 4.09973 43.4715 4.31043C43.3637 4.52114 43.1055 4.60453 42.8948 4.4967L42.8455 4.47154C42.6346 4.36412 42.5507 4.10606 42.6581 3.89514ZM17.178 3.89515C17.2854 4.10606 17.2015 4.36412 16.9906 4.47154L16.9413 4.4967C16.7306 4.60453 16.4724 4.52114 16.3646 4.31043C16.2567 4.09973 16.3401 3.84151 16.5508 3.73367L16.6016 3.70776C16.8125 3.60034 17.0706 3.68423 17.178 3.89515ZM13.2688 6.21147C13.4079 6.40298 13.3654 6.67099 13.1739 6.81008L13.1291 6.84262C12.9379 6.98209 12.6698 6.94012 12.5303 6.74887C12.3909 6.55763 12.4329 6.28954 12.6241 6.15008L12.6701 6.11656C12.8617 5.97746 13.1297 6.01996 13.2688 6.21147ZM46.5673 6.21147C46.7064 6.01996 46.9744 5.97747 47.1659 6.11656L47.212 6.15008C47.4032 6.28954 47.4452 6.55763 47.3058 6.74887C47.1663 6.94012 46.8982 6.98209 46.707 6.84262L46.6622 6.81008C46.4707 6.67099 46.4282 6.40298 46.5673 6.21147ZM9.76882 9.1096C9.93603 9.27713 9.93577 9.54848 9.76824 9.71569L9.72912 9.75481C9.56191 9.92234 9.29056 9.9226 9.12303 9.75539C8.9555 9.58819 8.95524 9.31683 9.12244 9.1493L9.16273 9.10901C9.33026 8.94181 9.60162 8.94207 9.76882 9.1096ZM50.0673 9.1096C50.2345 8.94207 50.5058 8.94181 50.6734 9.10901L50.7136 9.1493C50.8809 9.31683 50.8806 9.58819 50.7131 9.75539C50.5455 9.9226 50.2742 9.92234 50.107 9.75481L50.0679 9.71569C49.9003 9.54848 49.9001 9.27713 50.0673 9.1096ZM6.7623 12.5169C6.95354 12.6564 6.99552 12.9245 6.85605 13.1157L6.82351 13.1604C6.68441 13.3519 6.41641 13.3944 6.2249 13.2553C6.03338 13.1162 5.99089 12.8482 6.12999 12.6567L6.1635 12.6107C6.30297 12.4194 6.57106 12.3775 6.7623 12.5169ZM53.0738 12.5169C53.265 12.3775 53.5331 12.4194 53.6726 12.6107L53.7061 12.6567C53.8452 12.8482 53.8027 13.1162 53.6112 13.2553C53.4197 13.3944 53.1517 13.3519 53.0126 13.1604L52.98 13.1157C52.8406 12.9245 52.8826 12.6564 53.0738 12.5169ZM55.5122 16.3511C55.7229 16.2433 55.9812 16.3267 56.089 16.5374L56.1149 16.5882C56.2223 16.7991 56.1384 17.0571 55.9275 17.1646C55.7166 17.272 55.4585 17.1881 55.3511 16.9772L55.326 16.9279C55.2181 16.7172 55.3015 16.459 55.5122 16.3511ZM4.32386 16.3511C4.53456 16.459 4.61796 16.7172 4.51012 16.9279L4.48497 16.9772C4.37755 17.1881 4.11949 17.272 3.90857 17.1646C3.69766 17.0571 3.61376 16.7991 3.72119 16.5882L3.7471 16.5374C3.85493 16.3267 4.11316 16.2433 4.32386 16.3511ZM2.51695 20.5205C2.742 20.5938 2.865 20.8357 2.79168 21.0607L2.77457 21.1134C2.70169 21.3386 2.46006 21.4621 2.23486 21.3892C2.00967 21.3163 1.8862 21.0747 1.95908 20.8495L1.9767 20.7952C2.05002 20.5702 2.2919 20.4472 2.51695 20.5205ZM57.3191 20.5205C57.5442 20.4472 57.7861 20.5702 57.8594 20.7952L57.877 20.8495C57.9499 21.0747 57.8264 21.3163 57.6012 21.3892C57.376 21.4621 57.1344 21.3386 57.0615 21.1134L57.0444 21.0607C56.9711 20.8357 57.0941 20.5938 57.3191 20.5205ZM1.38943 24.9228C1.62321 24.9598 1.78276 25.1793 1.74579 25.4131L1.73717 25.4679C1.70065 25.7018 1.48147 25.8618 1.24761 25.8252C1.01375 25.7887 0.853774 25.5695 0.890292 25.3357L0.899169 25.2792C0.936143 25.0454 1.15564 24.8859 1.38943 24.9228ZM58.4467 24.9228C58.6805 24.8859 58.9 25.0454 58.9369 25.2792L58.9458 25.3357C58.9823 25.5695 58.8223 25.7887 58.5885 25.8252C58.3546 25.8618 58.1354 25.7018 58.0989 25.4679L58.0903 25.4131C58.0533 25.1793 58.2129 24.9598 58.4467 24.9228ZM0.96609 29.4478C1.20278 29.448 1.39448 29.6401 1.39425 29.8768V29.9324C1.39448 30.1691 1.20278 30.3612 0.96609 30.3614C0.729396 30.3617 0.537335 30.17 0.537109 29.9333V29.876C0.537335 29.6393 0.729396 29.4476 0.96609 29.4478ZM58.87 29.4478C59.1067 29.4476 59.2988 29.6393 59.299 29.876V29.9333C59.2988 30.17 59.1067 30.3617 58.87 30.3614C58.6333 30.3612 58.4416 30.1691 58.4418 29.9324V29.8768C58.4416 29.6401 58.6333 29.448 58.87 29.4478ZM1.24761 33.984C1.48147 33.9475 1.70065 34.1075 1.73717 34.3413L1.74579 34.3962C1.78276 34.6299 1.62321 34.8494 1.38943 34.8864C1.15564 34.9234 0.936143 34.7638 0.899169 34.53L0.890292 34.4736C0.853773 34.2397 1.01375 34.0205 1.24761 33.984ZM58.5885 33.984C58.8223 34.0205 58.9823 34.2397 58.9458 34.4736L58.9369 34.53C58.9 34.7638 58.6805 34.9234 58.4467 34.8864C58.2129 34.8494 58.0533 34.6299 58.0903 34.3962L58.0989 34.3413C58.1354 34.1075 58.3546 33.9475 58.5885 33.984ZM2.23486 38.42C2.46006 38.3472 2.70169 38.4706 2.77458 38.6958L2.79168 38.7485C2.865 38.9736 2.742 39.2154 2.51695 39.2888C2.2919 39.3621 2.05003 39.2391 1.9767 39.014L1.95908 38.9598C1.8862 38.7346 2.00967 38.4929 2.23486 38.42ZM57.6012 38.42C57.8264 38.4929 57.9499 38.7346 57.877 38.9598L57.8594 39.014C57.7861 39.2391 57.5442 39.3621 57.3191 39.2888C57.0941 39.2154 56.9711 38.9736 57.0444 38.7485L57.0615 38.6958C57.1344 38.4706 57.376 38.3472 57.6012 38.42ZM3.90857 42.6447C4.11949 42.5373 4.37755 42.6212 4.48497 42.8321L4.51013 42.8813C4.61796 43.092 4.53457 43.3503 4.32386 43.4581C4.11316 43.5659 3.85493 43.4825 3.7471 43.2718L3.72119 43.2211C3.61377 43.0102 3.69766 42.7521 3.90857 42.6447ZM55.9275 42.6447C56.1384 42.7521 56.2223 43.0102 56.1149 43.2211L56.089 43.2718C55.9812 43.4825 55.7229 43.5659 55.5122 43.4581C55.3015 43.3503 55.2181 43.092 55.326 42.8813L55.3511 42.8321C55.4585 42.6212 55.7166 42.5373 55.9275 42.6447ZM6.22489 46.5539C6.41641 46.4148 6.68441 46.4573 6.82351 46.6488L6.85605 46.6935C6.99552 46.8848 6.95354 47.1529 6.7623 47.2923C6.57106 47.4318 6.30297 47.3898 6.1635 47.1986L6.12999 47.1525C5.99089 46.961 6.03338 46.693 6.22489 46.5539ZM53.6112 46.5539C53.8027 46.693 53.8452 46.961 53.7061 47.1525L53.6726 47.1986C53.5331 47.3898 53.265 47.4318 53.0738 47.2923C52.8826 47.1529 52.8406 46.8848 52.98 46.6935L53.0126 46.6488C53.1517 46.4573 53.4197 46.4148 53.6112 46.5539ZM9.12303 50.0538C9.29056 49.8866 9.56191 49.8869 9.72912 50.0544L9.76824 50.0936C9.93577 50.2608 9.93603 50.5321 9.76882 50.6996C9.60162 50.8672 9.33026 50.8674 9.16273 50.7002L9.12244 50.6599C8.95524 50.4924 8.9555 50.2211 9.12303 50.0538ZM50.7131 50.0538C50.8806 50.2211 50.8809 50.4924 50.7136 50.6599L50.6734 50.7002C50.5058 50.8674 50.2345 50.8672 50.0673 50.6996C49.9001 50.5321 49.9003 50.2608 50.0679 50.0936L50.107 50.0544C50.2742 49.8869 50.5455 49.8866 50.7131 50.0538ZM12.5303 53.0604C12.6698 52.8691 12.9379 52.8271 13.1291 52.9666L13.1739 52.9992C13.3654 53.1382 13.4079 53.4063 13.2688 53.5978C13.1297 53.7893 12.8617 53.8318 12.6701 53.6927L12.6241 53.6592C12.4329 53.5197 12.3909 53.2516 12.5303 53.0604ZM47.3058 53.0604C47.4452 53.2516 47.4032 53.5197 47.212 53.6592L47.1659 53.6927C46.9744 53.8318 46.7064 53.7893 46.5673 53.5978C46.4282 53.4063 46.4707 53.1383 46.6622 52.9992L46.707 52.9666C46.8982 52.8271 47.1663 52.8691 47.3058 53.0604ZM16.3646 55.4988C16.4724 55.2881 16.7306 55.2047 16.9413 55.3125L16.9906 55.3377C17.2015 55.4451 17.2854 55.7032 17.178 55.9141C17.0706 56.125 16.8125 56.2089 16.6016 56.1015L16.5508 56.0756C16.3401 55.9677 16.2567 55.7095 16.3646 55.4988ZM43.4715 55.4988C43.5794 55.7095 43.496 55.9677 43.2853 56.0756L43.2345 56.1015C43.0236 56.2089 42.7655 56.125 42.6581 55.9141C42.5507 55.7032 42.6346 55.4451 42.8455 55.3377L42.8948 55.3125C43.1055 55.2047 43.3637 55.2881 43.4715 55.4988ZM20.5339 57.3057C20.6072 57.0807 20.8491 56.9577 21.0742 57.031L21.1268 57.0481C21.352 57.121 21.4755 57.3626 21.4026 57.5878C21.3298 57.813 21.0881 57.9365 20.8629 57.8636L20.8086 57.846C20.5836 57.7726 20.4606 57.5308 20.5339 57.3057ZM39.3022 57.3057C39.3755 57.5308 39.2525 57.7726 39.0275 57.846L38.9732 57.8636C38.748 57.9365 38.5063 57.813 38.4335 57.5878C38.3606 57.3626 38.4841 57.121 38.7092 57.0481L38.7619 57.031C38.987 56.9577 39.2289 57.0807 39.3022 57.3057ZM24.9363 58.4332C24.9732 58.1995 25.1927 58.0399 25.4265 58.0769L25.4813 58.0855C25.7152 58.122 25.8752 58.3412 25.8387 58.5751C25.8021 58.8089 25.583 58.9689 25.3491 58.9324L25.2926 58.9235C25.0588 58.8865 24.8993 58.667 24.9363 58.4332ZM34.8998 58.4332C34.9368 58.667 34.7773 58.8865 34.5435 58.9235L34.487 58.9324C34.2531 58.9689 34.0339 58.8089 33.9974 58.5751C33.9609 58.3412 34.1209 58.122 34.3547 58.0855L34.4096 58.0769C34.6434 58.0399 34.8629 58.1995 34.8998 58.4332ZM29.4612 58.8566C29.4615 58.6199 29.6535 58.4282 29.8902 58.4284H29.9459C30.1826 58.4282 30.3746 58.6199 30.3749 58.8566C30.3751 59.0933 30.1834 59.2853 29.9467 59.2856H29.8894C29.6527 59.2853 29.461 59.0933 29.4612 58.8566Z" fill="white"/>
<path d="M30.8711 58.8569C30.8711 59.3829 30.4447 59.8093 29.9187 59.8093C29.3927 59.8093 28.9663 59.3829 28.9663 58.8569C28.9663 58.331 29.3927 57.9046 29.9187 57.9046C30.4447 57.9046 30.8711 58.331 30.8711 58.8569Z" fill="#6966FF"/>
<path d="M58.8703 30.8572C58.3444 30.8572 57.918 30.4308 57.918 29.9048C57.918 29.3788 58.3444 28.9524 58.8704 28.9524C59.3963 28.9524 59.8227 29.3788 59.8227 29.9048C59.8227 30.4308 59.3963 30.8572 58.8703 30.8572Z" fill="#6966FF"/>
<path d="M30.8711 0.95216C30.8711 1.47815 30.4447 1.90454 29.9187 1.90454C29.3927 1.90454 28.9663 1.47815 28.9663 0.95216C28.9663 0.426175 29.3927 -0.000221024 29.9187 -0.000220978C30.4447 -0.000220932 30.8711 0.426175 30.8711 0.95216Z" fill="#6966FF"/>
<path d="M0.966053 30.8572C0.440068 30.8572 0.0136719 30.4308 0.013672 29.9048C0.0136721 29.3788 0.440068 28.9524 0.966053 28.9524C1.49204 28.9524 1.91843 29.3788 1.91843 29.9048C1.91843 30.4308 1.49204 30.8572 0.966053 30.8572Z" fill="#6966FF"/>
<defs>
<linearGradient id="paint0_linear_5017_1498" x1="40.8985" y1="45.0525" x2="28.0995" y2="27.4666" gradientUnits="userSpaceOnUse">
<stop stop-color="#6966FF"/>
<stop offset="1" stop-color="#6966FF" stop-opacity="0.36"/>
</linearGradient>
</defs>
</svg>
