<svg width="1440" height="4908" viewBox="0 0 1440 4908" fill="none" xmlns="http://www.w3.org/2000/svg">
<g clip-path="url(#clip0_5047_3416)">
<rect width="1440" height="4908" fill="#1C1C28"/>
<rect width="1440" height="0" transform="translate(0 4908)" fill="white"/>
<mask id="mask0_5047_3416" style="mask-type:alpha" maskUnits="userSpaceOnUse" x="0" y="4116" width="1440" height="792">
<rect y="4116" width="1440" height="792" fill="url(#paint0_linear_5047_3416)"/>
</mask>
<g mask="url(#mask0_5047_3416)">
<rect y="4116" width="24" height="792" stroke="#393953" stroke-opacity="0.3"/>
<rect x="24" y="4116" width="24" height="792" stroke="#393953" stroke-opacity="0.3"/>
<rect x="48" y="4116" width="24" height="792" stroke="#393953" stroke-opacity="0.3"/>
<rect x="72" y="4116" width="24" height="792" stroke="#393953" stroke-opacity="0.3"/>
<rect x="96" y="4116" width="24" height="792" stroke="#393953" stroke-opacity="0.3"/>
<rect x="120" y="4116" width="24" height="792" stroke="#393953" stroke-opacity="0.3"/>
<rect x="144" y="4116" width="24" height="792" stroke="#393953" stroke-opacity="0.3"/>
<rect x="168" y="4116" width="24" height="792" stroke="#393953" stroke-opacity="0.3"/>
<rect x="192" y="4116" width="24" height="792" stroke="#393953" stroke-opacity="0.3"/>
<rect x="216" y="4116" width="24" height="792" stroke="#393953" stroke-opacity="0.3"/>
<rect x="240" y="4116" width="24" height="792" stroke="#393953" stroke-opacity="0.3"/>
<rect x="264" y="4116" width="24" height="792" stroke="#393953" stroke-opacity="0.3"/>
<rect x="288" y="4116" width="24" height="792" stroke="#393953" stroke-opacity="0.3"/>
<rect x="312" y="4116" width="24" height="792" stroke="#393953" stroke-opacity="0.3"/>
<rect x="336" y="4116" width="24" height="792" stroke="#393953" stroke-opacity="0.3"/>
<rect x="360" y="4116" width="24" height="792" stroke="#393953" stroke-opacity="0.3"/>
<rect x="384" y="4116" width="24" height="792" stroke="#393953" stroke-opacity="0.3"/>
<rect x="408" y="4116" width="24" height="792" stroke="#393953" stroke-opacity="0.3"/>
<rect x="432" y="4116" width="24" height="792" stroke="#393953" stroke-opacity="0.3"/>
<rect x="456" y="4116" width="24" height="792" stroke="#393953" stroke-opacity="0.3"/>
<rect x="480" y="4116" width="24" height="792" stroke="#393953" stroke-opacity="0.3"/>
<rect x="504" y="4116" width="24" height="792" stroke="#393953" stroke-opacity="0.3"/>
<rect x="528" y="4116" width="24" height="792" stroke="#393953" stroke-opacity="0.3"/>
<rect x="552" y="4116" width="24" height="792" stroke="#393953" stroke-opacity="0.3"/>
<rect x="576" y="4116" width="24" height="792" stroke="#393953" stroke-opacity="0.3"/>
<rect x="600" y="4116" width="24" height="792" stroke="#393953" stroke-opacity="0.3"/>
<rect x="624" y="4116" width="24" height="792" stroke="#393953" stroke-opacity="0.3"/>
<rect x="648" y="4116" width="24" height="792" stroke="#393953" stroke-opacity="0.3"/>
<rect x="672" y="4116" width="24" height="792" stroke="#393953" stroke-opacity="0.3"/>
<rect x="696" y="4116" width="24" height="792" stroke="#393953" stroke-opacity="0.3"/>
<rect x="720" y="4116" width="24" height="792" stroke="#393953" stroke-opacity="0.3"/>
<rect x="744" y="4116" width="24" height="792" stroke="#393953" stroke-opacity="0.3"/>
<rect x="768" y="4116" width="24" height="792" stroke="#393953" stroke-opacity="0.3"/>
<rect x="792" y="4116" width="24" height="792" stroke="#393953" stroke-opacity="0.3"/>
<rect x="816" y="4116" width="24" height="792" stroke="#393953" stroke-opacity="0.3"/>
<rect x="840" y="4116" width="24" height="792" stroke="#393953" stroke-opacity="0.3"/>
<rect x="864" y="4116" width="24" height="792" stroke="#393953" stroke-opacity="0.3"/>
<rect x="888" y="4116" width="24" height="792" stroke="#393953" stroke-opacity="0.3"/>
<rect x="912" y="4116" width="24" height="792" stroke="#393953" stroke-opacity="0.3"/>
<rect x="936" y="4116" width="24" height="792" stroke="#393953" stroke-opacity="0.3"/>
<rect x="960" y="4116" width="24" height="792" stroke="#393953" stroke-opacity="0.3"/>
<rect x="984" y="4116" width="24" height="792" stroke="#393953" stroke-opacity="0.3"/>
<rect x="1008" y="4116" width="24" height="792" stroke="#393953" stroke-opacity="0.3"/>
<rect x="1032" y="4116" width="24" height="792" stroke="#393953" stroke-opacity="0.3"/>
<rect x="1056" y="4116" width="24" height="792" stroke="#393953" stroke-opacity="0.3"/>
<rect x="1080" y="4116" width="24" height="792" stroke="#393953" stroke-opacity="0.3"/>
<rect x="1104" y="4116" width="24" height="792" stroke="#393953" stroke-opacity="0.3"/>
<rect x="1128" y="4116" width="24" height="792" stroke="#393953" stroke-opacity="0.3"/>
<rect x="1152" y="4116" width="24" height="792" stroke="#393953" stroke-opacity="0.3"/>
<rect x="1176" y="4116" width="24" height="792" stroke="#393953" stroke-opacity="0.3"/>
<rect x="1200" y="4116" width="24" height="792" stroke="#393953" stroke-opacity="0.3"/>
<rect x="1224" y="4116" width="24" height="792" stroke="#393953" stroke-opacity="0.3"/>
<rect x="1248" y="4116" width="24" height="792" stroke="#393953" stroke-opacity="0.3"/>
<rect x="1272" y="4116" width="24" height="792" stroke="#393953" stroke-opacity="0.3"/>
<rect x="1296" y="4116" width="24" height="792" stroke="#393953" stroke-opacity="0.3"/>
<rect x="1320" y="4116" width="24" height="792" stroke="#393953" stroke-opacity="0.3"/>
<rect x="1344" y="4116" width="24" height="792" stroke="#393953" stroke-opacity="0.3"/>
<rect x="1368" y="4116" width="24" height="792" stroke="#393953" stroke-opacity="0.3"/>
<rect x="1392" y="4116" width="24" height="792" stroke="#393953" stroke-opacity="0.3"/>
<rect x="1416" y="4116" width="24" height="792" stroke="#393953" stroke-opacity="0.3"/>
<rect y="4140" width="24" height="1440" transform="rotate(-90 0 4140)" stroke="#393953" stroke-opacity="0.3"/>
<rect y="4164" width="24" height="1440" transform="rotate(-90 0 4164)" stroke="#393953" stroke-opacity="0.3"/>
<rect y="4188" width="24" height="1440" transform="rotate(-90 0 4188)" stroke="#393953" stroke-opacity="0.3"/>
<rect y="4212" width="24" height="1440" transform="rotate(-90 0 4212)" stroke="#393953" stroke-opacity="0.3"/>
<rect y="4236" width="24" height="1440" transform="rotate(-90 0 4236)" stroke="#393953" stroke-opacity="0.3"/>
<rect y="4260" width="24" height="1440" transform="rotate(-90 0 4260)" stroke="#393953" stroke-opacity="0.3"/>
<rect y="4284" width="24" height="1440" transform="rotate(-90 0 4284)" stroke="#393953" stroke-opacity="0.3"/>
<rect y="4308" width="24" height="1440" transform="rotate(-90 0 4308)" stroke="#393953" stroke-opacity="0.3"/>
<rect y="4332" width="24" height="1440" transform="rotate(-90 0 4332)" stroke="#393953" stroke-opacity="0.3"/>
<rect y="4356" width="24" height="1440" transform="rotate(-90 0 4356)" stroke="#393953" stroke-opacity="0.3"/>
<rect y="4380" width="24" height="1440" transform="rotate(-90 0 4380)" stroke="#393953" stroke-opacity="0.3"/>
<rect y="4404" width="24" height="1440" transform="rotate(-90 0 4404)" stroke="#393953" stroke-opacity="0.3"/>
<rect y="4428" width="24" height="1440" transform="rotate(-90 0 4428)" stroke="#393953" stroke-opacity="0.3"/>
<rect y="4452" width="24" height="1440" transform="rotate(-90 0 4452)" stroke="#393953" stroke-opacity="0.3"/>
<rect y="4476" width="24" height="1440" transform="rotate(-90 0 4476)" stroke="#393953" stroke-opacity="0.3"/>
<rect y="4500" width="24" height="1440" transform="rotate(-90 0 4500)" stroke="#393953" stroke-opacity="0.3"/>
<rect y="4524" width="24" height="1440" transform="rotate(-90 0 4524)" stroke="#393953" stroke-opacity="0.3"/>
<rect y="4548" width="24" height="1440" transform="rotate(-90 0 4548)" stroke="#393953" stroke-opacity="0.3"/>
<rect y="4572" width="24" height="1440" transform="rotate(-90 0 4572)" stroke="#393953" stroke-opacity="0.3"/>
<rect y="4596" width="24" height="1440" transform="rotate(-90 0 4596)" stroke="#393953" stroke-opacity="0.3"/>
<rect y="4620" width="24" height="1440" transform="rotate(-90 0 4620)" stroke="#393953" stroke-opacity="0.3"/>
<rect y="4644" width="24" height="1440" transform="rotate(-90 0 4644)" stroke="#393953" stroke-opacity="0.3"/>
<rect y="4668" width="24" height="1440" transform="rotate(-90 0 4668)" stroke="#393953" stroke-opacity="0.3"/>
<rect y="4692" width="24" height="1440" transform="rotate(-90 0 4692)" stroke="#393953" stroke-opacity="0.3"/>
<rect y="4716" width="24" height="1440" transform="rotate(-90 0 4716)" stroke="#393953" stroke-opacity="0.3"/>
<rect y="4740" width="24" height="1440" transform="rotate(-90 0 4740)" stroke="#393953" stroke-opacity="0.3"/>
<rect y="4764" width="24" height="1440" transform="rotate(-90 0 4764)" stroke="#393953" stroke-opacity="0.3"/>
<rect y="4788" width="24" height="1440" transform="rotate(-90 0 4788)" stroke="#393953" stroke-opacity="0.3"/>
<rect y="4812" width="24" height="1440" transform="rotate(-90 0 4812)" stroke="#393953" stroke-opacity="0.3"/>
<rect y="4836" width="24" height="1440" transform="rotate(-90 0 4836)" stroke="#393953" stroke-opacity="0.3"/>
<rect y="4860" width="24" height="1440" transform="rotate(-90 0 4860)" stroke="#393953" stroke-opacity="0.3"/>
<rect y="4884" width="24" height="1440" transform="rotate(-90 0 4884)" stroke="#393953" stroke-opacity="0.3"/>
<rect y="4908" width="24" height="1440" transform="rotate(-90 0 4908)" stroke="#393953" stroke-opacity="0.3"/>
</g>
<rect width="1440" height="0" fill="white"/>
<mask id="mask1_5047_3416" style="mask-type:alpha" maskUnits="userSpaceOnUse" x="0" y="0" width="1441" height="792">
<rect x="0.191406" width="1440" height="792" fill="url(#paint1_linear_5047_3416)"/>
</mask>
<g mask="url(#mask1_5047_3416)">
<rect x="0.191406" width="24" height="792" stroke="#393953" stroke-opacity="0.3"/>
<rect x="24.1914" width="24" height="792" stroke="#393953" stroke-opacity="0.3"/>
<rect x="48.1914" width="24" height="792" stroke="#393953" stroke-opacity="0.3"/>
<rect x="72.1914" width="24" height="792" stroke="#393953" stroke-opacity="0.3"/>
<rect x="96.1914" width="24" height="792" stroke="#393953" stroke-opacity="0.3"/>
<rect x="120.191" width="24" height="792" stroke="#393953" stroke-opacity="0.3"/>
<rect x="144.191" width="24" height="792" stroke="#393953" stroke-opacity="0.3"/>
<rect x="168.191" width="24" height="792" stroke="#393953" stroke-opacity="0.3"/>
<rect x="192.191" width="24" height="792" stroke="#393953" stroke-opacity="0.3"/>
<rect x="216.191" width="24" height="792" stroke="#393953" stroke-opacity="0.3"/>
<rect x="240.191" width="24" height="792" stroke="#393953" stroke-opacity="0.3"/>
<rect x="264.191" width="24" height="792" stroke="#393953" stroke-opacity="0.3"/>
<rect x="288.191" width="24" height="792" stroke="#393953" stroke-opacity="0.3"/>
<rect x="312.191" width="24" height="792" stroke="#393953" stroke-opacity="0.3"/>
<rect x="336.191" width="24" height="792" stroke="#393953" stroke-opacity="0.3"/>
<rect x="360.191" width="24" height="792" stroke="#393953" stroke-opacity="0.3"/>
<rect x="384.191" width="24" height="792" stroke="#393953" stroke-opacity="0.3"/>
<rect x="408.191" width="24" height="792" stroke="#393953" stroke-opacity="0.3"/>
<rect x="432.191" width="24" height="792" stroke="#393953" stroke-opacity="0.3"/>
<rect x="456.191" width="24" height="792" stroke="#393953" stroke-opacity="0.3"/>
<rect x="480.191" width="24" height="792" stroke="#393953" stroke-opacity="0.3"/>
<rect x="504.191" width="24" height="792" stroke="#393953" stroke-opacity="0.3"/>
<rect x="528.191" width="24" height="792" stroke="#393953" stroke-opacity="0.3"/>
<rect x="552.191" width="24" height="792" stroke="#393953" stroke-opacity="0.3"/>
<rect x="576.191" width="24" height="792" stroke="#393953" stroke-opacity="0.3"/>
<rect x="600.191" width="24" height="792" stroke="#393953" stroke-opacity="0.3"/>
<rect x="624.191" width="24" height="792" stroke="#393953" stroke-opacity="0.3"/>
<rect x="648.191" width="24" height="792" stroke="#393953" stroke-opacity="0.3"/>
<rect x="672.191" width="24" height="792" stroke="#393953" stroke-opacity="0.3"/>
<rect x="696.191" width="24" height="792" stroke="#393953" stroke-opacity="0.3"/>
<rect x="720.191" width="24" height="792" stroke="#393953" stroke-opacity="0.3"/>
<rect x="744.191" width="24" height="792" stroke="#393953" stroke-opacity="0.3"/>
<rect x="768.191" width="24" height="792" stroke="#393953" stroke-opacity="0.3"/>
<rect x="792.191" width="24" height="792" stroke="#393953" stroke-opacity="0.3"/>
<rect x="816.191" width="24" height="792" stroke="#393953" stroke-opacity="0.3"/>
<rect x="840.191" width="24" height="792" stroke="#393953" stroke-opacity="0.3"/>
<rect x="864.191" width="24" height="792" stroke="#393953" stroke-opacity="0.3"/>
<rect x="888.191" width="24" height="792" stroke="#393953" stroke-opacity="0.3"/>
<rect x="912.191" width="24" height="792" stroke="#393953" stroke-opacity="0.3"/>
<rect x="936.191" width="24" height="792" stroke="#393953" stroke-opacity="0.3"/>
<rect x="960.191" width="24" height="792" stroke="#393953" stroke-opacity="0.3"/>
<rect x="984.191" width="24" height="792" stroke="#393953" stroke-opacity="0.3"/>
<rect x="1008.19" width="24" height="792" stroke="#393953" stroke-opacity="0.3"/>
<rect x="1032.19" width="24" height="792" stroke="#393953" stroke-opacity="0.3"/>
<rect x="1056.19" width="24" height="792" stroke="#393953" stroke-opacity="0.3"/>
<rect x="1080.19" width="24" height="792" stroke="#393953" stroke-opacity="0.3"/>
<rect x="1104.19" width="24" height="792" stroke="#393953" stroke-opacity="0.3"/>
<rect x="1128.19" width="24" height="792" stroke="#393953" stroke-opacity="0.3"/>
<rect x="1152.19" width="24" height="792" stroke="#393953" stroke-opacity="0.3"/>
<rect x="1176.19" width="24" height="792" stroke="#393953" stroke-opacity="0.3"/>
<rect x="1200.19" width="24" height="792" stroke="#393953" stroke-opacity="0.3"/>
<rect x="1224.19" width="24" height="792" stroke="#393953" stroke-opacity="0.3"/>
<rect x="1248.19" width="24" height="792" stroke="#393953" stroke-opacity="0.3"/>
<rect x="1272.19" width="24" height="792" stroke="#393953" stroke-opacity="0.3"/>
<rect x="1296.19" width="24" height="792" stroke="#393953" stroke-opacity="0.3"/>
<rect x="1320.19" width="24" height="792" stroke="#393953" stroke-opacity="0.3"/>
<rect x="1344.19" width="24" height="792" stroke="#393953" stroke-opacity="0.3"/>
<rect x="1368.19" width="24" height="792" stroke="#393953" stroke-opacity="0.3"/>
<rect x="1392.19" width="24" height="792" stroke="#393953" stroke-opacity="0.3"/>
<rect x="1416.19" width="24" height="792" stroke="#393953" stroke-opacity="0.3"/>
<rect x="0.191406" y="24" width="24" height="1440" transform="rotate(-90 0.191406 24)" stroke="#393953" stroke-opacity="0.3"/>
<rect x="0.191406" y="48" width="24" height="1440" transform="rotate(-90 0.191406 48)" stroke="#393953" stroke-opacity="0.3"/>
<rect x="0.191406" y="72" width="24" height="1440" transform="rotate(-90 0.191406 72)" stroke="#393953" stroke-opacity="0.3"/>
<rect x="0.191406" y="96" width="24" height="1440" transform="rotate(-90 0.191406 96)" stroke="#393953" stroke-opacity="0.3"/>
<rect x="0.191406" y="120" width="24" height="1440" transform="rotate(-90 0.191406 120)" stroke="#393953" stroke-opacity="0.3"/>
<rect x="0.191406" y="144" width="24" height="1440" transform="rotate(-90 0.191406 144)" stroke="#393953" stroke-opacity="0.3"/>
<rect x="0.191406" y="168" width="24" height="1440" transform="rotate(-90 0.191406 168)" stroke="#393953" stroke-opacity="0.3"/>
<rect x="0.191406" y="192" width="24" height="1440" transform="rotate(-90 0.191406 192)" stroke="#393953" stroke-opacity="0.3"/>
<rect x="0.191406" y="216" width="24" height="1440" transform="rotate(-90 0.191406 216)" stroke="#393953" stroke-opacity="0.3"/>
<rect x="0.191406" y="240" width="24" height="1440" transform="rotate(-90 0.191406 240)" stroke="#393953" stroke-opacity="0.3"/>
<rect x="0.191406" y="264" width="24" height="1440" transform="rotate(-90 0.191406 264)" stroke="#393953" stroke-opacity="0.3"/>
<rect x="0.191406" y="288" width="24" height="1440" transform="rotate(-90 0.191406 288)" stroke="#393953" stroke-opacity="0.3"/>
<rect x="0.191406" y="312" width="24" height="1440" transform="rotate(-90 0.191406 312)" stroke="#393953" stroke-opacity="0.3"/>
<rect x="0.191406" y="336" width="24" height="1440" transform="rotate(-90 0.191406 336)" stroke="#393953" stroke-opacity="0.3"/>
<rect x="0.191406" y="360" width="24" height="1440" transform="rotate(-90 0.191406 360)" stroke="#393953" stroke-opacity="0.3"/>
<rect x="0.191406" y="384" width="24" height="1440" transform="rotate(-90 0.191406 384)" stroke="#393953" stroke-opacity="0.3"/>
<rect x="0.191406" y="408" width="24" height="1440" transform="rotate(-90 0.191406 408)" stroke="#393953" stroke-opacity="0.3"/>
<rect x="0.191406" y="432" width="24" height="1440" transform="rotate(-90 0.191406 432)" stroke="#393953" stroke-opacity="0.3"/>
<rect x="0.191406" y="456" width="24" height="1440" transform="rotate(-90 0.191406 456)" stroke="#393953" stroke-opacity="0.3"/>
<rect x="0.191406" y="480" width="24" height="1440" transform="rotate(-90 0.191406 480)" stroke="#393953" stroke-opacity="0.3"/>
<rect x="0.191406" y="504" width="24" height="1440" transform="rotate(-90 0.191406 504)" stroke="#393953" stroke-opacity="0.3"/>
<rect x="0.191406" y="528" width="24" height="1440" transform="rotate(-90 0.191406 528)" stroke="#393953" stroke-opacity="0.3"/>
<rect x="0.191406" y="552" width="24" height="1440" transform="rotate(-90 0.191406 552)" stroke="#393953" stroke-opacity="0.3"/>
<rect x="0.191406" y="576" width="24" height="1440" transform="rotate(-90 0.191406 576)" stroke="#393953" stroke-opacity="0.3"/>
<rect x="0.191406" y="600" width="24" height="1440" transform="rotate(-90 0.191406 600)" stroke="#393953" stroke-opacity="0.3"/>
<rect x="0.191406" y="624" width="24" height="1440" transform="rotate(-90 0.191406 624)" stroke="#393953" stroke-opacity="0.3"/>
<rect x="0.191406" y="648" width="24" height="1440" transform="rotate(-90 0.191406 648)" stroke="#393953" stroke-opacity="0.3"/>
<rect x="0.191406" y="672" width="24" height="1440" transform="rotate(-90 0.191406 672)" stroke="#393953" stroke-opacity="0.3"/>
<rect x="0.191406" y="696" width="24" height="1440" transform="rotate(-90 0.191406 696)" stroke="#393953" stroke-opacity="0.3"/>
<rect x="0.191406" y="720" width="24" height="1440" transform="rotate(-90 0.191406 720)" stroke="#393953" stroke-opacity="0.3"/>
<rect x="0.191406" y="744" width="24" height="1440" transform="rotate(-90 0.191406 744)" stroke="#393953" stroke-opacity="0.3"/>
<rect x="0.191406" y="768" width="24" height="1440" transform="rotate(-90 0.191406 768)" stroke="#393953" stroke-opacity="0.3"/>
<rect x="0.191406" y="792" width="24" height="1440" transform="rotate(-90 0.191406 792)" stroke="#393953" stroke-opacity="0.3"/>
</g>
<mask id="mask2_5047_3416" style="mask-type:alpha" maskUnits="userSpaceOnUse" x="260" y="792" width="921" height="320">
<path opacity="0.7" fill-rule="evenodd" clip-rule="evenodd" d="M283.868 827.994C309.89 840.317 361.934 874.841 361.934 914.351C361.934 917.117 361.891 920.369 361.842 924.034C361.011 985.815 358.609 1164.61 537.584 1096.94C562.918 1087.37 588.948 1078.05 614.537 1068.89C649.788 1056.28 684.202 1043.96 714.808 1031.67C823.464 1094.11 924.665 1133.31 1037.43 1049.78C1189.56 937.083 1231.83 744.245 1105.83 811.623C1083.73 825.781 1020.07 854.915 942.31 858.184C936.867 858.413 930.461 858.66 923.245 858.939C876.125 860.756 794.442 863.907 720.63 872.01C508.088 793.273 166.673 761.639 283.868 827.994Z" fill="url(#paint2_linear_5047_3416)"/>
</mask>
<g mask="url(#mask2_5047_3416)">
<rect x="243.172" y="563.334" width="24" height="792" stroke="#393953" stroke-opacity="0.3"/>
<rect x="267.172" y="563.334" width="24" height="792" stroke="#393953" stroke-opacity="0.3"/>
<rect x="291.172" y="563.334" width="24" height="792" stroke="#393953" stroke-opacity="0.3"/>
<rect x="315.172" y="563.334" width="24" height="792" stroke="#393953" stroke-opacity="0.3"/>
<rect x="339.172" y="563.334" width="24" height="792" stroke="#393953" stroke-opacity="0.3"/>
<rect x="363.172" y="563.334" width="24" height="792" stroke="#393953" stroke-opacity="0.3"/>
<rect x="387.172" y="563.334" width="24" height="792" stroke="#393953" stroke-opacity="0.3"/>
<rect x="411.172" y="563.334" width="24" height="792" stroke="#393953" stroke-opacity="0.3"/>
<rect x="435.172" y="563.334" width="24" height="792" stroke="#393953" stroke-opacity="0.3"/>
<rect x="459.172" y="563.334" width="24" height="792" stroke="#393953" stroke-opacity="0.3"/>
<rect x="483.172" y="563.334" width="24" height="792" stroke="#393953" stroke-opacity="0.3"/>
<rect x="507.172" y="563.334" width="24" height="792" stroke="#393953" stroke-opacity="0.3"/>
<rect x="531.172" y="563.334" width="24" height="792" stroke="#393953" stroke-opacity="0.3"/>
<rect x="555.172" y="563.334" width="24" height="792" stroke="#393953" stroke-opacity="0.3"/>
<rect x="579.172" y="563.334" width="24" height="792" stroke="#393953" stroke-opacity="0.3"/>
<rect x="603.172" y="563.334" width="24" height="792" stroke="#393953" stroke-opacity="0.3"/>
<rect x="627.172" y="563.334" width="24" height="792" stroke="#393953" stroke-opacity="0.3"/>
<rect x="651.172" y="563.334" width="24" height="792" stroke="#393953" stroke-opacity="0.3"/>
<rect x="675.172" y="563.334" width="24" height="792" stroke="#393953" stroke-opacity="0.3"/>
<rect x="699.172" y="563.334" width="24" height="792" stroke="#393953" stroke-opacity="0.3"/>
<rect x="723.172" y="563.334" width="24" height="792" stroke="#393953" stroke-opacity="0.3"/>
<rect x="747.172" y="563.334" width="24" height="792" stroke="#393953" stroke-opacity="0.3"/>
<rect x="771.172" y="563.334" width="24" height="792" stroke="#393953" stroke-opacity="0.3"/>
<rect x="795.172" y="563.334" width="24" height="792" stroke="#393953" stroke-opacity="0.3"/>
<rect x="819.172" y="563.334" width="24" height="792" stroke="#393953" stroke-opacity="0.3"/>
<rect x="843.172" y="563.334" width="24" height="792" stroke="#393953" stroke-opacity="0.3"/>
<rect x="867.172" y="563.334" width="24" height="792" stroke="#393953" stroke-opacity="0.3"/>
<rect x="891.172" y="563.334" width="24" height="792" stroke="#393953" stroke-opacity="0.3"/>
<rect x="915.172" y="563.334" width="24" height="792" stroke="#393953" stroke-opacity="0.3"/>
<rect x="939.172" y="563.334" width="24" height="792" stroke="#393953" stroke-opacity="0.3"/>
<rect x="963.172" y="563.334" width="24" height="792" stroke="#393953" stroke-opacity="0.3"/>
<rect x="987.172" y="563.334" width="24" height="792" stroke="#393953" stroke-opacity="0.3"/>
<rect x="1011.17" y="563.334" width="24" height="792" stroke="#393953" stroke-opacity="0.3"/>
<rect x="1035.17" y="563.334" width="24" height="792" stroke="#393953" stroke-opacity="0.3"/>
<rect x="1059.17" y="563.334" width="24" height="792" stroke="#393953" stroke-opacity="0.3"/>
<rect x="1083.17" y="563.334" width="24" height="792" stroke="#393953" stroke-opacity="0.3"/>
<rect x="1107.17" y="563.334" width="24" height="792" stroke="#393953" stroke-opacity="0.3"/>
<rect x="1131.17" y="563.334" width="24" height="792" stroke="#393953" stroke-opacity="0.3"/>
<rect x="1155.17" y="563.334" width="24" height="792" stroke="#393953" stroke-opacity="0.3"/>
<rect x="1179.17" y="563.334" width="24" height="792" stroke="#393953" stroke-opacity="0.3"/>
<rect x="3.17188" y="803.334" width="24" height="1440" transform="rotate(-90 3.17188 803.334)" stroke="#393953" stroke-opacity="0.3"/>
<rect x="3.17188" y="827.334" width="24" height="1440" transform="rotate(-90 3.17188 827.334)" stroke="#393953" stroke-opacity="0.3"/>
<rect x="3.17188" y="851.334" width="24" height="1440" transform="rotate(-90 3.17188 851.334)" stroke="#393953" stroke-opacity="0.3"/>
<rect x="3.17188" y="875.334" width="24" height="1440" transform="rotate(-90 3.17188 875.334)" stroke="#393953" stroke-opacity="0.3"/>
<rect x="3.17188" y="899.334" width="24" height="1440" transform="rotate(-90 3.17188 899.334)" stroke="#393953" stroke-opacity="0.3"/>
<rect x="3.17188" y="923.334" width="24" height="1440" transform="rotate(-90 3.17188 923.334)" stroke="#393953" stroke-opacity="0.3"/>
<rect x="3.17188" y="947.334" width="24" height="1440" transform="rotate(-90 3.17188 947.334)" stroke="#393953" stroke-opacity="0.3"/>
<rect x="3.17188" y="971.334" width="24" height="1440" transform="rotate(-90 3.17188 971.334)" stroke="#393953" stroke-opacity="0.3"/>
<rect x="3.17188" y="995.334" width="24" height="1440" transform="rotate(-90 3.17188 995.334)" stroke="#393953" stroke-opacity="0.3"/>
<rect x="3.17188" y="1019.33" width="24" height="1440" transform="rotate(-90 3.17188 1019.33)" stroke="#393953" stroke-opacity="0.3"/>
<rect x="3.17188" y="1043.33" width="24" height="1440" transform="rotate(-90 3.17188 1043.33)" stroke="#393953" stroke-opacity="0.3"/>
<rect x="3.17188" y="1067.33" width="24" height="1440" transform="rotate(-90 3.17188 1067.33)" stroke="#393953" stroke-opacity="0.3"/>
<rect x="3.17188" y="1091.33" width="24" height="1440" transform="rotate(-90 3.17188 1091.33)" stroke="#393953" stroke-opacity="0.3"/>
<rect x="3.17188" y="1115.33" width="24" height="1440" transform="rotate(-90 3.17188 1115.33)" stroke="#393953" stroke-opacity="0.3"/>
<rect x="3.17188" y="803.334" width="24" height="1440" transform="rotate(-90 3.17188 803.334)" stroke="#393953" stroke-opacity="0.3"/>
<rect x="3.17188" y="827.334" width="24" height="1440" transform="rotate(-90 3.17188 827.334)" stroke="#393953" stroke-opacity="0.3"/>
<rect x="3.17188" y="851.334" width="24" height="1440" transform="rotate(-90 3.17188 851.334)" stroke="#393953" stroke-opacity="0.3"/>
<rect x="3.17188" y="875.334" width="24" height="1440" transform="rotate(-90 3.17188 875.334)" stroke="#393953" stroke-opacity="0.3"/>
<rect x="3.17188" y="899.334" width="24" height="1440" transform="rotate(-90 3.17188 899.334)" stroke="#393953" stroke-opacity="0.3"/>
<rect x="3.17188" y="923.334" width="24" height="1440" transform="rotate(-90 3.17188 923.334)" stroke="#393953" stroke-opacity="0.3"/>
<rect x="3.17188" y="947.334" width="24" height="1440" transform="rotate(-90 3.17188 947.334)" stroke="#393953" stroke-opacity="0.3"/>
<rect x="3.17188" y="971.334" width="24" height="1440" transform="rotate(-90 3.17188 971.334)" stroke="#393953" stroke-opacity="0.3"/>
<rect x="3.17188" y="995.334" width="24" height="1440" transform="rotate(-90 3.17188 995.334)" stroke="#393953" stroke-opacity="0.3"/>
<rect x="3.17188" y="1019.33" width="24" height="1440" transform="rotate(-90 3.17188 1019.33)" stroke="#393953" stroke-opacity="0.3"/>
<rect x="3.17188" y="1043.33" width="24" height="1440" transform="rotate(-90 3.17188 1043.33)" stroke="#393953" stroke-opacity="0.3"/>
<rect x="3.17188" y="1067.33" width="24" height="1440" transform="rotate(-90 3.17188 1067.33)" stroke="#393953" stroke-opacity="0.3"/>
<rect x="3.17188" y="1091.33" width="24" height="1440" transform="rotate(-90 3.17188 1091.33)" stroke="#393953" stroke-opacity="0.3"/>
<rect x="3.17188" y="1115.33" width="24" height="1440" transform="rotate(-90 3.17188 1115.33)" stroke="#393953" stroke-opacity="0.3"/>
</g>
<mask id="mask3_5047_3416" style="mask-type:alpha" maskUnits="userSpaceOnUse" x="260" y="1798" width="921" height="320">
<path opacity="0.7" fill-rule="evenodd" clip-rule="evenodd" d="M283.868 1833.99C309.89 1846.32 361.934 1880.84 361.934 1920.35C361.934 1923.12 361.891 1926.37 361.842 1930.03C361.011 1991.82 358.609 2170.61 537.584 2102.94C562.918 2093.37 588.948 2084.05 614.537 2074.89C649.788 2062.28 684.202 2049.96 714.808 2037.67C823.464 2100.11 924.665 2139.31 1037.43 2055.78C1189.56 1943.08 1231.83 1750.24 1105.83 1817.62C1083.73 1831.78 1020.07 1860.91 942.31 1864.18C936.867 1864.41 930.461 1864.66 923.245 1864.94C876.125 1866.76 794.442 1869.91 720.63 1878.01C508.088 1799.27 166.673 1767.64 283.868 1833.99Z" fill="url(#paint3_linear_5047_3416)"/>
</mask>
<g mask="url(#mask3_5047_3416)">
<rect x="243.172" y="1569.33" width="24" height="792" stroke="#393953" stroke-opacity="0.3"/>
<rect x="267.172" y="1569.33" width="24" height="792" stroke="#393953" stroke-opacity="0.3"/>
<rect x="291.172" y="1569.33" width="24" height="792" stroke="#393953" stroke-opacity="0.3"/>
<rect x="315.172" y="1569.33" width="24" height="792" stroke="#393953" stroke-opacity="0.3"/>
<rect x="339.172" y="1569.33" width="24" height="792" stroke="#393953" stroke-opacity="0.3"/>
<rect x="363.172" y="1569.33" width="24" height="792" stroke="#393953" stroke-opacity="0.3"/>
<rect x="387.172" y="1569.33" width="24" height="792" stroke="#393953" stroke-opacity="0.3"/>
<rect x="411.172" y="1569.33" width="24" height="792" stroke="#393953" stroke-opacity="0.3"/>
<rect x="435.172" y="1569.33" width="24" height="792" stroke="#393953" stroke-opacity="0.3"/>
<rect x="459.172" y="1569.33" width="24" height="792" stroke="#393953" stroke-opacity="0.3"/>
<rect x="483.172" y="1569.33" width="24" height="792" stroke="#393953" stroke-opacity="0.3"/>
<rect x="507.172" y="1569.33" width="24" height="792" stroke="#393953" stroke-opacity="0.3"/>
<rect x="531.172" y="1569.33" width="24" height="792" stroke="#393953" stroke-opacity="0.3"/>
<rect x="555.172" y="1569.33" width="24" height="792" stroke="#393953" stroke-opacity="0.3"/>
<rect x="579.172" y="1569.33" width="24" height="792" stroke="#393953" stroke-opacity="0.3"/>
<rect x="603.172" y="1569.33" width="24" height="792" stroke="#393953" stroke-opacity="0.3"/>
<rect x="627.172" y="1569.33" width="24" height="792" stroke="#393953" stroke-opacity="0.3"/>
<rect x="651.172" y="1569.33" width="24" height="792" stroke="#393953" stroke-opacity="0.3"/>
<rect x="675.172" y="1569.33" width="24" height="792" stroke="#393953" stroke-opacity="0.3"/>
<rect x="699.172" y="1569.33" width="24" height="792" stroke="#393953" stroke-opacity="0.3"/>
<rect x="723.172" y="1569.33" width="24" height="792" stroke="#393953" stroke-opacity="0.3"/>
<rect x="747.172" y="1569.33" width="24" height="792" stroke="#393953" stroke-opacity="0.3"/>
<rect x="771.172" y="1569.33" width="24" height="792" stroke="#393953" stroke-opacity="0.3"/>
<rect x="795.172" y="1569.33" width="24" height="792" stroke="#393953" stroke-opacity="0.3"/>
<rect x="819.172" y="1569.33" width="24" height="792" stroke="#393953" stroke-opacity="0.3"/>
<rect x="843.172" y="1569.33" width="24" height="792" stroke="#393953" stroke-opacity="0.3"/>
<rect x="867.172" y="1569.33" width="24" height="792" stroke="#393953" stroke-opacity="0.3"/>
<rect x="891.172" y="1569.33" width="24" height="792" stroke="#393953" stroke-opacity="0.3"/>
<rect x="915.172" y="1569.33" width="24" height="792" stroke="#393953" stroke-opacity="0.3"/>
<rect x="939.172" y="1569.33" width="24" height="792" stroke="#393953" stroke-opacity="0.3"/>
<rect x="963.172" y="1569.33" width="24" height="792" stroke="#393953" stroke-opacity="0.3"/>
<rect x="987.172" y="1569.33" width="24" height="792" stroke="#393953" stroke-opacity="0.3"/>
<rect x="1011.17" y="1569.33" width="24" height="792" stroke="#393953" stroke-opacity="0.3"/>
<rect x="1035.17" y="1569.33" width="24" height="792" stroke="#393953" stroke-opacity="0.3"/>
<rect x="1059.17" y="1569.33" width="24" height="792" stroke="#393953" stroke-opacity="0.3"/>
<rect x="1083.17" y="1569.33" width="24" height="792" stroke="#393953" stroke-opacity="0.3"/>
<rect x="1107.17" y="1569.33" width="24" height="792" stroke="#393953" stroke-opacity="0.3"/>
<rect x="1131.17" y="1569.33" width="24" height="792" stroke="#393953" stroke-opacity="0.3"/>
<rect x="1155.17" y="1569.33" width="24" height="792" stroke="#393953" stroke-opacity="0.3"/>
<rect x="1179.17" y="1569.33" width="24" height="792" stroke="#393953" stroke-opacity="0.3"/>
<rect x="3.17188" y="1809.33" width="24" height="1440" transform="rotate(-90 3.17188 1809.33)" stroke="#393953" stroke-opacity="0.3"/>
<rect x="3.17188" y="1833.33" width="24" height="1440" transform="rotate(-90 3.17188 1833.33)" stroke="#393953" stroke-opacity="0.3"/>
<rect x="3.17188" y="1857.33" width="24" height="1440" transform="rotate(-90 3.17188 1857.33)" stroke="#393953" stroke-opacity="0.3"/>
<rect x="3.17188" y="1881.33" width="24" height="1440" transform="rotate(-90 3.17188 1881.33)" stroke="#393953" stroke-opacity="0.3"/>
<rect x="3.17188" y="1905.33" width="24" height="1440" transform="rotate(-90 3.17188 1905.33)" stroke="#393953" stroke-opacity="0.3"/>
<rect x="3.17188" y="1929.33" width="24" height="1440" transform="rotate(-90 3.17188 1929.33)" stroke="#393953" stroke-opacity="0.3"/>
<rect x="3.17188" y="1953.33" width="24" height="1440" transform="rotate(-90 3.17188 1953.33)" stroke="#393953" stroke-opacity="0.3"/>
<rect x="3.17188" y="1977.33" width="24" height="1440" transform="rotate(-90 3.17188 1977.33)" stroke="#393953" stroke-opacity="0.3"/>
<rect x="3.17188" y="2001.33" width="24" height="1440" transform="rotate(-90 3.17188 2001.33)" stroke="#393953" stroke-opacity="0.3"/>
<rect x="3.17188" y="2025.33" width="24" height="1440" transform="rotate(-90 3.17188 2025.33)" stroke="#393953" stroke-opacity="0.3"/>
<rect x="3.17188" y="2049.33" width="24" height="1440" transform="rotate(-90 3.17188 2049.33)" stroke="#393953" stroke-opacity="0.3"/>
<rect x="3.17188" y="2073.33" width="24" height="1440" transform="rotate(-90 3.17188 2073.33)" stroke="#393953" stroke-opacity="0.3"/>
<rect x="3.17188" y="2097.33" width="24" height="1440" transform="rotate(-90 3.17188 2097.33)" stroke="#393953" stroke-opacity="0.3"/>
<rect x="3.17188" y="2121.33" width="24" height="1440" transform="rotate(-90 3.17188 2121.33)" stroke="#393953" stroke-opacity="0.3"/>
</g>
<mask id="mask4_5047_3416" style="mask-type:alpha" maskUnits="userSpaceOnUse" x="284" y="2596" width="921" height="320">
<path opacity="0.7" fill-rule="evenodd" clip-rule="evenodd" d="M307.868 2631.99C333.89 2644.32 385.934 2678.84 385.934 2718.35C385.934 2721.12 385.891 2724.37 385.842 2728.03C385.011 2789.82 382.609 2968.61 561.584 2900.94C586.918 2891.37 612.948 2882.05 638.537 2872.89C673.788 2860.28 708.202 2847.96 738.808 2835.67C847.464 2898.11 948.665 2937.31 1061.43 2853.78C1213.56 2741.08 1255.83 2548.24 1129.83 2615.62C1107.73 2629.78 1044.07 2658.91 966.31 2662.18C960.867 2662.41 954.461 2662.66 947.245 2662.94C900.125 2664.76 818.442 2667.91 744.63 2676.01C532.088 2597.27 190.673 2565.64 307.868 2631.99Z" fill="url(#paint4_linear_5047_3416)"/>
</mask>
<g mask="url(#mask4_5047_3416)">
<rect x="264" y="2360" width="24" height="792" stroke="#393953" stroke-opacity="0.3"/>
<rect x="288" y="2360" width="24" height="792" stroke="#393953" stroke-opacity="0.3"/>
<rect x="312" y="2360" width="24" height="792" stroke="#393953" stroke-opacity="0.3"/>
<rect x="336" y="2360" width="24" height="792" stroke="#393953" stroke-opacity="0.3"/>
<rect x="360" y="2360" width="24" height="792" stroke="#393953" stroke-opacity="0.3"/>
<rect x="384" y="2360" width="24" height="792" stroke="#393953" stroke-opacity="0.3"/>
<rect x="408" y="2360" width="24" height="792" stroke="#393953" stroke-opacity="0.3"/>
<rect x="432" y="2360" width="24" height="792" stroke="#393953" stroke-opacity="0.3"/>
<rect x="456" y="2360" width="24" height="792" stroke="#393953" stroke-opacity="0.3"/>
<rect x="480" y="2360" width="24" height="792" stroke="#393953" stroke-opacity="0.3"/>
<rect x="504" y="2360" width="24" height="792" stroke="#393953" stroke-opacity="0.3"/>
<rect x="528" y="2360" width="24" height="792" stroke="#393953" stroke-opacity="0.3"/>
<rect x="552" y="2360" width="24" height="792" stroke="#393953" stroke-opacity="0.3"/>
<rect x="576" y="2360" width="24" height="792" stroke="#393953" stroke-opacity="0.3"/>
<rect x="600" y="2360" width="24" height="792" stroke="#393953" stroke-opacity="0.3"/>
<rect x="624" y="2360" width="24" height="792" stroke="#393953" stroke-opacity="0.3"/>
<rect x="648" y="2360" width="24" height="792" stroke="#393953" stroke-opacity="0.3"/>
<rect x="672" y="2360" width="24" height="792" stroke="#393953" stroke-opacity="0.3"/>
<rect x="696" y="2360" width="24" height="792" stroke="#393953" stroke-opacity="0.3"/>
<rect x="720" y="2360" width="24" height="792" stroke="#393953" stroke-opacity="0.3"/>
<rect x="744" y="2360" width="24" height="792" stroke="#393953" stroke-opacity="0.3"/>
<rect x="768" y="2360" width="24" height="792" stroke="#393953" stroke-opacity="0.3"/>
<rect x="792" y="2360" width="24" height="792" stroke="#393953" stroke-opacity="0.3"/>
<rect x="816" y="2360" width="24" height="792" stroke="#393953" stroke-opacity="0.3"/>
<rect x="840" y="2360" width="24" height="792" stroke="#393953" stroke-opacity="0.3"/>
<rect x="864" y="2360" width="24" height="792" stroke="#393953" stroke-opacity="0.3"/>
<rect x="888" y="2360" width="24" height="792" stroke="#393953" stroke-opacity="0.3"/>
<rect x="912" y="2360" width="24" height="792" stroke="#393953" stroke-opacity="0.3"/>
<rect x="936" y="2360" width="24" height="792" stroke="#393953" stroke-opacity="0.3"/>
<rect x="960" y="2360" width="24" height="792" stroke="#393953" stroke-opacity="0.3"/>
<rect x="984" y="2360" width="24" height="792" stroke="#393953" stroke-opacity="0.3"/>
<rect x="1008" y="2360" width="24" height="792" stroke="#393953" stroke-opacity="0.3"/>
<rect x="1032" y="2360" width="24" height="792" stroke="#393953" stroke-opacity="0.3"/>
<rect x="1056" y="2360" width="24" height="792" stroke="#393953" stroke-opacity="0.3"/>
<rect x="1080" y="2360" width="24" height="792" stroke="#393953" stroke-opacity="0.3"/>
<rect x="1104" y="2360" width="24" height="792" stroke="#393953" stroke-opacity="0.3"/>
<rect x="1128" y="2360" width="24" height="792" stroke="#393953" stroke-opacity="0.3"/>
<rect x="1152" y="2360" width="24" height="792" stroke="#393953" stroke-opacity="0.3"/>
<rect x="1176" y="2360" width="24" height="792" stroke="#393953" stroke-opacity="0.3"/>
<rect x="1200" y="2360" width="24" height="792" stroke="#393953" stroke-opacity="0.3"/>
<rect y="2600" width="24" height="1440" transform="rotate(-90 0 2600)" stroke="#393953" stroke-opacity="0.3"/>
<rect y="2624" width="24" height="1440" transform="rotate(-90 0 2624)" stroke="#393953" stroke-opacity="0.3"/>
<rect y="2648" width="24" height="1440" transform="rotate(-90 0 2648)" stroke="#393953" stroke-opacity="0.3"/>
<rect y="2672" width="24" height="1440" transform="rotate(-90 0 2672)" stroke="#393953" stroke-opacity="0.3"/>
<rect y="2696" width="24" height="1440" transform="rotate(-90 0 2696)" stroke="#393953" stroke-opacity="0.3"/>
<rect y="2720" width="24" height="1440" transform="rotate(-90 0 2720)" stroke="#393953" stroke-opacity="0.3"/>
<rect y="2744" width="24" height="1440" transform="rotate(-90 0 2744)" stroke="#393953" stroke-opacity="0.3"/>
<rect y="2768" width="24" height="1440" transform="rotate(-90 0 2768)" stroke="#393953" stroke-opacity="0.3"/>
<rect y="2792" width="24" height="1440" transform="rotate(-90 0 2792)" stroke="#393953" stroke-opacity="0.3"/>
<rect y="2816" width="24" height="1440" transform="rotate(-90 0 2816)" stroke="#393953" stroke-opacity="0.3"/>
<rect y="2840" width="24" height="1440" transform="rotate(-90 0 2840)" stroke="#393953" stroke-opacity="0.3"/>
<rect y="2864" width="24" height="1440" transform="rotate(-90 0 2864)" stroke="#393953" stroke-opacity="0.3"/>
<rect y="2888" width="24" height="1440" transform="rotate(-90 0 2888)" stroke="#393953" stroke-opacity="0.3"/>
<rect y="2912" width="24" height="1440" transform="rotate(-90 0 2912)" stroke="#393953" stroke-opacity="0.3"/>
<rect y="2936" width="24" height="1440" transform="rotate(-90 0 2936)" stroke="#393953" stroke-opacity="0.3"/>
</g>
<mask id="mask5_5047_3416" style="mask-type:alpha" maskUnits="userSpaceOnUse" x="284" y="3464" width="921" height="320">
<path opacity="0.7" fill-rule="evenodd" clip-rule="evenodd" d="M307.868 3499.99C333.89 3512.32 385.934 3546.84 385.934 3586.35C385.934 3589.12 385.891 3592.37 385.842 3596.03C385.011 3657.82 382.609 3836.61 561.584 3768.94C586.918 3759.37 612.948 3750.05 638.537 3740.89C673.788 3728.28 708.202 3715.96 738.808 3703.67C847.464 3766.11 948.665 3805.31 1061.43 3721.78C1213.56 3609.08 1255.83 3416.24 1129.83 3483.62C1107.73 3497.78 1044.07 3526.91 966.31 3530.18C960.867 3530.41 954.461 3530.66 947.245 3530.94C900.125 3532.76 818.442 3535.91 744.63 3544.01C532.088 3465.27 190.673 3433.64 307.868 3499.99Z" fill="url(#paint5_linear_5047_3416)"/>
</mask>
<g mask="url(#mask5_5047_3416)">
<rect x="267.172" y="3235.33" width="24" height="792" stroke="#393953" stroke-opacity="0.3"/>
<rect x="291.172" y="3235.33" width="24" height="792" stroke="#393953" stroke-opacity="0.3"/>
<rect x="315.172" y="3235.33" width="24" height="792" stroke="#393953" stroke-opacity="0.3"/>
<rect x="339.172" y="3235.33" width="24" height="792" stroke="#393953" stroke-opacity="0.3"/>
<rect x="363.172" y="3235.33" width="24" height="792" stroke="#393953" stroke-opacity="0.3"/>
<rect x="387.172" y="3235.33" width="24" height="792" stroke="#393953" stroke-opacity="0.3"/>
<rect x="411.172" y="3235.33" width="24" height="792" stroke="#393953" stroke-opacity="0.3"/>
<rect x="435.172" y="3235.33" width="24" height="792" stroke="#393953" stroke-opacity="0.3"/>
<rect x="459.172" y="3235.33" width="24" height="792" stroke="#393953" stroke-opacity="0.3"/>
<rect x="483.172" y="3235.33" width="24" height="792" stroke="#393953" stroke-opacity="0.3"/>
<rect x="507.172" y="3235.33" width="24" height="792" stroke="#393953" stroke-opacity="0.3"/>
<rect x="531.172" y="3235.33" width="24" height="792" stroke="#393953" stroke-opacity="0.3"/>
<rect x="555.172" y="3235.33" width="24" height="792" stroke="#393953" stroke-opacity="0.3"/>
<rect x="579.172" y="3235.33" width="24" height="792" stroke="#393953" stroke-opacity="0.3"/>
<rect x="603.172" y="3235.33" width="24" height="792" stroke="#393953" stroke-opacity="0.3"/>
<rect x="627.172" y="3235.33" width="24" height="792" stroke="#393953" stroke-opacity="0.3"/>
<rect x="651.172" y="3235.33" width="24" height="792" stroke="#393953" stroke-opacity="0.3"/>
<rect x="675.172" y="3235.33" width="24" height="792" stroke="#393953" stroke-opacity="0.3"/>
<rect x="699.172" y="3235.33" width="24" height="792" stroke="#393953" stroke-opacity="0.3"/>
<rect x="723.172" y="3235.33" width="24" height="792" stroke="#393953" stroke-opacity="0.3"/>
<rect x="747.172" y="3235.33" width="24" height="792" stroke="#393953" stroke-opacity="0.3"/>
<rect x="771.172" y="3235.33" width="24" height="792" stroke="#393953" stroke-opacity="0.3"/>
<rect x="795.172" y="3235.33" width="24" height="792" stroke="#393953" stroke-opacity="0.3"/>
<rect x="819.172" y="3235.33" width="24" height="792" stroke="#393953" stroke-opacity="0.3"/>
<rect x="843.172" y="3235.33" width="24" height="792" stroke="#393953" stroke-opacity="0.3"/>
<rect x="867.172" y="3235.33" width="24" height="792" stroke="#393953" stroke-opacity="0.3"/>
<rect x="891.172" y="3235.33" width="24" height="792" stroke="#393953" stroke-opacity="0.3"/>
<rect x="915.172" y="3235.33" width="24" height="792" stroke="#393953" stroke-opacity="0.3"/>
<rect x="939.172" y="3235.33" width="24" height="792" stroke="#393953" stroke-opacity="0.3"/>
<rect x="963.172" y="3235.33" width="24" height="792" stroke="#393953" stroke-opacity="0.3"/>
<rect x="987.172" y="3235.33" width="24" height="792" stroke="#393953" stroke-opacity="0.3"/>
<rect x="1011.17" y="3235.33" width="24" height="792" stroke="#393953" stroke-opacity="0.3"/>
<rect x="1035.17" y="3235.33" width="24" height="792" stroke="#393953" stroke-opacity="0.3"/>
<rect x="1059.17" y="3235.33" width="24" height="792" stroke="#393953" stroke-opacity="0.3"/>
<rect x="1083.17" y="3235.33" width="24" height="792" stroke="#393953" stroke-opacity="0.3"/>
<rect x="1107.17" y="3235.33" width="24" height="792" stroke="#393953" stroke-opacity="0.3"/>
<rect x="1131.17" y="3235.33" width="24" height="792" stroke="#393953" stroke-opacity="0.3"/>
<rect x="1155.17" y="3235.33" width="24" height="792" stroke="#393953" stroke-opacity="0.3"/>
<rect x="1179.17" y="3235.33" width="24" height="792" stroke="#393953" stroke-opacity="0.3"/>
<rect x="1203.17" y="3235.33" width="24" height="792" stroke="#393953" stroke-opacity="0.3"/>
<rect x="27.1719" y="3475.33" width="24" height="1440" transform="rotate(-90 27.1719 3475.33)" stroke="#393953" stroke-opacity="0.3"/>
<rect x="27.1719" y="3499.33" width="24" height="1440" transform="rotate(-90 27.1719 3499.33)" stroke="#393953" stroke-opacity="0.3"/>
<rect x="27.1719" y="3523.33" width="24" height="1440" transform="rotate(-90 27.1719 3523.33)" stroke="#393953" stroke-opacity="0.3"/>
<rect x="27.1719" y="3547.33" width="24" height="1440" transform="rotate(-90 27.1719 3547.33)" stroke="#393953" stroke-opacity="0.3"/>
<rect x="27.1719" y="3571.33" width="24" height="1440" transform="rotate(-90 27.1719 3571.33)" stroke="#393953" stroke-opacity="0.3"/>
<rect x="27.1719" y="3595.33" width="24" height="1440" transform="rotate(-90 27.1719 3595.33)" stroke="#393953" stroke-opacity="0.3"/>
<rect x="27.1719" y="3619.33" width="24" height="1440" transform="rotate(-90 27.1719 3619.33)" stroke="#393953" stroke-opacity="0.3"/>
<rect x="27.1719" y="3643.33" width="24" height="1440" transform="rotate(-90 27.1719 3643.33)" stroke="#393953" stroke-opacity="0.3"/>
<rect x="27.1719" y="3667.33" width="24" height="1440" transform="rotate(-90 27.1719 3667.33)" stroke="#393953" stroke-opacity="0.3"/>
<rect x="27.1719" y="3691.33" width="24" height="1440" transform="rotate(-90 27.1719 3691.33)" stroke="#393953" stroke-opacity="0.3"/>
<rect x="27.1719" y="3715.33" width="24" height="1440" transform="rotate(-90 27.1719 3715.33)" stroke="#393953" stroke-opacity="0.3"/>
<rect x="27.1719" y="3739.33" width="24" height="1440" transform="rotate(-90 27.1719 3739.33)" stroke="#393953" stroke-opacity="0.3"/>
<rect x="27.1719" y="3763.33" width="24" height="1440" transform="rotate(-90 27.1719 3763.33)" stroke="#393953" stroke-opacity="0.3"/>
<rect x="27.1719" y="3787.33" width="24" height="1440" transform="rotate(-90 27.1719 3787.33)" stroke="#393953" stroke-opacity="0.3"/>
</g>
</g>
<defs>
<linearGradient id="paint0_linear_5047_3416" x1="720" y1="4908" x2="720" y2="4033.5" gradientUnits="userSpaceOnUse">
<stop stop-color="white"/>
<stop offset="1" stop-color="white" stop-opacity="0"/>
</linearGradient>
<linearGradient id="paint1_linear_5047_3416" x1="720.191" y1="0" x2="720.191" y2="792" gradientUnits="userSpaceOnUse">
<stop stop-color="white"/>
<stop offset="1" stop-color="white" stop-opacity="0"/>
</linearGradient>
<linearGradient id="paint2_linear_5047_3416" x1="1170.34" y1="771.778" x2="966.286" y2="1190.48" gradientUnits="userSpaceOnUse">
<stop stop-color="white"/>
<stop offset="1" stop-color="white"/>
</linearGradient>
<linearGradient id="paint3_linear_5047_3416" x1="1170.34" y1="1777.78" x2="966.286" y2="2196.48" gradientUnits="userSpaceOnUse">
<stop stop-color="white"/>
<stop offset="1" stop-color="white"/>
</linearGradient>
<linearGradient id="paint4_linear_5047_3416" x1="1194.34" y1="2575.78" x2="990.286" y2="2994.48" gradientUnits="userSpaceOnUse">
<stop stop-color="white"/>
<stop offset="1" stop-color="white"/>
</linearGradient>
<linearGradient id="paint5_linear_5047_3416" x1="1194.34" y1="3443.78" x2="990.286" y2="3862.48" gradientUnits="userSpaceOnUse">
<stop stop-color="white"/>
<stop offset="1" stop-color="white"/>
</linearGradient>
<clipPath id="clip0_5047_3416">
<rect width="1440" height="4908" fill="white"/>
</clipPath>
</defs>
</svg>
